<svg width="50" height="50" viewBox="0 0 50 50" fill="none" xmlns="http://www.w3.org/2000/svg">
<path d="M0.6 25C0.6 11.5243 11.5243 0.6 25 0.6C38.4757 0.6 49.4 11.5243 49.4 25C49.4 38.4757 38.4757 49.4 25 49.4C11.5243 49.4 0.6 38.4757 0.6 25Z" fill="white" stroke="#EAECEF" stroke-width="1.2"/>
<path fill-rule="evenodd" clip-rule="evenodd" d="M18.7865 25.1997L18.7874 25.2006L18.71 25.3293C18.548 25.6218 18.4391 25.9467 18.3968 26.268L18.3797 26.4588L18.3788 26.6775C18.3653 27.303 18.575 27.9285 18.9539 28.3929C19.529 28.9986 20.3093 29.3766 21.1517 29.4585C22.5881 29.6142 24.0488 29.6934 25.4942 29.6934C26.9423 29.6934 28.4084 29.6142 29.8511 29.4576C30.6755 29.3811 31.4612 29.0058 32.0084 28.4271C32.4197 27.933 32.6375 27.303 32.6213 26.6532L32.6222 26.4903C32.6015 26.0187 32.4512 25.5615 32.1875 25.1673L32.2028 25.1925L32.0651 25.0305C31.5872 24.441 31.2461 23.7696 31.0517 23.0343L30.9869 22.758L30.9743 22.6653C30.9635 22.5186 30.9581 22.3989 30.9554 22.2648L30.9527 21.3603C30.9509 21.1326 30.9446 20.9787 30.9311 20.8131C30.698 18.3768 28.2779 16.395 25.5365 16.395H25.4645C22.7213 16.395 20.3057 18.3741 20.0798 20.8068C20.069 20.9283 20.06 21.0624 20.051 21.2289L20.0357 21.696L20.0285 22.6149L20.0141 22.7571C19.8287 23.6607 19.4066 24.5022 18.7937 25.1916H18.7928L18.7865 25.1997ZM21.0131 30.8463C19.8467 30.7347 18.7505 30.1929 17.927 29.3226C17.3087 28.5693 16.9802 27.6252 17.0009 26.6622L17.0018 26.4246C17.0378 25.6965 17.2691 24.9891 17.6696 24.3798L17.7362 24.2934C18.2042 23.7804 18.5255 23.1504 18.665 22.4727L18.6497 22.5339L18.6524 21.9993L18.6641 21.4035C18.6731 21.1416 18.6875 20.9049 18.7064 20.6808C18.8495 19.1337 19.6406 17.6937 20.9348 16.6272C22.2056 15.5778 23.8148 15 25.4645 15H25.5365C27.1853 15 28.7945 15.5778 30.0662 16.6263C31.3604 17.6937 32.1551 19.1355 32.3036 20.6853C32.3207 20.8833 32.3288 21.0642 32.3315 21.3324V22.0056C32.3315 22.1154 32.3333 22.2135 32.336 22.3134L32.345 22.5096L32.39 22.6968C32.5313 23.2206 32.7752 23.7021 33.1163 24.1278L33.2666 24.3051L33.3287 24.3843C33.7355 24.9927 33.9677 25.71 34.0001 26.4588L33.9992 26.862C33.9704 27.7746 33.6365 28.6377 33.0335 29.3586C32.2298 30.2109 31.148 30.7392 29.987 30.8454C28.5002 31.0074 26.9891 31.0893 25.4942 31.0893C24.002 31.0893 22.4936 31.0074 21.0131 30.8463ZM25.0451 34.9755C24.1262 34.8657 23.2874 34.3959 22.715 33.6687C22.4774 33.3672 22.5269 32.9289 22.8239 32.6886C23.1218 32.4483 23.5556 32.4978 23.7923 32.7993C24.1379 33.2385 24.6464 33.5229 25.2062 33.5895C25.7669 33.6561 26.3303 33.4986 26.783 33.144C26.9162 33.0441 27.0359 32.9271 27.1385 32.7966C27.3779 32.4969 27.8117 32.4492 28.1078 32.6904C28.4048 32.9325 28.4516 33.3717 28.2131 33.6714C28.0367 33.8937 27.8324 34.0926 27.6164 34.2546C26.9987 34.7401 26.238 35.0002 25.4598 35.0002C25.3218 35.0002 25.1835 34.992 25.0451 34.9755Z" fill="#200E32"/>
</svg>
