<svg width="32" height="32" viewBox="0 0 32 32" fill="none" xmlns="http://www.w3.org/2000/svg">
<path fill-rule="evenodd" clip-rule="evenodd" d="M8.33733 16.3108C8.33733 15.4112 9.07065 14.6779 9.97281 14.6779C10.8762 14.6779 11.6095 15.4112 11.6095 16.3108C11.6095 17.2142 10.8762 17.9476 9.97281 17.9476C9.07065 17.9476 8.33733 17.2142 8.33733 16.3108ZM14.6978 16.3108C14.6978 15.4112 15.4311 14.6779 16.3333 14.6779C17.2354 14.6779 17.9688 15.4112 17.9688 16.3108C17.9688 17.2142 17.2354 17.9476 16.3333 17.9476C15.4311 17.9476 14.6978 17.2142 14.6978 16.3108ZM21.057 16.3108C21.057 15.4112 21.7903 14.6779 22.6938 14.6779C23.5959 14.6779 24.3292 15.4112 24.3292 16.3108C24.3292 17.2142 23.5959 17.9476 22.6938 17.9476C21.7903 17.9476 21.057 17.2142 21.057 16.3108Z" fill="#38435B"/>
<path d="M8.68733 16.3108C8.68733 15.6048 9.26359 15.0279 9.97281 15.0279V14.3279C8.8777 14.3279 7.98733 15.2175 7.98733 16.3108H8.68733ZM9.97281 15.0279C10.6835 15.0279 11.2595 15.605 11.2595 16.3108H11.9595C11.9595 15.2174 11.069 14.3279 9.97281 14.3279V15.0279ZM11.2595 16.3108C11.2595 17.0209 10.6829 17.5976 9.97281 17.5976V18.2976C11.0695 18.2976 11.9595 17.4075 11.9595 16.3108H11.2595ZM9.97281 17.5976C9.26412 17.5976 8.68733 17.0211 8.68733 16.3108H7.98733C7.98733 17.4074 8.87717 18.2976 9.97281 18.2976V17.5976ZM15.0478 16.3108C15.0478 15.6048 15.6241 15.0279 16.3333 15.0279V14.3279C15.2382 14.3279 14.3478 15.2175 14.3478 16.3108H15.0478ZM16.3333 15.0279C17.0425 15.0279 17.6188 15.6048 17.6188 16.3108H18.3188C18.3188 15.2175 17.4284 14.3279 16.3333 14.3279V15.0279ZM17.6188 16.3108C17.6188 17.0211 17.042 17.5976 16.3333 17.5976V18.2976C17.4289 18.2976 18.3188 17.4074 18.3188 16.3108H17.6188ZM16.3333 17.5976C15.6246 17.5976 15.0478 17.0211 15.0478 16.3108H14.3478C14.3478 17.4074 15.2377 18.2976 16.3333 18.2976V17.5976ZM21.407 16.3108C21.407 15.605 21.9831 15.0279 22.6938 15.0279V14.3279C21.5976 14.3279 20.707 15.2174 20.707 16.3108H21.407ZM22.6938 15.0279C23.403 15.0279 23.9792 15.6048 23.9792 16.3108H24.6792C24.6792 15.2175 23.7889 14.3279 22.6938 14.3279V15.0279ZM23.9792 16.3108C23.9792 17.0211 23.4025 17.5976 22.6938 17.5976V18.2976C23.7894 18.2976 24.6792 17.4074 24.6792 16.3108H23.9792ZM22.6938 17.5976C21.9836 17.5976 21.407 17.0209 21.407 16.3108H20.707C20.707 17.4075 21.597 18.2976 22.6938 18.2976V17.5976Z" fill="#38435B"/>
<path fill-rule="evenodd" clip-rule="evenodd" d="M16.028 2C7.894 2 2 8.64457 2 16.021C2 18.3766 2.686 20.8008 3.89 23.0161C4.114 23.3821 4.142 23.8434 3.988 24.2794L3.05 27.4201C2.84 28.1773 3.484 28.7367 4.198 28.5124L7.026 27.6725C7.796 27.4201 8.398 27.7412 9.112 28.1773C11.156 29.3817 13.704 30 16 30C22.944 30 30 24.6299 30 15.979C30 8.51837 23.98 1.99999 16.028 1.99999V2Z" stroke="#38435B" stroke-width="2.3" stroke-linecap="round" stroke-linejoin="round"/>
</svg>
