<svg width="32" height="30" viewBox="0 0 32 30" fill="none" xmlns="http://www.w3.org/2000/svg">
<path fill-rule="evenodd" clip-rule="evenodd" d="M15.6478 28.3071C12.449 26.3388 9.47323 24.0221 6.77371 21.3986C4.87582 19.5093 3.43097 17.206 2.54985 14.6651C0.964235 9.73621 2.81634 4.09355 7.99957 2.42365C10.7237 1.5468 13.6988 2.04796 15.9943 3.77034V3.77034C18.2906 2.05005 21.2647 1.54907 23.989 2.42365C29.1722 4.09356 31.0376 9.73621 29.452 14.6651C28.5709 17.206 27.126 19.5093 25.2282 21.3986C22.5286 24.0221 19.5528 26.3388 16.354 28.3071L16.0076 28.5226L15.6478 28.3071Z" stroke="#38435B" stroke-width="2.3" stroke-linecap="round" stroke-linejoin="round"/>
<path d="M21.5112 7.97574C23.0782 8.47713 24.1916 9.88626 24.3308 11.5442" stroke="#38435B" stroke-width="2.3" stroke-linecap="round" stroke-linejoin="round"/>
</svg>
