<svg width="28" height="21" viewBox="0 0 28 21" fill="none" xmlns="http://www.w3.org/2000/svg">
<path fill-rule="evenodd" clip-rule="evenodd" d="M0.168904 0.668934H26.9413V20.6638H0.168904V0.668934Z" fill="#5E9C76"/>
<path fill-rule="evenodd" clip-rule="evenodd" d="M27.1152 0.5H17.2859H0V20.8364H27.1152V0.5ZM26.7762 0.83894V20.4974H0.33894V0.83894H17.2859H26.7762" fill="#37774E"/>
<path fill-rule="evenodd" clip-rule="evenodd" d="M11.3281 5.45397C11.3115 5.45363 11.2865 5.46276 11.2516 5.48406C11.173 5.53747 11.017 5.70246 11.0123 5.89212C11.0077 5.99895 10.9877 5.9986 11.0566 6.0669C11.1065 6.13991 11.1564 6.13282 11.2569 6.07907C11.3148 6.0358 11.3341 6.00841 11.3537 5.93573C11.3777 5.81437 11.2276 5.9932 11.2086 5.85797C11.175 5.73256 11.2709 5.68083 11.362 5.55912C11.3637 5.50165 11.3647 5.45499 11.3281 5.45398L11.3281 5.45397Z" fill="white"/>
<path fill-rule="evenodd" clip-rule="evenodd" d="M12.8216 5.4699C12.7932 5.47363 12.758 5.51024 12.7095 5.59837C12.6746 5.69056 12.5246 5.8302 12.633 6.11798C12.7217 6.30068 12.758 6.59726 12.718 6.92774C12.6567 7.02163 12.6425 7.05417 12.5619 7.14805C12.4488 7.26974 12.3262 7.23856 12.232 7.19314C12.1443 7.13381 12.0752 7.10365 12.0349 6.91554C12.042 6.6159 12.0596 6.1251 12.0048 6.02105C11.9238 5.8597 11.7907 5.91767 11.7338 5.96648C11.4602 6.21663 11.3251 6.63862 11.2424 6.97452C11.1666 7.21924 11.0856 7.14839 11.0291 7.04976C10.8909 6.92029 10.8811 5.90818 10.7144 6.0746C10.4472 6.83791 10.8679 7.6741 11.1591 7.59276C11.3694 7.67987 11.5029 7.27991 11.5889 6.84198C11.6478 6.71894 11.6928 6.70505 11.723 6.76809C11.7152 7.35041 11.7646 7.48022 11.9147 7.65715C12.2489 7.91476 12.5253 7.68969 12.5469 7.668C12.5686 7.64631 12.807 7.40803 12.807 7.40803C12.865 7.34702 12.9415 7.34329 13.0231 7.39718C13.1027 7.46937 13.0925 7.59377 13.2626 7.68021C13.4058 7.73749 13.7116 7.6941 13.7827 7.57073C13.8782 7.40735 13.9013 7.35108 13.9456 7.28906C14.0137 7.19857 14.1306 7.23856 14.1306 7.26703C14.1197 7.31753 14.0513 7.36735 14.0977 7.45853C14.1786 7.51921 14.1976 7.48022 14.2454 7.46666C14.415 7.38565 14.5424 7.0179 14.5424 7.0179C14.5498 6.88063 14.4719 6.89114 14.4218 6.91927C14.3568 6.95893 14.3527 6.97249 14.2877 7.01214C14.2047 7.02434 14.0442 7.07925 13.9646 6.95621C13.8833 6.80843 13.883 6.60201 13.821 6.45286C13.821 6.44202 13.7126 6.21832 13.8129 6.20408C13.8633 6.21357 13.9724 6.24171 13.9893 6.15086C14.0425 6.0624 13.8749 5.81124 13.7607 5.68447C13.6619 5.57601 13.525 5.56279 13.3926 5.67362C13.2998 5.75903 13.3137 5.85428 13.2954 5.94444C13.2717 6.04815 13.2765 6.17661 13.3818 6.3139C13.4742 6.49625 13.6425 6.73047 13.587 7.0606C13.587 7.0606 13.4891 7.21788 13.3174 7.19755C13.2456 7.18195 13.1291 7.1511 13.0668 6.69285C13.0197 6.34611 13.0787 5.86038 12.9314 5.63296C12.8982 5.54687 12.8694 5.46348 12.8216 5.46992V5.4699Z" fill="white"/>
<path fill-rule="evenodd" clip-rule="evenodd" d="M5.92088 5.60035C5.84157 5.59798 5.75378 5.64713 5.78801 5.74271C5.76801 5.79457 5.94358 5.97048 5.97443 6.06674C6.00189 6.13554 5.94698 6.35687 6.0046 6.3772C6.05747 6.40025 6.13035 6.224 6.15814 6.06131C6.17339 5.97217 6.16187 5.66713 5.9541 5.60442C5.94326 5.60205 5.93241 5.60069 5.92089 5.60035H5.92088ZM19.268 5.58679C19.2456 5.5834 19.2215 5.59425 19.1941 5.63458C19.1419 5.68034 19.0856 5.76338 19.0873 5.8698C19.1002 6.05757 19.1334 6.24976 19.1463 6.43753C19.1507 6.46261 19.1554 6.48769 19.1598 6.51277C19.1395 6.48701 19.1219 6.46701 19.1121 6.45684C18.7457 6.07248 19.2805 6.39414 19.0422 6.09722C18.8409 5.87623 18.7819 5.80607 18.6094 5.67321C18.523 5.61729 18.4708 5.51086 18.4423 5.69219C18.4311 5.85184 18.4193 6.03656 18.4301 6.17077C18.4294 6.24534 18.507 6.38633 18.5738 6.46904C18.8182 6.769 19.068 7.08795 19.3188 7.42112C19.3717 8.10036 19.3856 8.72265 19.4395 9.4029C19.432 9.69371 19.3422 10.0801 19.2575 10.1167C19.2575 10.1167 19.1277 10.1913 19.0412 10.1086C18.9782 10.0832 18.7264 9.68863 18.7264 9.68863C18.5972 9.57068 18.5115 9.60423 18.4196 9.68863C18.1664 9.93267 18.0519 10.3899 17.88 10.7048C17.8356 10.7749 17.7109 10.8349 17.5719 10.6994C17.2191 10.2181 17.4255 9.53306 17.3814 9.70931C17.0672 10.0628 17.2065 10.6489 17.2774 10.7746C17.3811 10.9817 17.4648 11.1139 17.6665 11.2162C17.8502 11.3511 17.9929 11.2671 18.0719 11.1725C18.2566 10.9814 18.259 10.4923 18.3457 10.3957C18.4064 10.2181 18.5589 10.2486 18.6335 10.3272C18.7057 10.4306 18.7907 10.498 18.8965 10.5543C19.0687 10.7061 19.2744 10.7336 19.4771 10.5953C19.6157 10.5177 19.7055 10.417 19.7866 10.2177C19.8737 9.9852 19.8306 8.76706 19.8113 8.08952C19.9414 8.27255 20.0699 8.45964 20.1977 8.64877C20.2536 9.2436 20.279 9.82929 20.2607 10.3913C20.2475 10.5031 20.6512 10.0577 20.6485 9.84692C20.6468 9.66254 20.6488 9.49511 20.6485 9.33953C20.844 9.65169 21.0338 9.96894 21.2128 10.2903C21.3236 10.2316 21.2857 9.60424 21.2155 9.51747C21.0281 9.20328 20.7878 8.86366 20.602 8.60098C20.5654 8.2695 20.5153 7.87836 20.4926 7.75838C20.457 7.57162 20.4217 7.29098 20.3678 7.06897C20.3533 6.98254 20.3089 6.70563 20.3228 6.67919C20.3448 6.61716 20.4271 6.68122 20.4678 6.60937C20.5288 6.54293 20.2567 5.8393 20.1187 5.6383C20.0692 5.54814 19.9794 5.57932 19.8679 5.72575C19.7649 5.82201 19.8025 6.04198 19.8418 6.2511C19.9442 6.78392 20.0353 7.32656 20.1075 7.86784C19.974 7.66922 19.8106 7.42925 19.65 7.19775C19.6456 7.17538 19.6293 7.0937 19.6293 7.09234C19.6293 7.08285 19.6073 6.65647 19.5883 6.55478C19.5849 6.51343 19.5751 6.50156 19.6184 6.50699C19.6642 6.54562 19.6706 6.54766 19.6991 6.5602C19.7456 6.56867 19.7859 6.49037 19.7581 6.41784C19.6147 6.15381 19.4714 5.88876 19.328 5.62472C19.3097 5.60811 19.2904 5.59015 19.268 5.58676L19.268 5.58679ZM14.0964 5.53358C14.0507 5.53765 14.0141 5.56442 14.0005 5.63221C13.9822 5.79117 13.9917 5.8776 14.0185 6.00979C14.0388 6.09792 14.1676 6.24569 14.2307 6.33111C14.533 6.73682 14.8238 7.14457 15.1044 7.5662C15.1485 7.87938 15.181 8.18578 15.2017 8.49083C15.2471 9.1599 15.261 9.99233 15.2197 10.697C15.3451 10.7021 15.5464 10.4946 15.6169 10.191C15.6627 9.77101 15.6006 8.91382 15.5962 8.66606C15.5932 8.56302 15.5871 8.44033 15.58 8.31187C15.9067 8.84502 16.2236 9.40969 16.5348 10.0296C16.6483 9.97572 16.6229 9.33818 16.5568 9.2487C16.3077 8.71352 15.964 8.18545 15.8542 7.98209C15.8145 7.90888 15.6796 7.70382 15.52 7.46791C15.4905 7.13101 15.4586 6.84562 15.438 6.75953C15.3864 6.4033 15.5847 6.79986 15.5573 6.59277C15.4929 6.23722 15.2963 5.99522 15.0641 5.6695C14.9892 5.56341 14.9906 5.54206 14.875 5.6956C14.8058 5.85219 14.8068 5.98234 14.8272 6.1047C14.7967 6.06064 14.7591 6.0081 14.7052 5.94336C14.5045 5.77152 14.4923 5.76203 14.3259 5.62205C14.2727 5.58375 14.1727 5.52647 14.0964 5.53359V5.53358ZM12.3512 5.50206C12.3065 5.50579 12.2573 5.55764 12.217 5.65797C12.1824 5.73423 12.1404 6.13248 12.1472 6.13248C12.1197 6.25111 12.2712 6.30127 12.3404 6.14875C12.4438 5.86946 12.4444 5.75016 12.4512 5.63187C12.4353 5.54171 12.396 5.49799 12.3512 5.50206H12.3512Z" fill="white"/>
<path fill-rule="evenodd" clip-rule="evenodd" d="M16.5714 5.65426C16.5534 5.65595 16.5314 5.68375 16.4975 5.7556C16.4162 5.88847 16.3609 6.11996 16.3674 6.33688C16.5436 7.55435 16.5975 8.6193 16.7124 9.83677C16.7219 9.95438 16.7046 10.1255 16.626 10.1937C16.3362 10.496 15.9183 10.8688 15.4631 11.0403C15.4143 11.0952 15.5848 11.3291 15.8054 11.3288C16.1745 11.2861 16.4989 11.079 16.7999 10.5343C16.8802 10.4072 17.0219 10.135 17.0259 9.92421C17.0541 8.6881 16.9636 7.72687 16.7782 6.83309C16.7663 6.74598 16.7744 6.64294 16.789 6.61685C16.8131 6.58838 16.8941 6.61753 16.9368 6.54703C16.9998 6.48263 16.7683 5.94948 16.6368 5.74408C16.6111 5.6929 16.5948 5.65189 16.5714 5.65426H16.5714ZM10.2492 5.65154C10.1868 5.65459 10.1319 5.67256 10.0848 5.69662C9.96514 5.81084 9.93735 5.99421 10.0312 6.10843C10.1227 6.15148 10.2143 6.24367 10.1533 6.29451C9.8943 6.57074 9.22014 7.03238 9.18625 7.11644C9.18625 7.11644 9.1849 7.11847 9.1849 7.11915V7.12186V7.12321C9.18524 7.12389 9.18592 7.12524 9.18592 7.12524L9.18761 7.12728H9.18896L9.19032 7.12863H9.19167L9.19303 7.12998C9.22726 7.15303 9.6489 7.15235 9.69568 7.13133L9.69669 7.13032L9.69839 7.12998V7.12863C9.84345 7.07541 10.5312 6.29009 10.5312 6.29009C10.4956 6.25959 10.4627 6.23722 10.4271 6.20671C10.3888 6.17383 10.3929 6.14129 10.4271 6.10808C10.5976 6.00911 10.5434 5.79117 10.4546 5.6922C10.381 5.65932 10.3115 5.64814 10.2492 5.65153L10.2492 5.65154ZM7.8305 5.64883C7.79796 5.65459 7.76644 5.68137 7.75525 5.72543C7.74814 5.75424 7.76779 5.80237 7.74169 5.81695C7.72677 5.8322 7.6695 5.82203 7.67187 5.74171C7.67187 5.71629 7.65323 5.68951 7.64171 5.67324C7.63019 5.66578 7.62273 5.66375 7.60205 5.66375C7.57697 5.66477 7.57765 5.67155 7.56375 5.69256C7.55765 5.71391 7.54985 5.73493 7.54985 5.75967C7.5468 5.78814 7.53527 5.79797 7.51426 5.80204C7.49087 5.80204 7.4963 5.80475 7.47732 5.79255C7.46614 5.78035 7.45257 5.77527 7.45257 5.75425C7.45257 5.73256 7.44681 5.69765 7.44037 5.68308C7.43054 5.66986 7.41461 5.66308 7.39665 5.65833C7.29802 5.65867 7.2909 5.77153 7.29666 5.81424C7.2892 5.82237 7.28548 6.02269 7.42003 6.07827C7.60034 6.16402 7.93827 6.12775 7.92403 5.83762C7.92403 5.81186 7.91827 5.72577 7.9159 5.70238C7.89658 5.65933 7.86268 5.64307 7.83049 5.64883H7.8305ZM17.2551 5.62274C17.2398 5.62545 17.2174 5.6485 17.1757 5.70341C17.0727 6.03998 17.0364 6.31485 17.0758 6.52398C17.3405 7.90414 17.612 9.1616 17.5689 10.4753C17.6947 10.476 17.8397 10.1886 17.9017 9.90354C17.9356 9.51139 17.879 9.27244 17.8689 9.04196C17.8587 8.81148 17.6075 6.94054 17.5567 6.76599C17.4954 6.4362 17.8011 6.72261 17.7675 6.53076C17.6618 6.28876 17.3981 5.9366 17.3157 5.72646C17.2842 5.67053 17.2805 5.61834 17.255 5.62274H17.2551ZM21.1254 5.60206C21.1074 5.60375 21.0854 5.63324 21.0515 5.70476C20.9702 5.83763 20.9424 6.0759 20.9749 6.28604C21.1705 7.6079 21.3159 8.88774 21.346 10.0594C21.3291 10.1706 21.3244 10.2299 21.2722 10.3699C21.1566 10.5177 21.0291 10.7031 20.9092 10.7926C20.7892 10.8821 20.534 10.9671 20.4502 11.0332C20.1855 11.1861 20.1842 11.362 20.398 11.3684C20.7671 11.3257 21.2037 11.2956 21.5047 10.8417C21.585 10.7146 21.6799 10.3703 21.684 10.1591C21.7121 8.92299 21.668 7.71399 21.4826 6.82055C21.4708 6.73344 21.4321 6.53347 21.447 6.50737C21.4711 6.44602 21.5918 6.51347 21.6348 6.44297C21.6979 6.37857 21.3227 5.89863 21.1911 5.69357C21.165 5.6424 21.1488 5.60003 21.1254 5.60206H21.1254Z" fill="white"/>
<path fill-rule="evenodd" clip-rule="evenodd" d="M6.77958 5.69227C6.72874 5.69837 6.68061 5.73977 6.65756 5.79507C6.64909 5.99049 6.64773 6.18592 6.66976 6.36609C6.75856 6.68198 6.78669 6.95984 6.83007 7.28352C6.84193 7.71679 6.5796 7.47081 6.5918 7.25604C6.65247 6.97715 6.63586 6.53777 6.58231 6.42648C6.5396 6.3152 6.49012 6.28771 6.3864 6.30603C6.30403 6.30094 6.09118 6.53267 6.03153 6.91675C6.03153 6.91675 5.98205 7.11388 5.96035 7.28928C5.9312 7.48742 5.80004 7.62789 5.70818 7.2618C5.62921 6.9958 5.5804 6.34029 5.44787 6.49365C5.40991 7.00531 5.36483 7.90577 5.80003 7.9984C6.32606 8.04895 6.03559 7.10912 6.22607 6.9388C6.262 6.85465 6.32877 6.85296 6.33419 6.95949V7.75784C6.32945 8.0174 6.50027 8.09442 6.6328 8.14802C6.77075 8.1375 6.86226 8.14124 6.91615 8.27525C6.93784 8.73534 6.96021 9.19676 6.98191 9.65685C6.98191 9.65685 7.30085 9.74845 7.3161 8.88056C7.33135 8.37095 7.21442 7.94344 7.28322 7.84403C7.28559 7.74666 7.41066 7.74191 7.49675 7.7894C7.63436 7.88644 7.69537 8.00588 7.9089 7.95769C8.23428 7.86812 8.43019 7.71034 8.43493 7.46064C8.41595 7.22347 8.3885 6.98598 8.2858 6.7488C8.30003 6.70572 8.22343 6.5934 8.23801 6.55032C8.29631 6.64192 8.38477 6.63413 8.40511 6.55032C8.34986 6.36812 8.26343 6.19338 8.12446 6.11772C8.00923 6.01628 7.84111 6.03766 7.77942 6.24903C7.75095 6.49264 7.86788 6.78138 8.04515 7.01718C8.08277 7.10947 8.13565 7.26249 8.11226 7.40057C8.0177 7.45452 7.92415 7.43213 7.84517 7.34866C7.84517 7.34866 7.58622 7.15492 7.58622 7.11184C7.65502 6.67211 7.60113 6.6219 7.56283 6.49977C7.53639 6.33147 7.4564 6.27787 7.39166 6.16285C7.32692 6.09432 7.23914 6.09432 7.19711 6.16285C7.08255 6.36099 7.13644 6.7868 7.21914 6.97749C7.27879 7.1529 7.37031 7.26215 7.32726 7.26215C7.29167 7.36122 7.21778 7.33815 7.16423 7.22381C7.08796 6.98733 7.07238 6.63515 7.07238 6.47635C7.04933 6.27956 7.02391 5.85885 6.89444 5.75197C6.8602 5.70379 6.8192 5.6875 6.77954 5.69226L6.77958 5.69227Z" fill="white"/>
<path fill-rule="evenodd" clip-rule="evenodd" d="M16.1962 6.95782C16.1637 6.96358 16.1322 6.99171 16.121 7.03577C16.1139 7.06458 16.1349 7.11135 16.1088 7.12593C16.0939 7.14118 16.0352 7.13237 16.0376 7.05204C16.0376 7.02663 16.019 6.99849 16.0074 6.98223C15.9959 6.97477 15.9885 6.97274 15.9678 6.97274C15.9427 6.97376 15.9434 6.98054 15.9295 7.00155C15.9237 7.0229 15.9159 7.04425 15.9159 7.06866C15.9129 7.09713 15.9027 7.10696 15.8817 7.11103C15.8583 7.11103 15.8624 7.11374 15.8434 7.10154C15.8322 7.08934 15.8186 7.08425 15.8186 7.06324C15.8186 7.04155 15.8129 7.00663 15.8064 6.99206C15.7966 6.97884 15.7807 6.97342 15.7627 6.96867C15.6641 6.96902 15.6583 7.08052 15.6641 7.12323C15.6566 7.13136 15.6516 7.33303 15.7861 7.38862C15.9664 7.47437 16.3057 7.43675 16.2915 7.14662C16.2915 7.12086 16.2844 7.03477 16.282 7.01138C16.2627 6.96833 16.2288 6.95241 16.1962 6.95783L16.1962 6.95782ZM14.8703 6.30672C14.8781 6.34096 14.8855 6.37553 14.891 6.41078C14.9083 6.4867 14.9232 6.56195 14.9388 6.63651C14.8723 6.545 14.8171 6.4711 14.7937 6.44501C14.6432 6.26639 14.7971 6.32773 14.8703 6.30672ZM20.6255 6.1647C20.5414 6.16165 20.4496 6.22571 20.4858 6.35078C20.4648 6.41891 20.6655 6.65074 20.698 6.77751C20.7272 6.86767 20.6533 7.15814 20.7143 7.18492C20.7705 7.21509 20.8495 6.98427 20.8787 6.7704C20.8949 6.65346 20.8082 6.24301 20.6607 6.17013C20.6499 6.16708 20.6377 6.16505 20.6255 6.16471V6.1647ZM10.2163 5.89524C10.2583 5.89083 10.3092 5.92947 10.3343 5.98404C10.3607 6.04234 10.3475 6.09793 10.3041 6.10843C10.2607 6.11894 10.2048 6.08064 10.178 6.02234C10.1516 5.96404 10.1648 5.9071 10.2082 5.89659C10.2109 5.89591 10.2136 5.89558 10.2163 5.89524ZM15.8278 5.69832C15.7353 5.69561 15.6332 5.75357 15.6729 5.86915C15.6499 5.93219 15.8715 6.14607 15.9071 6.26299C15.9715 6.44297 15.858 6.61447 15.9251 6.63921C15.9868 6.66701 16.0722 6.45348 16.1044 6.25621C16.1416 6.09657 16.0274 5.76984 15.8661 5.70238C15.8536 5.69933 15.841 5.69865 15.8278 5.69831V5.69832ZM8.62499 5.69426C8.59889 5.69765 8.57008 5.71256 8.53585 5.72036C8.424 5.75595 8.31927 5.85255 8.35248 6.04032C8.48466 6.84259 8.57076 7.45505 8.70294 8.25732C8.72328 8.35121 8.64431 8.47526 8.54262 8.46238C8.36976 8.34544 8.32672 8.10887 8.03184 8.11903C7.81831 8.12175 7.57461 8.35358 7.54411 8.57727C7.50852 8.75487 7.49598 8.94739 7.54411 9.10263C7.69426 9.28295 7.8739 9.26363 8.03184 9.22295C8.16166 9.16973 8.26808 9.04196 8.31384 9.07246L8.31519 9.07212V9.07381C8.34332 9.1233 8.31248 9.54053 7.70442 9.86286C7.33057 10.0303 7.03298 10.0706 6.873 9.76559C6.77369 9.57511 6.88012 8.84978 6.63608 9.01755C5.91414 10.8763 8.32773 11.1356 8.59752 9.09415C8.61514 9.03653 8.66802 8.97891 8.70564 8.99281C8.72225 8.99992 8.73716 9.0223 8.74259 9.06399C8.68666 10.9126 6.87537 11.0393 6.56762 10.4577C6.49135 10.3208 6.46831 10.0154 6.46085 9.8327C6.44695 9.72221 6.41916 9.65815 6.38696 9.63307C6.31341 9.57816 6.21478 9.72153 6.19376 9.97099C6.16326 10.1716 6.17173 10.2265 6.17173 10.4197C6.26833 11.8799 8.59921 11.2525 8.97815 10.0462C9.16558 9.42259 8.97442 8.95248 9.03713 8.89452C9.03781 8.89418 9.03916 8.89351 9.03984 8.89317C9.03984 8.89317 9.04187 8.89215 9.04255 8.89181C9.04255 8.89181 9.04458 8.8908 9.04526 8.89046C9.0473 8.88978 9.05102 8.88911 9.0534 8.88911C9.28489 9.13789 9.6096 8.92062 9.68078 8.83453C9.71128 8.79149 9.78755 8.76369 9.8411 8.81962C10.0218 8.9491 10.338 8.88809 10.4041 8.65965C10.4424 8.43628 10.4746 8.20614 10.482 7.96753C10.3644 8.00413 10.2695 8.03125 10.2312 8.07158C10.2221 8.08141 10.2153 8.0926 10.2133 8.10446C10.2031 8.17055 10.1933 8.23665 10.1831 8.30274C10.1821 8.30816 10.1804 8.31325 10.1777 8.31765C10.1726 8.32579 10.1645 8.33324 10.1557 8.33833C10.114 8.36104 10.0418 8.34816 10.0377 8.28783C9.98177 8.03396 9.75163 8.00075 9.61165 8.39459C9.51743 8.47085 9.34592 8.48543 9.32829 8.37121C9.35134 8.10718 9.24457 8.07158 9.03104 8.19598C8.96224 7.673 8.89445 7.1734 8.82564 6.65042C8.91478 6.64771 8.99612 6.71245 9.07781 6.61076C8.98969 6.33724 8.80327 5.7807 8.69854 5.7285C8.69786 5.72816 8.69651 5.72749 8.69583 5.72715C8.69109 5.72139 8.68532 5.7163 8.68092 5.71224C8.67889 5.71054 8.67584 5.70817 8.67414 5.70682C8.67211 5.70547 8.66906 5.70377 8.66736 5.70275C8.66329 5.70038 8.65787 5.69869 8.6538 5.69733C8.64398 5.69428 8.63482 5.69293 8.62499 5.69428V5.69426Z" fill="white"/>
<path fill-rule="evenodd" clip-rule="evenodd" d="M11.6165 7.6472C11.6141 7.64822 11.6117 7.64991 11.6097 7.65127C11.6087 7.65195 11.6066 7.6533 11.6056 7.65398C11.588 7.6672 11.5673 7.6977 11.5205 7.73058C11.4422 7.81972 11.428 7.88175 11.4328 8.06002C11.4372 8.07901 11.5816 8.47997 11.7039 8.76163C11.7863 9.05447 11.8625 9.39002 11.8066 9.70659C11.6134 10.1255 11.2253 10.5011 10.8505 10.7051C10.6596 10.7661 10.4946 10.7454 10.4505 10.7037C10.4505 10.7037 10.4495 10.7027 10.4492 10.7024C10.3397 10.6288 10.337 10.4977 10.3437 10.4753V10.474L10.3451 10.4726C10.6613 10.2526 11.0223 10.0747 11.3053 9.48085C11.3887 9.2541 11.4144 9.11785 11.3314 8.76704C11.2992 8.6362 11.2592 8.52876 11.1697 8.4359L11.1711 8.43454C11.225 8.40878 11.3646 8.51148 11.386 8.44674C11.3531 8.27931 11.2392 8.05425 11.1108 7.93935C10.9982 7.83733 10.8755 7.82547 10.7725 7.91867C10.6563 7.98307 10.6315 8.2149 10.6874 8.41793C10.7495 8.57079 10.9172 8.59757 11.0365 8.90498V8.90634C11.0389 8.92566 11.0776 9.1358 11.0172 9.22088C10.9684 9.37306 10.3414 9.86689 10.2966 9.89638C10.2966 9.89638 10.2929 9.89875 10.2926 9.8991L10.2912 9.90046L10.2899 9.90182L10.2885 9.90317H10.2871H10.2858L10.2844 9.90182V9.90046C10.2844 9.90046 10.2834 9.89808 10.2831 9.89774C10.281 9.88554 10.2844 9.85402 10.2831 9.80352C10.279 9.71099 10.3173 9.50152 10.3146 9.4656V9.46492C10.3143 9.46458 10.3136 9.46391 10.3136 9.46391L10.3133 9.46222H10.3119C10.1045 9.59576 10.036 10.0055 9.99837 10.1269C9.4737 10.4889 8.8775 10.7583 8.53416 11.1254C8.35554 11.4043 9.76586 10.8051 9.92991 10.7329C9.93126 10.7339 9.93262 10.7356 9.93398 10.737C9.96516 10.7712 9.96787 10.8905 10.0614 10.9983C10.2082 11.1966 10.5197 11.3189 10.823 11.243C11.3314 11.0593 11.6246 10.7133 11.9229 10.3292C11.9656 10.2672 12.0324 10.2184 12.0941 10.2662C12.2991 10.7244 12.8899 11.0505 13.6542 11.0841C13.8311 10.8695 13.7464 10.7638 13.6749 10.719C13.6528 10.7044 13.2949 10.5651 13.2393 10.4262C13.2044 10.297 13.2895 10.1825 13.46 10.0967C13.9504 10.0374 14.4327 9.97165 14.8995 9.82184C14.9042 9.66525 14.9964 9.43104 15.0584 9.32936C15.1015 9.25886 15.1289 9.25175 15.1391 9.24192C15.1391 9.24192 15.1401 9.2409 15.1404 9.24057L15.1418 9.23921C15.1418 9.23921 15.1428 9.2382 15.1432 9.23785V9.23514C15.1435 9.23209 15.1432 9.22667 15.1418 9.22158L15.0625 9.17514L13.4969 9.16836C13.4776 9.1609 13.4634 9.15345 13.4546 9.14633C13.4539 9.14565 13.4525 9.14429 13.4518 9.14362L13.4505 9.14226L13.4491 9.14091L13.4481 9.13853L13.4468 9.13684V9.13549L13.4454 9.13414V9.13278V9.13143V9.13008V9.12873V9.12737V9.12602V9.12467V9.12331L13.4468 9.12196C13.4468 9.12196 13.4478 9.11993 13.4481 9.11925C13.4559 9.10908 13.4742 9.09925 13.4973 9.09044C13.8711 9.0396 14.5351 8.9308 14.5792 8.29292C14.5724 7.96076 14.4368 7.74316 14.0287 7.68283C13.7288 7.70588 13.5149 7.99567 13.5495 8.31462C13.5352 8.40037 13.5786 8.56916 13.4905 8.58815C12.915 8.64068 12.2872 9.00064 12.2659 9.25823H12.2645L12.2632 9.25958C12.2629 9.25993 12.2612 9.2606 12.2605 9.26094H12.2581C12.2567 9.26127 12.2544 9.26195 12.2534 9.26229H12.2523C12.2513 9.26229 12.2496 9.26229 12.2496 9.26229C12.2496 9.26229 12.2479 9.26229 12.2476 9.26229H12.2452C12.2432 9.26195 12.2405 9.26128 12.2391 9.26094C12.2019 9.25043 12.1534 9.18874 12.1612 9.10231C12.1391 8.65695 11.9941 8.15294 11.7666 7.76486C11.6856 7.68385 11.6501 7.65098 11.627 7.64725C11.6263 7.64725 11.625 7.64725 11.6243 7.64725C11.6233 7.64725 11.6216 7.64725 11.6202 7.64725H11.6189H11.6175H11.6165L11.6165 7.6472ZM18.7003 7.05779C18.6118 7.05338 18.5176 7.11066 18.4935 7.23133C18.4939 7.3025 18.5257 7.34182 18.5196 7.40655C18.5105 7.4435 18.4722 7.46791 18.3813 7.42418C18.3956 7.41096 18.3224 7.30793 18.3224 7.30793C18.2515 7.26488 18.1566 7.3103 18.0949 7.35029C18.061 7.41198 18.036 7.51739 18.0743 7.62518C18.1759 7.81295 18.5254 8.13358 18.6918 8.13664C18.6949 7.96717 18.7115 7.74211 18.7206 7.60179C18.7247 7.54891 18.7369 7.49062 18.7877 7.4774C18.8386 7.46418 18.9264 7.52824 18.9274 7.47334C18.9182 7.36555 18.8965 7.20659 18.8355 7.13134C18.8043 7.08525 18.7532 7.06017 18.7003 7.0578V7.05779ZM10.1428 7.01813C10.1204 7.01576 10.0912 7.02389 10.0577 7.04423C9.89837 7.13032 9.83635 7.38588 9.93566 7.53535C10.0285 7.66687 10.175 7.61873 10.1946 7.61873C10.3509 7.63839 10.4437 7.32589 10.4437 7.32589C10.4437 7.32589 10.4485 7.23811 10.2631 7.40385C10.1851 7.41843 10.1743 7.39029 10.155 7.34657C10.1387 7.26522 10.1421 7.18286 10.1797 7.10185C10.197 7.05271 10.1797 7.02186 10.1427 7.01813H10.1428Z" fill="white"/>
<path fill-rule="evenodd" clip-rule="evenodd" d="M17.3137 14.3308L17.3126 14.3318C17.0578 14.3979 17.0656 14.6646 17.2289 14.7815C14.5398 14.7815 10.4128 14.7354 9.52788 14.7354C9.03269 14.7354 7.46611 14.6758 7.43629 14.6758C7.77218 15.1713 8.2589 15.2723 8.89576 15.2822C10.0902 15.2822 15.6244 15.2672 17.1994 15.2672C17.0876 15.4676 17.2096 15.7902 17.2974 15.8495C17.2994 15.8509 17.3021 15.8526 17.3042 15.8536C17.3075 15.8553 17.3116 15.857 17.315 15.8577C17.316 15.858 17.3181 15.8577 17.3191 15.8577C17.4235 15.8824 17.4692 15.8065 17.5045 15.7506C17.6736 15.7655 18.6257 15.7794 18.7128 15.7492C18.7128 15.7492 18.7138 15.7479 18.7142 15.7479C18.7731 15.8353 18.8314 15.918 18.9436 15.9034C19.1398 15.8611 19.2944 15.8394 19.2995 15.4377C19.2995 15.4377 19.2795 14.7531 18.8335 14.7961C18.728 14.8121 18.4321 14.8422 18.4321 14.8422C18.0898 14.8012 17.8383 14.7968 17.4533 14.7826C17.4889 14.7371 17.5516 14.5528 17.4746 14.486C17.4546 14.469 17.4248 14.4599 17.3834 14.4629H17.3824C17.3814 14.4629 17.3801 14.4629 17.3801 14.4629L17.378 14.4616C17.377 14.4612 17.375 14.4609 17.374 14.4602C17.3719 14.4589 17.3692 14.4558 17.3672 14.4535C17.3672 14.4535 17.3648 14.4514 17.3645 14.4507C17.3451 14.4223 17.3343 14.3521 17.3214 14.3342L17.3201 14.3331L17.3187 14.3318C17.318 14.3314 17.3163 14.3304 17.316 14.3304H17.3146L17.3136 14.3308L17.3137 14.3308ZM20.0208 10.2628C19.9886 10.2638 19.9547 10.2682 19.9055 10.2723C19.8523 10.2835 19.834 10.3069 19.8242 10.3713C19.8279 10.4689 19.8879 10.4641 19.9489 10.5024C19.9845 10.5475 20.0072 10.5882 19.9462 10.6621C19.8882 10.7153 19.8469 10.7444 19.7889 10.7973C19.7615 10.8441 19.7445 10.9156 19.8282 10.938C19.9828 10.9813 20.3407 10.7492 20.3407 10.7444C20.3987 10.7011 20.3794 10.6187 20.3746 10.6187C20.3407 10.5801 20.2645 10.6034 20.2133 10.597C20.1889 10.597 20.1089 10.5851 20.1469 10.5143C20.1787 10.4702 20.1902 10.4441 20.2119 10.3899C20.236 10.3367 20.215 10.3011 20.1279 10.272C20.0835 10.2642 20.053 10.2618 20.0208 10.2628L20.0208 10.2628ZM14.4608 10.0557C14.4418 10.0547 14.4215 10.0577 14.4011 10.0679C14.3971 10.0679 14.2188 10.1886 14.1612 10.2723C14.1263 10.2991 14.13 10.3221 14.1408 10.3685C14.1683 10.4313 14.2164 10.4116 14.271 10.3821C14.3435 10.3723 14.3788 10.4197 14.3727 10.5065C14.3391 10.615 14.3876 10.6553 14.3876 10.6621C14.3876 10.6688 14.4574 10.7288 14.5394 10.681C14.7126 10.615 14.8204 10.5509 15.0627 10.4984C15.1265 10.497 15.1227 10.3272 15.0221 10.3211C14.8909 10.3275 14.7696 10.3343 14.6384 10.4377C14.5577 10.4563 14.5438 10.4072 14.5259 10.3631C14.5052 10.254 14.572 10.177 14.5584 10.095C14.5618 10.0984 14.5174 10.0587 14.4608 10.0557V10.0557ZM5.77684 9.52324C5.76599 9.52358 5.74464 9.55579 5.71583 9.59239C5.46095 9.99775 5.43824 10.6031 5.5789 10.7838C5.65347 10.8692 5.77684 10.9065 5.86768 10.88C6.02766 10.8105 6.09816 10.4868 6.0602 10.3682C6.00665 10.2848 5.96428 10.2713 5.91106 10.3425C5.79853 10.5709 5.75142 10.4147 5.74159 10.2869C5.7243 10.0449 5.74769 9.82185 5.77413 9.64526C5.78803 9.55476 5.78769 9.52291 5.77684 9.52324ZM12.5421 9.22938C12.5472 9.22904 12.5516 9.22938 12.557 9.22938C12.558 9.22938 12.5587 9.22938 12.5597 9.22938C12.7322 9.27615 12.9868 9.28123 13.2077 9.30395C13.3877 9.31548 13.4765 9.45614 13.3081 9.51511C13.1417 9.57205 12.982 9.61646 12.9813 9.85642C13.003 9.97539 12.9986 10.0378 12.98 10.0662C12.9786 10.0683 12.9763 10.0713 12.9746 10.073L12.9732 10.0744L12.9718 10.0757L12.9705 10.0771L12.9691 10.0784C12.9691 10.0784 12.9668 10.0794 12.9664 10.0798C12.9641 10.0811 12.961 10.0828 12.9583 10.0838C12.9559 10.0845 12.9525 10.0849 12.9502 10.0852C12.9105 10.091 12.8532 10.0533 12.8105 10.031C12.7082 9.95742 12.4204 9.77948 12.3794 9.39749C12.3736 9.31106 12.4384 9.23683 12.5421 9.22938H12.5421ZM9.77225 8.85181C9.7048 8.85655 9.64481 8.89248 9.67193 8.98704C9.66786 9.05585 9.86208 9.13923 9.87394 9.29853C9.90174 9.36428 9.83225 9.57409 9.89021 9.59375C9.94342 9.61544 10.017 9.44868 10.0448 9.29311C10.06 9.20804 9.978 8.91045 9.83869 8.85724C9.81734 8.85249 9.79497 8.85013 9.77226 8.85182L9.77225 8.85181ZM18.9992 8.73453C18.9223 8.74402 18.8491 8.81656 18.883 8.93281C18.8619 9.00094 18.9873 9.23956 19.0199 9.36632C19.049 9.45648 18.9823 9.71136 19.0433 9.73847C19.0995 9.76864 19.247 9.58697 19.2419 9.35954C19.2582 9.2426 19.2002 8.81181 19.0528 8.7386C19.0358 8.73386 19.0172 8.7325 18.9992 8.73453H18.9992ZM7.99146 8.56269C8.03383 8.56304 8.07857 8.58405 8.10229 8.64336C8.12365 8.69759 8.10331 8.75454 8.07755 8.78301V8.78436C8.07755 8.78436 8.07653 8.78639 8.07619 8.78707C8.05788 8.81046 7.99416 8.80063 7.94875 8.80063C7.89384 8.79825 7.86673 8.7891 7.83385 8.7447C7.81792 8.69522 7.86605 8.64641 7.8874 8.60947C7.88774 8.60912 7.88841 8.60845 7.88841 8.60845C7.89079 8.60472 7.89452 8.60065 7.89824 8.59727C7.91451 8.58236 7.94298 8.56812 7.97348 8.56439C7.97958 8.56338 7.98534 8.5627 7.99144 8.5627L7.99146 8.56269ZM6.58894 8.36848C6.15611 8.37628 5.5223 8.93518 5.50569 9.24531C5.96258 9.02635 6.41099 8.81553 6.87534 8.58878C6.8001 8.47693 6.8706 8.37627 6.58894 8.36847V8.36848ZM13.9043 8.21799C13.9385 8.21426 13.9832 8.22578 14.0263 8.25087C14.0886 8.2868 14.1269 8.34137 14.1222 8.38068C14.1222 8.38068 14.1225 8.38374 14.1222 8.38475C14.1219 8.38577 14.1198 8.38779 14.1198 8.38779C14.1191 8.38983 14.1185 8.39186 14.1181 8.39287L14.1168 8.39558C14.1168 8.39558 14.1158 8.39762 14.1154 8.39829C14.1134 8.40168 14.11 8.40507 14.1073 8.40778C14.0775 8.43557 14.008 8.43184 13.9429 8.39422C13.8812 8.35863 13.8429 8.30372 13.847 8.26441L13.8483 8.26034C13.8494 8.25559 13.8514 8.25085 13.8538 8.24678C13.8548 8.24509 13.8555 8.24272 13.8565 8.24136L13.8578 8.24C13.8595 8.23797 13.8626 8.23492 13.8646 8.23322C13.8744 8.22509 13.8887 8.21967 13.9043 8.21797V8.21799ZM19.1619 8.12987C19.1575 8.12919 19.1521 8.12953 19.147 8.13122C19.147 8.13122 18.3115 8.7247 18.2908 8.74538C18.2081 8.81892 18.2495 9.07754 18.2908 9.04771C18.3508 9.07077 19.1917 8.50169 19.1758 8.43491C19.2124 8.43694 19.23 8.14206 19.1619 8.12986L19.1619 8.12987ZM13.1149 7.88244C13.0823 7.8882 13.0508 7.91498 13.0396 7.95904C13.0325 7.98785 13.0535 8.03598 13.0274 8.05055C13.0125 8.0658 12.9539 8.05699 12.9562 7.97666C12.9562 7.95124 12.9376 7.92311 12.9261 7.90684C12.9146 7.89938 12.9085 7.89735 12.8878 7.89735C12.8627 7.89836 12.8617 7.90514 12.8481 7.92615C12.8424 7.9475 12.8346 7.96886 12.8346 7.99326C12.8315 8.02173 12.8213 8.03156 12.8003 8.03563C12.7769 8.03563 12.7824 8.03834 12.7634 8.02614C12.7522 8.01394 12.7373 8.00886 12.7373 7.98784C12.7373 7.96615 12.7329 7.93124 12.7264 7.91667C12.7166 7.90345 12.6993 7.89803 12.6814 7.89328C12.5827 7.89362 12.577 8.00513 12.5827 8.04784C12.5753 8.05597 12.5702 8.25764 12.7047 8.31324C12.8851 8.39899 13.3145 8.34848 13.2101 8.07123C13.2101 8.04547 13.203 7.95938 13.2006 7.93599C13.1813 7.89294 13.1474 7.87668 13.1149 7.88244H13.1149Z" fill="white"/>
<path fill-rule="evenodd" clip-rule="evenodd" d="M17.1012 15.7215C17.1012 15.7215 17.1022 15.7219 17.1026 15.7215C17.4991 15.7414 17.8715 15.7254 18.268 15.7452C18.3307 15.7999 18.2995 15.9251 18.2585 15.9481C18.2568 15.9491 18.2534 15.9505 18.2517 15.9509C18.2504 15.9512 18.2476 15.9509 18.2463 15.9509C18.2449 15.9509 18.2422 15.9512 18.2409 15.9509C18.112 15.9474 18.0374 15.9446 17.9085 15.9411C17.9081 15.9345 17.9074 15.9276 17.9057 15.9217C17.8752 15.8287 17.6537 15.835 17.6018 15.9077C17.6012 15.9088 17.5998 15.9109 17.5991 15.9119C17.5984 15.9133 17.5971 15.9161 17.5964 15.9175C17.5957 15.9192 17.5944 15.9223 17.5937 15.9244C17.593 15.9272 17.5927 15.9314 17.5927 15.9314C17.592 15.9376 17.5906 15.9418 17.591 15.9453C17.417 15.9669 17.2603 15.9394 17.0863 15.9328C17.0354 15.8677 17.0411 15.7501 17.1012 15.7215Z" fill="white"/>
</svg>
