<svg width="32" height="34" viewBox="0 0 32 34" fill="none" xmlns="http://www.w3.org/2000/svg">
<path fill-rule="evenodd" clip-rule="evenodd" d="M29.593 10.2852L28.6132 8.58503C27.7842 7.14638 25.9472 6.65009 24.5066 7.47556V7.47556C23.8208 7.87953 23.0025 7.99414 22.2321 7.79412C21.4618 7.5941 20.8026 7.09588 20.4 6.40933C20.141 5.97294 20.0018 5.4759 19.9965 4.96846V4.96846C20.0199 4.15492 19.713 3.36656 19.1456 2.78297C18.5783 2.19939 17.799 1.87027 16.985 1.87061H15.011C14.2136 1.8706 13.4491 2.18833 12.8866 2.75349C12.3242 3.31865 12.0101 4.08466 12.0139 4.882V4.882C11.9903 6.52825 10.6489 7.85035 9.00244 7.85018C8.49499 7.84491 7.99793 7.70574 7.56153 7.44674V7.44674C6.12088 6.62127 4.28388 7.11756 3.45495 8.55621L2.40309 10.2852C1.57517 11.7221 2.06472 13.5579 3.49818 14.3917V14.3917C4.42995 14.9296 5.00394 15.9238 5.00394 16.9997C5.00394 18.0755 4.42995 19.0697 3.49818 19.6076V19.6076C2.06655 20.4358 1.57645 22.2671 2.40309 23.6996V23.6996L3.39732 25.4143C3.78571 26.1151 4.43735 26.6322 5.20806 26.8512C5.97877 27.0703 6.80499 26.9731 7.5039 26.5814V26.5814C8.19097 26.1805 9.00972 26.0706 9.77816 26.2763C10.5466 26.4819 11.2011 26.986 11.5961 27.6764C11.8551 28.1128 11.9942 28.6099 11.9995 29.1173V29.1173C11.9995 30.7804 13.3478 32.1287 15.011 32.1287H16.985C18.6426 32.1287 19.9886 30.7892 19.9965 29.1317V29.1317C19.9927 28.3319 20.3087 27.5637 20.8743 26.9981C21.4399 26.4325 22.2081 26.1164 23.008 26.1203C23.5142 26.1338 24.0093 26.2724 24.4489 26.5237V26.5237C25.8858 27.3516 27.7217 26.8621 28.5555 25.4287V25.4287L29.593 23.6996C29.9945 23.0104 30.1047 22.1895 29.8992 21.4188C29.6937 20.648 29.1893 19.991 28.4979 19.5932V19.5932C27.8064 19.1954 27.3021 18.5384 27.0965 17.7676C26.891 16.9969 27.0012 16.176 27.4028 15.4867C27.6639 15.0308 28.0419 14.6528 28.4979 14.3917V14.3917C29.9227 13.5583 30.4111 11.7333 29.593 10.2997V10.2997L29.593 10.2852Z" stroke="#20926B" stroke-width="2.3" stroke-linecap="round" stroke-linejoin="round"/>
<path fill-rule="evenodd" clip-rule="evenodd" d="M11.8504 16.9996C11.8504 14.7079 13.7105 12.85 16.0051 12.85C18.2996 12.85 20.1597 14.7079 20.1597 16.9996C20.1597 19.2914 18.2996 21.1493 16.0051 21.1493C13.7105 21.1493 11.8504 19.2914 11.8504 16.9996Z" stroke="#20926B" stroke-width="2.3" stroke-linecap="round" stroke-linejoin="round"/>
</svg>
