<svg width="50" height="50" viewBox="0 0 50 50" fill="none" xmlns="http://www.w3.org/2000/svg">
<path d="M0.6 25C0.6 11.5243 11.5243 0.6 25 0.6C38.4757 0.6 49.4 11.5243 49.4 25C49.4 38.4757 38.4757 49.4 25 49.4C11.5243 49.4 0.6 38.4757 0.6 25Z" fill="white" stroke="#EAECEF" stroke-width="1.2"/>
<path fill-rule="evenodd" clip-rule="evenodd" d="M29.7892 23.101C29.7217 22.2982 29.1826 21.6178 28.4266 21.3757C28.0414 21.2533 27.829 20.842 27.9523 20.4577C28.0756 20.0734 28.4869 19.861 28.8712 19.9834C30.1933 20.4055 31.1302 21.589 31.2472 22.9786C31.2805 23.3809 30.9817 23.7337 30.5794 23.7679C30.5584 23.7697 30.5375 23.7706 30.5168 23.7706C30.141 23.7706 29.8217 23.4823 29.7892 23.101V23.101ZM19.9325 17.7064C18.569 18.1447 17.5007 19.1275 16.9238 20.4712C16.3541 21.7978 16.3082 23.3584 16.7933 24.8668C17.3369 26.4319 18.2405 27.8728 19.4069 29.0347C21.1511 30.7285 23.0815 32.2306 25.1452 33.4996L25.0031 33.4096L25.4702 33.1153C27.0992 32.0641 28.6454 30.8617 30.0647 29.5423L30.593 29.0401C31.7639 27.8755 32.6684 26.4373 33.2075 24.8821C33.6953 23.3692 33.6493 21.8041 33.0778 20.4748C32.5 19.1293 31.4309 18.1456 30.0656 17.7064C29.5607 17.5444 29.0359 17.4625 28.5067 17.4625C27.3934 17.4625 26.3324 17.8162 25.4378 18.4867C25.31 18.5821 25.1588 18.6325 24.9995 18.6325C24.8456 18.6325 24.6979 18.5848 24.5728 18.4957L24.3758 18.3544C23.5217 17.7703 22.5245 17.4616 21.4931 17.4616C20.963 17.4616 20.4383 17.5435 19.9325 17.7064ZM24.6314 34.8964L24.3866 34.7488C22.2284 33.4222 20.2079 31.8499 18.3818 30.076C17.0354 28.7368 16.0345 27.1402 15.4064 25.3294C14.8024 23.4538 14.8735 21.5017 15.607 19.8313C16.3549 18.1285 17.7311 16.8793 19.4843 16.315C20.135 16.1062 20.8109 16 21.4931 16C22.6262 16 23.7476 16.2961 24.734 16.8559L24.9976 17.0143L25.2658 16.855C26.2531 16.2961 27.3728 16.0009 28.5059 16.0009C29.0945 16.0009 29.6795 16.0801 30.2474 16.2358L30.5137 16.315C32.2678 16.8802 33.6458 18.1303 34.3946 19.8349C35.129 21.508 35.2 23.4646 34.5952 25.3456C33.9796 27.1204 32.9501 28.7584 31.619 30.0823C29.7956 31.8526 27.7787 33.4213 25.6232 34.747L25.3936 34.8901C25.2775 34.9621 25.1443 34.9999 25.0075 34.9999C24.8752 34.9999 24.7448 34.9639 24.6314 34.8964Z" fill="#200E32"/>
</svg>
