<svg width="698" height="590" viewBox="0 0 698 590" fill="none" xmlns="http://www.w3.org/2000/svg">
<path opacity="0.6" fill-rule="evenodd" clip-rule="evenodd" d="M539.257 210.521C539.265 224.503 537.884 238.451 535.135 252.16C534.718 254.272 534.263 256.358 533.782 258.444C526.983 287.584 514.027 314.931 495.785 338.649C494.268 340.635 492.7 342.594 491.106 344.529C452.502 391.264 394.096 421.042 328.737 421.042C272.495 421.115 218.577 398.611 179.075 358.577C177.355 356.858 175.686 355.1 174.042 353.317C151.037 328.457 134.386 298.402 125.509 265.715C124.927 263.591 124.383 261.446 123.877 259.279C117.227 231.089 116.41 201.838 121.475 173.321C121.854 171.22 122.259 169.148 122.689 167.075C129.948 132.54 145.806 100.395 168.792 73.6184C171.195 70.8113 173.673 68.0716 176.227 65.3993C253.248 -15.5358 380.077 -22.2128 465.171 50.1879C467.523 52.1859 469.825 54.23 472.075 56.3203C501.88 84.0051 523.023 119.734 532.947 159.184C533.579 161.663 534.148 164.166 534.691 166.695C537.732 181.106 539.262 195.794 539.257 210.521V210.521Z" fill="#38435B"/>
<path fill-rule="evenodd" clip-rule="evenodd" d="M472.076 56.321H470.799C455.726 56.321 439.402 60.8482 422.132 65.6407C402.761 71.0021 382.732 76.5535 361.932 76.5535C343.584 76.5535 324.807 71.3562 306.662 66.3361C288.91 61.4172 270.562 56.3337 253.075 56.3337C233.135 56.3337 213.535 61.7713 194.581 67.0189C185.755 69.472 177.157 71.8495 168.799 73.6198C171.202 70.8126 173.68 68.0728 176.234 65.4004C181.671 64.0345 187.235 62.4921 192.887 60.9239C212.258 55.5625 232.275 50.0111 253.075 50.0111C271.422 50.0111 290.199 55.2084 308.344 60.2412C326.097 65.1474 344.444 70.231 361.932 70.231C381.872 70.231 401.484 64.7934 420.438 59.5457C436.066 55.2084 450.949 51.086 465.174 50.1884C467.525 52.1865 469.826 54.2307 472.076 56.321L472.076 56.321Z" fill="white"/>
<path fill-rule="evenodd" clip-rule="evenodd" d="M534.699 166.696C532.814 165.963 530.969 165.204 529.11 164.445C516.503 159.285 503.467 153.947 470.818 153.947H470.805C455.733 153.947 439.409 158.476 422.139 163.269C402.767 168.644 382.738 174.197 361.938 174.197C343.59 174.197 324.813 168.998 306.668 163.965C288.915 159.045 270.568 153.96 253.081 153.96C233.14 153.96 213.541 159.399 194.587 164.66C176.884 169.567 160.155 174.197 144.223 174.197C136.674 174.197 129.096 173.906 121.488 173.324C121.867 171.223 122.272 169.15 122.702 167.076C129.884 167.607 137.079 167.873 144.223 167.873C159.295 167.873 175.62 163.357 192.892 158.564C212.264 153.189 232.28 147.636 253.081 147.636C271.428 147.636 290.205 152.835 308.35 157.868C326.103 162.788 344.45 167.873 361.938 167.873C381.878 167.873 401.49 162.434 420.444 157.173C438.147 152.266 454.876 147.624 470.807 147.624H470.82C504.708 147.624 518.339 153.201 531.514 158.589C531.996 158.792 532.477 158.981 532.956 159.183C533.586 161.662 534.155 164.167 534.699 166.696L534.699 166.696Z" fill="white"/>
<path fill-rule="evenodd" clip-rule="evenodd" d="M535.133 252.16C534.716 254.272 534.261 256.358 533.78 258.444C532.212 257.812 530.657 257.18 529.102 256.548C516.496 251.389 503.459 246.067 470.81 246.067H470.797C455.725 246.067 439.401 250.593 422.131 255.372C402.759 260.745 382.73 266.295 361.93 266.295C343.582 266.295 324.805 261.099 306.66 256.067C288.907 251.149 270.56 246.067 253.073 246.067C233.132 246.079 213.533 251.503 194.579 256.763C176.876 261.668 160.148 266.308 144.215 266.308C138.006 266.308 131.76 266.105 125.514 265.713C124.932 263.59 124.388 261.445 123.883 259.278C130.673 259.746 137.463 259.986 144.215 259.986C151.751 259.986 159.604 258.849 167.721 257.129C175.852 255.397 184.248 253.06 192.886 250.669C212.258 245.308 232.275 239.758 253.075 239.745C271.422 239.745 290.199 244.953 308.344 249.973C326.097 254.891 344.445 259.974 361.932 259.974C381.872 259.974 401.484 254.537 420.439 249.278C438.141 244.373 454.87 239.745 470.802 239.745H470.815C504.702 239.745 518.333 245.308 531.509 250.694C532.718 251.187 533.92 251.68 535.133 252.16L535.133 252.16Z" fill="white"/>
<path fill-rule="evenodd" clip-rule="evenodd" d="M495.784 338.645C494.267 340.63 492.699 342.59 491.105 344.525C485.289 343.994 478.613 343.691 470.811 343.691H470.798C455.726 343.691 439.402 348.217 422.132 353.01C402.76 358.372 382.731 363.923 361.931 363.935C343.583 363.935 324.806 358.727 306.661 353.706C288.908 348.786 270.561 343.703 253.074 343.703C233.133 343.703 213.534 349.141 194.58 354.388C189.332 355.842 184.161 357.284 179.077 358.574C177.358 356.854 175.689 355.097 174.044 353.314C180.189 351.822 186.474 350.075 192.885 348.306C212.256 342.932 232.273 337.381 253.073 337.381C271.42 337.381 290.198 342.578 308.343 347.611C326.095 352.53 344.443 357.613 361.93 357.613C381.871 357.6 401.482 352.176 420.437 346.915C438.139 342.009 454.868 337.368 470.8 337.368H470.813C479.154 337.311 487.492 337.737 495.784 338.645L495.784 338.645Z" fill="white"/>
<path opacity="0.4" fill-rule="evenodd" clip-rule="evenodd" d="M697.074 587.386H35.0608C35.0608 587.386 48.4783 537.66 117.07 536.234C125.696 536.064 132.582 534.244 138.145 531.234C141.71 529.299 144.923 526.777 147.648 523.773C172.794 496.168 157.348 433.561 208.019 448.156C272.135 466.624 336.251 486.508 407.812 450.996C437.186 436.415 467.293 444.805 495.279 462.03C525.373 480.539 552.993 509.257 574.578 530.619C574.722 530.763 574.879 530.907 575.036 531.064C578.283 534.284 581.411 537.334 584.37 540.135C584.815 540.567 585.245 540.972 585.679 541.378C587.577 543.158 589.409 544.847 591.163 546.405C592.198 547.321 593.206 548.199 594.187 549.022C596.962 551.365 599.868 553.564 602.879 555.633C603.088 555.776 603.285 555.92 603.481 556.051L604.11 556.483C610.872 560.975 617.99 564.907 625.394 568.238C660.148 584.101 697.074 587.386 697.074 587.386V587.386Z" fill="#38435B"/>
<path opacity="0.6" fill-rule="evenodd" clip-rule="evenodd" d="M209.828 563.681C210.247 565.867 210.142 568.106 210.037 570.331C209.88 573.577 209.723 576.836 209.579 580.082C209.579 580.108 209.579 580.122 209.566 580.135C209.448 582.556 209.344 584.964 209.226 587.386H190.706C190.581 586.085 190.264 584.81 189.764 583.603C188.743 581.156 186.832 578.826 187.225 576.207C187.488 574.388 188.835 572.909 189.451 571.181C190.485 568.289 189.333 565.042 187.592 562.516C185.838 559.99 183.523 557.921 181.768 555.396C180.161 553.088 179.063 550.465 178.548 547.7C178.295 546.349 178.186 544.976 178.221 543.603C178.26 542.071 178.522 540.435 179.516 539.257C181.1 537.372 184.505 536.495 184.307 534.022C184.175 532.385 182.435 531.469 181.244 530.33C177.984 527.163 178.94 521.809 180.144 517.424C181.923 510.893 183.708 504.352 185.497 497.804C186.503 494.084 188.206 489.714 191.989 489.021C194.725 488.524 197.421 490.33 199.031 492.594C200.654 494.846 201.504 497.555 202.774 500.029C204.619 503.629 207.368 506.744 208.912 510.488C210.47 514.218 210.496 519.088 207.433 521.745C207.014 522.111 206.504 522.582 206.674 523.106C206.805 523.486 207.237 523.642 207.59 523.826C209.711 524.886 210.273 527.622 210.483 529.991C210.587 531.247 210.679 532.504 210.718 533.761C211.027 540.322 210.606 546.898 209.462 553.366C209.108 555.382 208.676 557.423 208.912 559.452C209.069 560.894 209.553 562.268 209.828 563.681Z" fill="#20926B"/>
<path fill-rule="evenodd" clip-rule="evenodd" d="M197.142 584.898C197.116 585.723 197.103 586.548 197.077 587.385H196.187C196.213 586.141 196.252 584.911 196.279 583.694C197.195 541.073 194.222 510.769 194.185 510.377L195.074 510.285C195.114 510.678 198.137 541.597 197.142 584.898Z" fill="white"/>
<path fill-rule="evenodd" clip-rule="evenodd" d="M253.614 503.388C253.366 506.334 252.502 515.248 250.368 526.793C250.323 527.051 250.155 527.271 249.917 527.381C249.679 527.491 249.402 527.477 249.177 527.343C248.892 527.178 248.535 527.201 248.274 527.402C248.013 527.602 247.899 527.941 247.985 528.259L249.242 532.579V532.592C248.012 538.508 246.48 544.896 244.543 551.415C244.442 551.758 244.127 551.993 243.77 551.991H238.966C238.648 551.994 238.361 552.182 238.232 552.472C238.102 552.762 238.154 553.101 238.364 553.339L242.501 557.894V557.908C239.516 566.861 235.761 575.788 231.046 583.786C230.925 583.985 230.725 584.123 230.497 584.166L222.459 585.619C222.143 585.676 221.891 585.915 221.818 586.227C221.744 586.54 221.862 586.866 222.119 587.059L222.551 587.386H200.925C200.643 585.014 200.486 582.628 200.454 580.239C200.456 580.055 200.516 579.877 200.624 579.729L202.601 577.215C202.768 577.002 202.816 576.72 202.728 576.464C202.641 576.208 202.431 576.013 202.169 575.946L201.148 575.683C200.781 575.588 200.53 575.25 200.546 574.872C200.877 568.506 201.713 562.177 203.046 555.944C203.098 555.674 203.286 555.451 203.544 555.355L207.117 553.954C207.394 553.849 207.589 553.599 207.625 553.305C207.66 553.012 207.531 552.722 207.287 552.554L204.749 550.748C204.476 550.557 204.347 550.22 204.422 549.896C205.851 544.279 207.966 538.858 210.718 533.757C212.016 531.385 213.463 529.099 215.051 526.911C215.25 526.635 215.603 526.519 215.926 526.623L218.898 527.498C219.204 527.586 219.534 527.487 219.74 527.244C219.946 527.001 219.99 526.66 219.854 526.373L218.414 523.453C218.269 523.162 218.31 522.813 218.518 522.563C231.661 507.588 248.367 503.387 252.658 502.523C252.908 502.473 253.166 502.544 253.354 502.715C253.542 502.886 253.639 503.135 253.614 503.388L253.614 503.388Z" fill="#20926B"/>
<path fill-rule="evenodd" clip-rule="evenodd" d="M198.326 587.386H173.729C173.65 587.216 173.559 587.046 173.48 586.875C172.04 583.917 170.561 580.54 171.713 577.45C172.276 575.918 173.493 574.466 173.218 572.843C170.496 572.031 167.825 574.282 164.997 574.544C161.489 574.858 158.52 572.109 156.069 569.57C153.176 566.559 150.034 562.645 151.277 558.653C151.474 558.037 151.749 557.344 151.421 556.794C151.133 556.309 150.479 556.192 149.916 556.113C148.528 555.943 147.141 555.76 145.766 555.588C145.039 555.567 144.335 555.335 143.737 554.921C143.135 554.395 142.926 553.546 142.755 552.761C141.224 545.587 139.688 538.41 138.148 531.228C137.676 529.015 137.205 526.816 136.734 524.604C136.459 523.321 136.197 521.907 136.773 520.716C137.336 519.525 139.142 518.897 140.006 519.905C142.533 521.24 145.073 522.536 147.651 523.766C154.498 527.092 161.493 530.086 168.636 532.746C170.154 533.322 171.725 533.898 172.93 534.985C176.111 537.864 175.613 543.035 177.839 546.7C178.047 547.051 178.284 547.383 178.545 547.696C181.635 551.531 187.408 553.035 189.686 557.461C191.021 560.092 190.837 563.208 190.471 566.14C189.934 570.486 189.202 575.29 191.688 578.903C192.919 580.697 194.804 581.94 196.205 583.602C196.231 583.629 196.257 583.668 196.283 583.694C196.598 584.076 196.886 584.478 197.147 584.898C197.629 585.683 198.024 586.517 198.326 587.386V587.386Z" fill="#20926B"/>
<path fill-rule="evenodd" clip-rule="evenodd" d="M240.591 521.232C218.432 540.722 211.443 567.49 209.597 587.386H208.707C208.917 585.056 209.205 582.639 209.571 580.135C209.584 580.121 209.584 580.108 209.584 580.082C212.412 561.089 220.212 537.947 240.002 520.552L240.591 521.232Z" fill="white"/>
<path fill-rule="evenodd" clip-rule="evenodd" d="M189.066 587.386H188.111C170.127 542.948 149.358 534.532 149.109 534.44L149.424 533.603C149.738 533.721 157.29 536.666 167.302 548.799C173.505 556.312 181.463 568.472 189.066 587.386Z" fill="white"/>
<path opacity="0.7" fill-rule="evenodd" clip-rule="evenodd" d="M604.273 523.261C604.901 526.507 604.744 529.845 604.587 533.144C604.352 538.002 604.129 542.843 603.893 547.7V547.713C603.763 550.487 603.627 553.267 603.488 556.051C603.304 560.03 603.117 564.009 602.925 567.989C602.872 569.179 602.781 570.463 602.008 571.379C601.954 571.446 601.893 571.508 601.825 571.562C600.058 573.29 596.092 573.211 596.236 575.659C596.301 576.942 597.636 577.701 598.579 578.565C600.425 580.28 600.896 582.963 600.346 585.463C600.204 586.127 599.989 586.772 599.705 587.389H575.357C575.213 586.904 575.082 586.407 574.977 585.909C574.312 582.392 574.202 578.793 574.65 575.242C574.925 572.768 575.317 570.252 575.618 567.754C575.736 566.747 575.841 565.751 575.919 564.757C576.234 560.646 576.063 556.617 574.48 552.845C572.961 549.219 570.12 545.764 570.71 541.863C571.115 539.166 573.105 536.98 574.021 534.402C574.442 533.186 574.633 531.904 574.584 530.619C574.493 527.424 573.105 524.218 571.258 521.548C568.653 517.804 565.21 514.715 562.605 510.971C559.029 505.844 557.185 499.707 557.343 493.457C557.395 491.182 557.788 488.758 559.254 487.017C561.623 484.203 566.663 482.894 566.375 479.242C566.192 476.807 563.587 475.446 561.833 473.745C556.989 469.058 558.417 461.1 560.183 454.594C562.841 444.882 565.494 435.169 568.142 425.456C569.648 419.946 572.161 413.44 577.79 412.419C581.848 411.686 585.84 414.357 588.25 417.721C590.645 421.072 591.916 425.09 593.801 428.755C596.549 434.095 600.621 438.73 602.924 444.28C605.228 449.83 605.268 457.068 600.725 461.008C600.11 461.545 599.337 462.252 599.6 463.024C599.796 463.587 600.424 463.822 600.961 464.084C604.116 465.668 604.927 469.726 605.241 473.247C605.412 475.119 605.529 476.977 605.608 478.849C606.053 488.592 605.425 498.354 603.736 507.96C603.199 510.958 602.571 513.981 602.911 517.005C603.16 519.125 603.88 521.167 604.273 523.261L604.273 523.261Z" fill="#20926B"/>
<path fill-rule="evenodd" clip-rule="evenodd" d="M585.683 541.374C585.631 545.747 585.552 550.215 585.447 554.779C585.225 564.232 584.871 574.087 584.361 584.257C584.309 585.291 584.257 586.339 584.204 587.386H582.882C582.922 586.679 582.961 585.972 583 585.266C583 585.187 583.013 585.109 583.013 585.043C583.576 573.943 583.942 563.222 584.165 552.985C584.257 548.6 584.326 544.315 584.374 540.131C584.937 483.7 581.115 444.652 581.063 444.116L582.371 443.984C582.424 444.535 586.311 484.197 585.683 541.374L585.683 541.374Z" fill="white"/>
<path fill-rule="evenodd" clip-rule="evenodd" d="M669.29 433.749C668.924 438.121 667.641 451.355 664.473 468.504C664.402 468.887 664.149 469.211 663.794 469.373C663.44 469.534 663.029 469.513 662.693 469.315C662.271 469.068 661.741 469.102 661.355 469.402C660.968 469.702 660.804 470.207 660.939 470.677L662.798 477.103C660.978 485.887 658.687 495.377 655.82 505.051C655.675 505.56 655.211 505.912 654.682 505.915H647.548C647.076 505.912 646.646 506.188 646.453 506.619C646.26 507.05 646.34 507.555 646.658 507.905L652.797 514.685C650.585 521.335 648.071 527.972 645.244 534.438C642.466 540.849 639.305 547.086 635.779 553.118C635.603 553.423 635.301 553.634 634.955 553.694L623.029 555.854C622.564 555.937 622.192 556.288 622.081 556.747C621.971 557.207 622.142 557.688 622.519 557.975L628.357 562.425C628.868 562.827 628.972 563.56 628.593 564.088C627.558 565.502 626.485 566.889 625.398 568.237C619.139 575.987 612.019 582.571 603.915 587.388H602.004C602.017 587.417 602.017 587.451 602.004 587.48C601.982 587.446 601.956 587.416 601.926 587.388C601.361 586.778 600.832 586.135 600.342 585.463C596.859 580.803 590.707 569.558 590.366 547.855C590.356 547.58 590.444 547.311 590.615 547.096L591.165 546.402L593.547 543.365C593.793 543.044 593.861 542.621 593.729 542.24C593.597 541.858 593.282 541.568 592.891 541.467L591.385 541.087C590.839 540.949 590.467 540.445 590.495 539.883C590.984 530.431 592.223 521.034 594.2 511.778C594.288 511.382 594.567 511.054 594.944 510.903L600.246 508.835C600.655 508.678 600.946 508.308 601.001 507.873C601.056 507.438 600.866 507.007 600.508 506.754L596.725 504.07C596.317 503.788 596.129 503.281 596.254 502.801C598.365 494.459 601.505 486.413 605.601 478.846C607.523 475.321 609.67 471.924 612.028 468.675C612.328 468.266 612.854 468.093 613.337 468.243L617.736 469.552C618.191 469.686 618.683 469.538 618.989 469.175C619.295 468.812 619.358 468.303 619.15 467.876L617.016 463.544C616.806 463.108 616.873 462.59 617.186 462.221C636.706 439.981 661.498 433.75 667.874 432.481C668.241 432.404 668.623 432.507 668.902 432.757C669.182 433.007 669.326 433.376 669.29 433.749L669.29 433.749Z" fill="#20926B"/>
<path fill-rule="evenodd" clip-rule="evenodd" d="M579.537 587.055C573.369 585.581 566.871 583.929 562.364 579.468C559.583 576.715 557.817 573.126 556.101 569.608L550.302 557.718C548.158 553.324 545.974 548.304 547.674 543.721C548.522 541.434 550.322 539.282 549.906 536.879C545.872 535.662 541.91 539.013 537.714 539.392C532.493 539.865 528.095 535.785 524.46 532.009C520.154 527.536 515.498 521.732 517.345 515.805C517.628 514.898 518.049 513.872 517.56 513.057C517.122 512.326 516.16 512.147 515.314 512.04L509.152 511.257C508.089 511.122 506.96 510.959 506.148 510.26C505.245 509.483 504.946 508.232 504.697 507.068C501.714 493.132 498.731 479.197 495.749 465.262C495.338 463.344 494.945 461.257 495.798 459.491C496.652 457.725 499.332 456.787 500.608 458.277C514.348 465.544 528.544 471.915 543.106 477.35C545.368 478.194 547.701 479.052 549.49 480.676C554.203 484.947 553.463 492.633 556.776 498.062C560.946 504.895 570.709 506.919 574.358 514.043C576.354 517.941 576.071 522.577 575.535 526.924C574.739 533.375 573.645 540.518 577.329 545.874C579.161 548.538 581.964 550.375 584.044 552.85C587.531 557.001 588.732 562.697 588.446 568.109C588.16 573.521 586.528 578.763 584.908 583.937L579.537 587.055Z" fill="#20926B"/>
<path fill-rule="evenodd" clip-rule="evenodd" d="M649.943 460.228C617.769 488.516 607.141 527.158 604.118 556.48C603.06 566.746 602.802 577.08 603.346 587.386H602.01C601.788 583.04 601.657 577.673 601.827 571.56C601.958 566.677 602.285 561.324 602.887 555.629C603.162 553.05 603.489 550.421 603.894 547.708V547.694C608.082 519.472 619.679 485.083 649.064 459.231L649.943 460.228Z" fill="white"/>
<path fill-rule="evenodd" clip-rule="evenodd" d="M583.664 587.386H582.263C582.093 586.836 581.936 586.299 581.766 585.763C579.763 579.388 577.712 573.384 575.614 567.751C548.179 493.648 514.5 479.982 514.12 479.838L514.592 478.595C515.05 478.778 526.254 483.15 541.124 501.175C551.006 513.139 563.899 533.036 575.915 564.753C578.297 571.049 580.653 577.817 582.931 585.082C582.959 585.141 582.98 585.203 582.996 585.266C583.219 585.973 583.442 586.679 583.664 587.386L583.664 587.386Z" fill="white"/>
<path fill-rule="evenodd" clip-rule="evenodd" d="M55.766 378.265C35.9434 378.265 19.874 362.195 19.874 342.373V114.705C19.874 94.8819 35.9434 78.8126 55.766 78.8126H211.108C230.93 78.8126 247 94.882 247 114.705V342.373C247 362.195 230.93 378.265 211.108 378.265H55.766Z" fill="#FEFFFF"/>
<path opacity="0.25" fill-rule="evenodd" clip-rule="evenodd" d="M76.477 185.005C61.9174 185.005 50.1145 173.202 50.1145 158.642C50.1145 144.082 61.9174 132.28 76.477 132.28H195.063C209.622 132.28 221.425 144.082 221.425 158.642C221.425 173.202 209.622 185.005 195.063 185.005H76.477Z" fill="#C5CBD1"/>
<path opacity="0.25" fill-rule="evenodd" clip-rule="evenodd" d="M73.9122 275.519C59.3526 275.519 47.5497 263.716 47.5497 249.157C47.5497 234.597 59.3526 222.794 73.9122 222.794H192.488C207.048 222.794 218.85 234.597 218.85 249.157C218.85 263.716 207.048 275.519 192.488 275.519H73.9122Z" fill="#C5CBD1"/>
<path fill-rule="evenodd" clip-rule="evenodd" d="M68.207 345.415C56.3864 345.415 46.8038 335.832 46.8038 324.012C46.8038 312.191 56.3864 302.609 68.207 302.609H198.068C209.888 302.609 219.471 312.191 219.471 324.012C219.471 335.832 209.888 345.415 198.068 345.415H68.207Z" fill="#20926B"/>
<path fill-rule="evenodd" clip-rule="evenodd" d="M3.0001e-05 84.4741C3.0001e-05 68.7578 12.7406 56.0172 28.4569 56.0172C44.1732 56.0172 56.9137 68.7578 56.9137 84.4741C56.9137 100.19 44.1732 112.931 28.4569 112.931C12.7406 112.931 3.0001e-05 100.19 3.0001e-05 84.4741Z" fill="#20926B"/>
<path fill-rule="evenodd" clip-rule="evenodd" d="M19.7153 94.9497C19.366 94.9496 19.051 94.739 18.9175 94.4161C18.7839 94.0932 18.858 93.7215 19.1052 93.4746L37.182 75.414C37.4003 75.1959 37.7183 75.1108 38.0163 75.1908C38.3143 75.2709 38.547 75.5039 38.6267 75.8021C38.7064 76.1003 38.621 76.4184 38.4027 76.6365L20.3259 94.697C20.164 94.859 19.9443 94.9499 19.7153 94.9497V94.9497Z" fill="white"/>
<path fill-rule="evenodd" clip-rule="evenodd" d="M37.7866 94.9506C37.5567 94.9513 37.3361 94.8601 37.1739 94.6973L19.1223 76.6298C18.7854 76.2924 18.7859 75.7458 19.1234 75.409C19.461 75.0722 20.0077 75.0727 20.3446 75.4101L38.3962 93.4776C38.643 93.7248 38.7165 94.0964 38.5824 94.4189C38.4483 94.7414 38.1329 94.9513 37.7835 94.9506L37.7866 94.9506Z" fill="white"/>
<path fill-rule="evenodd" clip-rule="evenodd" d="M514.958 504.767L496.917 545.833C495.748 548.493 496.62 551.61 499 553.277C500.324 554.205 501.962 554.569 503.555 554.288C505.147 554.008 506.562 553.106 507.49 551.782L543.368 500.559L525.746 489.749L514.958 504.767Z" fill="#20926B"/>
<path fill-rule="evenodd" clip-rule="evenodd" d="M499.001 496.907L509.61 481.763L523.3 491.353C526.681 493.721 527.502 498.382 525.134 501.763L523.102 504.664C520.734 508.045 516.073 508.865 512.691 506.497L499.001 496.907Z" fill="#FB855F"/>
<path fill-rule="evenodd" clip-rule="evenodd" d="M320.955 568.45L276.968 577.232C274.118 577.801 272.066 580.303 272.066 583.208C272.066 584.825 272.708 586.375 273.851 587.518C274.994 588.661 276.545 589.303 278.161 589.303H340.706L339.449 568.671L320.955 568.45Z" fill="#20926B"/>
<path fill-rule="evenodd" clip-rule="evenodd" d="M316.71 553.803H335.2V570.511C335.2 574.637 331.854 577.983 327.726 577.983H324.184C320.057 577.983 316.71 574.637 316.71 570.511V553.803Z" fill="#FB855F"/>
<path fill-rule="evenodd" clip-rule="evenodd" d="M249.463 70.3348C249.463 70.3348 259.194 105.409 261.699 135.427C262.45 144.368 262.558 152.866 261.581 159.853C260.046 170.698 255.895 177.89 247.425 177.46C246.136 177.398 244.867 177.117 243.672 176.628C243.668 176.621 243.663 176.614 243.656 176.619C242.627 176.194 241.658 175.638 240.773 174.965C240.749 174.95 240.727 174.934 240.706 174.915C238.88 173.456 237.318 171.695 236.089 169.707C232.933 164.841 230.564 158.009 228.803 150.207C221.807 119.296 224.199 73.1581 224.199 73.1581C235.03 63.5865 249.463 70.3347 249.463 70.3347L249.463 70.3348Z" fill="#20926B"/>
<path fill-rule="evenodd" clip-rule="evenodd" d="M339.007 139.698C339.007 139.698 300.621 167.307 270.015 175.98C259.792 178.883 250.445 179.672 243.676 176.624C243.671 176.617 243.666 176.609 243.659 176.615C242.648 176.157 241.682 175.603 240.777 174.961C240.753 174.946 240.731 174.929 240.711 174.911C238.812 173.531 237.237 171.753 236.094 169.703C235.728 169.072 235.402 168.42 235.116 167.749C232.578 161.866 235.619 155.651 241.86 149.562C246.838 144.704 253.851 139.918 261.699 135.423C287.83 120.491 323.182 108.869 323.182 108.869C338.222 106.984 351.58 128.111 339.007 139.698L339.007 139.698Z" fill="#20926B"/>
<path fill-rule="evenodd" clip-rule="evenodd" d="M414.292 228.976C414.275 228.97 414.257 228.968 414.24 228.971C413.385 228.856 412.563 228.72 411.782 228.538C408.729 227.846 406.188 226.582 404.317 224.646C403.642 223.94 403.058 223.151 402.58 222.299C399.314 216.481 401.466 210.95 406.947 205.844C411.883 201.226 419.522 196.962 428.321 193.129C456.881 180.683 497.617 172.828 497.617 172.828C497.617 172.828 510.072 182.741 506.32 196.706C506.32 196.706 463.704 220.705 432.627 227.457C425.755 228.96 419.451 229.606 414.292 228.976H414.292Z" fill="#20926B"/>
<path fill-rule="evenodd" clip-rule="evenodd" d="M414.295 228.97C414.278 228.964 414.26 228.963 414.242 228.965C413.413 228.883 412.592 228.738 411.785 228.532C409.049 227.778 406.505 226.452 404.321 224.641C399.819 221.057 395.79 215.517 392.208 208.905C377.124 181.043 370.053 134.12 370.053 134.12C369.201 117.042 393.006 111.509 402.417 123.399C402.417 123.399 421.812 162.574 428.322 193.127C430.524 203.457 431.254 212.805 429.258 219.317C428.039 223.31 425.803 226.231 422.264 227.671C419.752 228.743 417.017 229.189 414.295 228.97L414.295 228.97Z" fill="#20926B"/>
<path fill-rule="evenodd" clip-rule="evenodd" d="M316.815 423.858C303.261 423.865 292.063 413.284 291.302 399.753C288.135 342.463 286.743 283.773 288.085 240.729H344.002C342.235 289.761 341.801 346.818 342.366 398.021C342.442 404.847 339.784 411.419 334.984 416.273C330.184 421.127 323.641 423.858 316.815 423.858Z" fill="#575756"/>
<path fill-rule="evenodd" clip-rule="evenodd" d="M316.793 374.593C309.778 374.592 303.073 377.485 298.262 382.591C293.451 387.696 290.961 394.56 291.379 401.563C294.331 450.94 298.541 523.107 300.732 554.766H344.002C342.284 518.695 342.805 444.745 342.251 399.729C342.078 385.794 330.73 374.59 316.793 374.593H316.793Z" fill="#575756"/>
<path fill-rule="evenodd" clip-rule="evenodd" d="M407.293 406.093C394.062 409.032 380.84 401.125 377.17 388.078C361.683 332.831 347.628 275.835 339.624 233.52L394.214 221.422C403.099 269.675 415.018 325.472 426.648 375.34C428.199 381.988 427.026 388.98 423.39 394.757C419.754 400.534 413.957 404.616 407.293 406.093Z" fill="#575756"/>
<path fill-rule="evenodd" clip-rule="evenodd" d="M386.615 366.701C381.428 371.423 378.42 378.076 378.302 385.09C378.183 392.103 380.964 398.855 385.988 403.75C421.419 438.265 473.124 488.781 496.063 510.71L528.05 481.576C502.491 456.066 453.08 401.047 422.357 368.142C412.846 357.959 396.915 357.316 386.615 366.701Z" fill="#575756"/>
<path fill-rule="evenodd" clip-rule="evenodd" d="M288.084 240.729C288.084 240.729 289.515 127.244 320.808 111.09C338.749 101.829 375.878 104.344 394.812 117.139C413.921 130.053 400.425 240.729 400.425 240.729H288.084Z" fill="#20926B"/>
<path fill-rule="evenodd" clip-rule="evenodd" d="M493.394 176.639C493.394 176.639 496.099 170.872 500.554 168.184C505.008 165.496 508.344 164.24 511.296 158.908C514.249 153.576 519.59 157.754 516.819 162.263C514.048 166.771 508.621 173.277 515.173 174.833C521.724 176.389 535.436 165.949 536.806 176.597C536.806 176.597 544.082 173.47 545.105 176.832C546.129 180.195 539.552 183.071 539.552 183.071C539.552 183.071 547.452 188.326 529.433 192.623C529.433 192.623 531.462 196.639 528.083 197.931C522.68 199.996 509.746 199.308 500.028 195.848C484.238 190.225 493.394 176.639 493.394 176.639H493.394Z" fill="#FD8B66"/>
<path fill-rule="evenodd" clip-rule="evenodd" d="M516.384 181.678L516.296 180.818C532.636 179.119 536.508 176.285 536.545 176.256L537.076 176.939C536.92 177.06 533.087 179.941 516.384 181.678H516.384Z" fill="#E56542"/>
<path fill-rule="evenodd" clip-rule="evenodd" d="M518.071 187.738L518.056 186.875C526.826 186.729 539.297 182.71 539.422 182.67L539.689 183.491C539.563 183.531 526.967 187.589 518.071 187.738V187.738Z" fill="#E56542"/>
<path fill-rule="evenodd" clip-rule="evenodd" d="M517.271 193.433L517.265 192.565C522.58 192.526 529.346 192.195 529.414 192.191L529.458 193.058C529.388 193.061 522.605 193.394 517.271 193.433H517.271Z" fill="#E56542"/>
<path fill-rule="evenodd" clip-rule="evenodd" d="M248.207 72.637C248.207 72.637 250.478 66.9371 249.589 61.8157C248.7 56.6944 247.521 53.3353 249.344 47.716C251.168 42.0966 245.073 40.5926 243.699 45.5555C242.324 50.5184 241.21 58.7809 236.159 54.7015C231.107 50.6221 229.844 33.5015 221.772 39.113C221.772 39.113 219.462 31.5402 216.554 32.8552C213.645 34.1702 215.699 41.0481 215.699 41.0481C215.699 41.0481 207.312 38.2448 215.376 54.8407C215.376 54.8407 211.41 55.7907 212.591 59.2067C214.482 64.6703 222.835 74.2215 231.109 79.5512C244.556 88.2132 248.207 72.637 248.207 72.637H248.207Z" fill="#FD8B66"/>
<path fill-rule="evenodd" clip-rule="evenodd" d="M230.738 58.0582C221.74 44.0855 221.359 39.3349 221.347 39.1397L222.209 39.0849C222.213 39.1318 222.647 43.8969 231.464 57.5912L230.738 58.0582Z" fill="#E56542"/>
<path fill-rule="evenodd" clip-rule="evenodd" d="M225.589 60.5452C220.268 53.5875 215.351 41.3277 215.303 41.2051L216.105 40.8856C216.154 41.0073 221.028 53.1576 226.276 60.0203L225.589 60.5452Z" fill="#E56542"/>
<path fill-rule="evenodd" clip-rule="evenodd" d="M222.199 64.7265C218.974 60.5882 215.063 55.1473 215.024 55.093L215.725 54.5894C215.763 54.6441 219.665 60.0714 222.879 64.1961L222.199 64.7265Z" fill="#E56542"/>
<path fill-rule="evenodd" clip-rule="evenodd" d="M354.132 125.347C342.297 125.347 336.901 111.522 340.081 108.342C341.032 107.337 341.789 106.165 342.313 104.885H342.322C343.123 102.964 343.664 100.945 343.929 98.8805L343.938 98.8722L365.818 79.3546C364.636 91.7829 369.954 100.505 371.883 106.718C373.805 112.93 367.592 125.347 354.132 125.347L354.132 125.347Z" fill="#FB855F"/>
<path fill-rule="evenodd" clip-rule="evenodd" d="M361.979 94.0468C355.705 106.054 342.69 104.861 342.325 104.888C343.126 102.966 343.667 100.946 343.932 98.8803L343.941 98.872C344.531 98.5327 367.86 82.793 361.979 94.0468L361.979 94.0468Z" fill="#E56542"/>
<path fill-rule="evenodd" clip-rule="evenodd" d="M387.467 57.02C387.467 57.02 386.527 68.3649 370.031 80.0526C352.736 92.3062 372.422 54.6449 372.422 54.6449L387.467 57.02Z" fill="#8E3332"/>
<path fill-rule="evenodd" clip-rule="evenodd" d="M342.445 50.2059C342.445 50.2059 340.111 59.9801 337.084 70.9498C332.757 86.6321 332.388 99.313 348.362 99.313C375.191 99.313 373.405 54.7901 373.405 54.7901L342.445 50.2059Z" fill="#FB855F"/>
<path fill-rule="evenodd" clip-rule="evenodd" d="M291.507 184.537C291.49 183.822 291.157 166.993 296.772 163.018L297.769 164.428C293.729 167.288 293.126 179.884 293.234 184.495L291.507 184.537Z" fill="#FEFFFF"/>
<path fill-rule="evenodd" clip-rule="evenodd" d="M261.386 151.77L260.866 135.852L262.59 135.796L263.11 151.714L261.386 151.77Z" fill="#FEFFFF"/>
<path fill-rule="evenodd" clip-rule="evenodd" d="M425.442 206.958L423.777 206.504L427.488 192.901L429.152 193.355L425.442 206.958Z" fill="#FEFFFF"/>
<path fill-rule="evenodd" clip-rule="evenodd" d="M316.349 297.723L364.649 295.527L349.281 247.23L326.229 243.937L316.349 297.723H316.349Z" fill="#575756"/>
<path fill-rule="evenodd" clip-rule="evenodd" d="M345.915 274.435L331.848 273.262L335.799 241.087L337.514 241.298L333.781 271.69L346.059 272.713L345.915 274.435V274.435Z" fill="white"/>
<path fill-rule="evenodd" clip-rule="evenodd" d="M360.804 81.4049C360.804 76.4426 364.827 72.4198 369.789 72.4198C374.752 72.4198 378.774 76.4426 378.774 81.4049C378.774 86.3673 374.752 90.39 369.789 90.39C364.827 90.39 360.804 86.3673 360.804 81.4049Z" fill="#FB855F"/>
<path fill-rule="evenodd" clip-rule="evenodd" d="M288.378 290.326L287.233 289.033L293.106 283.829L295.257 240.637L296.98 240.723L294.794 284.641L288.378 290.326V290.326Z" fill="white"/>
<path fill-rule="evenodd" clip-rule="evenodd" d="M407.191 289.764L397.583 286.689L386.493 241.211L388.17 240.802L399.032 285.339L407.717 288.119L407.191 289.764L407.191 289.764Z" fill="white"/>
<path fill-rule="evenodd" clip-rule="evenodd" d="M300.735 554.766L299.33 540.875L342.142 539.229L344.002 554.766H300.735V554.766Z" fill="#C5C5C5"/>
<path fill-rule="evenodd" clip-rule="evenodd" d="M484.021 499.021L496.056 510.71L528.05 481.576L515.862 469.932L484.021 499.021Z" fill="#C5C5C5"/>
<path fill-rule="evenodd" clip-rule="evenodd" d="M354.177 133.026C352.945 133.026 351.651 132.962 350.289 132.828C331.012 130.938 332.661 105.093 332.68 104.832L334.403 104.956C334.214 109.201 334.687 113.449 335.803 117.548C338.189 125.827 343.12 130.39 350.46 131.109C368.827 132.913 373.988 121.684 378.827 106.822L380.469 107.356C375.9 121.386 370.683 133.026 354.177 133.026L354.177 133.026Z" fill="#FEFFFF"/>
<path fill-rule="evenodd" clip-rule="evenodd" d="M373.063 61.6245C373.063 61.6245 370.868 53.9406 363.184 55.77C355.499 57.5994 351.841 61.2587 347.816 59.4293C343.791 57.5999 342.446 50.207 342.446 50.207C342.446 50.207 345.291 32.1358 368.343 38.7225C391.396 45.3092 386.601 59.4293 386.601 59.4293L378.552 63.0885L373.063 61.6245Z" fill="#8E3332"/>
<path fill-rule="evenodd" clip-rule="evenodd" d="M355.226 71.5465C355.226 70.5106 356.066 69.6708 357.101 69.6708C358.137 69.6708 358.977 70.5106 358.977 71.5465C358.977 72.5824 358.137 73.4221 357.101 73.4221C356.066 73.4221 355.226 72.5824 355.226 71.5465Z" fill="#8E3332"/>
<path fill-rule="evenodd" clip-rule="evenodd" d="M343.531 68.974C343.531 67.9381 344.371 67.0984 345.407 67.0984C346.443 67.0984 347.282 67.9381 347.282 68.974C347.282 70.0099 346.443 70.8496 345.407 70.8496C344.371 70.8496 343.531 70.0099 343.531 68.974Z" fill="#8E3332"/>
<path fill-rule="evenodd" clip-rule="evenodd" d="M348.155 83.7958C346.409 83.7958 344.978 82.9204 344.407 81.736C343.823 80.5261 344.048 78.6488 346.601 77.337C348.826 76.2111 350.119 73.825 349.847 71.3478L351.558 71.1022C351.932 74.3088 350.27 77.4094 347.391 78.8738C346.165 79.5045 345.63 80.2933 345.964 80.9853C346.358 81.8064 347.968 82.5291 349.841 81.6834L350.553 83.2592C349.801 83.6063 348.983 83.7892 348.155 83.7958H348.155Z" fill="#8E3332"/>
<path fill-rule="evenodd" clip-rule="evenodd" d="M341.726 87.6511L350.782 89.0235C350.782 89.0235 349.273 94.9254 345.156 94.239C341.04 93.5525 341.726 87.6511 341.726 87.6511Z" fill="white"/>
<path fill-rule="evenodd" clip-rule="evenodd" d="M361.707 70.6264C360.92 68.7968 359.217 67.5262 357.24 67.2935L357.327 65.5697C359.954 65.8298 362.233 67.4944 363.28 69.9181L361.707 70.6264Z" fill="#8E3332"/>
<path fill-rule="evenodd" clip-rule="evenodd" d="M348.636 65.075C346.165 63.3235 342.693 64.1066 342.659 64.1136L342.261 62.436C342.433 62.3945 346.518 61.4577 349.635 63.6679L348.636 65.075Z" fill="#8E3332"/>
<path fill-rule="evenodd" clip-rule="evenodd" d="M373.947 84.0743C373.509 81.2178 370.002 80.9129 369.965 80.9103L370.099 79.189C371.794 79.3202 375.136 80.4575 375.652 83.8114L373.947 84.0743Z" fill="#8E3332"/>
<path fill-rule="evenodd" clip-rule="evenodd" d="M497.309 67.1527V29.6719C497.314 26.0144 500.277 23.0505 503.935 23.0464H542.421C546.079 23.0505 549.043 26.0143 549.047 29.6719V67.1527H565.269V29.6719C565.255 17.0589 555.034 6.83774 542.421 6.82375H503.935C491.322 6.83798 481.102 17.0591 481.088 29.6719V67.1527H497.309Z" fill="white"/>
<path fill-rule="evenodd" clip-rule="evenodd" d="M482.625 138.015C474.437 138.015 467.798 131.377 467.798 123.188V73.7972C467.798 65.6084 474.437 58.9702 482.625 58.9702H563.732C571.921 58.9702 578.559 65.6085 578.559 73.7972V123.188C578.559 131.377 571.921 138.015 563.732 138.015H482.625Z" fill="#20926B"/>
<path fill-rule="evenodd" clip-rule="evenodd" d="M523.179 117.133C519.871 117.133 517.19 114.451 517.19 111.144V76.5217C517.19 73.214 519.871 70.5326 523.179 70.5326C526.487 70.5326 529.168 73.214 529.168 76.5216V111.144C529.168 114.451 526.487 117.133 523.179 117.133Z" fill="white"/>
<path fill-rule="evenodd" clip-rule="evenodd" d="M510.8 82.9101C510.8 76.0742 516.342 70.5326 523.178 70.5326C530.014 70.5326 535.555 76.0742 535.555 82.9101C535.555 89.746 530.014 95.2877 523.178 95.2877C516.342 95.2877 510.8 89.746 510.8 82.9101Z" fill="white"/>
</svg>
