<svg width="220" height="62" viewBox="0 0 220 62" fill="none" xmlns="http://www.w3.org/2000/svg">
<path fill-rule="evenodd" clip-rule="evenodd" d="M17.5578 30.6133C17.5578 32.8442 17.5633 34.9601 17.552 37.0754C17.5503 37.4011 17.7646 37.492 17.9837 37.6086C22.3572 39.9358 26.7334 42.2582 31.1007 44.597C31.5712 44.849 31.6402 44.7134 31.6362 44.2521C31.6197 42.3846 31.6117 40.5163 31.6422 38.649C31.6497 38.1998 31.4751 37.9978 31.1071 37.805C28.5742 36.4757 26.0518 35.1262 23.5256 33.7834C21.5711 32.7446 19.6162 31.7065 17.5578 30.6132L17.5578 30.6133ZM17.6077 41.7281C17.5835 41.8702 17.5598 41.9459 17.5598 42.0214C17.5573 44.369 17.5643 46.7163 17.5493 49.0637C17.5471 49.3961 17.7027 49.5325 17.9622 49.6701C22.3426 51.9947 26.7217 54.3221 31.0927 56.664C31.5345 56.9008 31.6414 56.8398 31.6372 56.34C31.6189 54.1588 31.6152 51.9773 31.6409 49.7962C31.6464 49.3422 31.5138 49.1024 31.1056 48.8876C27.2491 46.8594 23.405 44.8076 19.5572 42.7627C18.9213 42.4247 18.2851 42.0876 17.6077 41.7281ZM15.6558 4.57862C13.536 4.57862 11.4159 4.58958 9.29606 4.56911C8.86945 4.56513 8.72508 4.67054 8.73535 5.11637C8.76504 6.40219 8.75732 7.68927 8.73808 8.97559C8.73312 9.30602 8.82306 9.49411 9.12677 9.65621C13.4795 11.9771 17.8273 14.3077 22.1691 16.6491C22.5789 16.8704 22.6801 16.8224 22.6784 16.3471C22.6646 12.612 22.6609 8.87693 22.6826 5.14184C22.6856 4.65205 22.523 4.56437 22.0777 4.56886C19.9373 4.59034 17.7966 4.57862 15.6558 4.57862ZM8.74585 13.7967V14.6399C8.74585 29.9291 8.74234 45.2184 8.75909 60.5077C8.75955 61.0867 8.65368 61.2783 8.02725 61.268C5.55202 61.2268 3.07579 61.2398 0.600022 61.261C0.138952 61.2651 -0.0176275 61.1474 0.0020725 60.6711C0.0400625 59.7586 0.0325925 58.8427 0.0041025 57.9296C-0.00790749 57.5394 0.116692 57.4358 0.496882 57.4427C1.7033 57.465 2.91018 57.451 4.11681 57.451C4.95778 57.4507 4.95778 57.4507 4.95778 56.5791C4.95778 38.2568 4.95778 19.9346 4.95778 1.61256C4.95778 0.744598 4.95802 0.744598 5.80151 0.744598C12.4804 0.744598 19.159 0.751338 25.838 0.731608C26.367 0.730098 26.4811 0.874468 26.4794 1.38426C26.4604 7.0346 26.4733 12.6849 26.4561 18.3353C26.4546 18.7943 26.5982 19.0261 27.0029 19.2389C29.6292 20.6194 32.2351 22.0389 34.8605 23.4216C35.2943 23.6501 35.4651 23.9019 35.4641 24.4132C35.4464 35.1736 35.4569 45.9343 35.4352 56.6949C35.4339 57.3209 35.5755 57.503 36.2085 57.467C37.2453 57.4078 38.2883 57.4637 39.3283 57.4438C39.6768 57.4373 39.8004 57.5354 39.7925 57.8961C39.7705 58.872 39.775 59.8488 39.7904 60.8249C39.7954 61.1526 39.6748 61.2567 39.3543 61.2555C36.8783 61.2468 34.4023 61.2498 31.9266 61.2515C31.6439 61.2517 31.4074 61.1344 31.1669 61.0062C25.507 57.9943 19.847 54.983 14.1826 51.9795C13.8828 51.8206 13.7158 51.6683 13.7163 51.2812C13.7305 42.3695 13.7278 33.4577 13.7288 24.5458C13.7288 24.4841 13.7392 24.4227 13.7455 24.3535C13.9988 24.322 14.1734 24.4959 14.366 24.598C19.9006 27.5356 25.4323 30.4792 30.9648 33.4212C31.6269 33.7734 31.6289 33.7722 31.6292 33.0128C31.6299 30.8523 31.6231 28.6921 31.6356 26.5316C31.6376 26.1846 31.5512 25.9738 31.2203 25.7969C23.8625 21.8678 16.5117 17.9251 9.15921 13.9862C9.05405 13.9298 8.94191 13.8861 8.74583 13.7967L8.74585 13.7967Z" fill="#2B865E"/>
<path fill-rule="evenodd" clip-rule="evenodd" d="M60.4938 30.7085H61.4938C61.6334 30.7085 61.7573 30.6594 61.8508 30.5661C61.9448 30.4722 61.9945 30.3537 61.9945 30.2227V29.1114C61.9945 28.9712 61.9448 28.8481 61.8513 28.7543C61.7573 28.6606 61.6334 28.6114 61.4938 28.6114H60.4938C60.3653 28.6114 60.2479 28.6568 60.1456 28.746C60.036 28.8398 59.9784 28.9662 59.9784 29.1114V30.2227C59.9784 30.3587 60.036 30.4801 60.1447 30.5729C60.2479 30.663 60.3653 30.7084 60.4938 30.7084V30.7085Z" fill="#2B865E"/>
<path fill-rule="evenodd" clip-rule="evenodd" d="M57.8571 30.7085H58.8396C58.965 30.7085 59.083 30.6644 59.1905 30.5771C59.3067 30.4829 59.3678 30.3607 59.3678 30.2227V29.1114C59.3678 28.9667 59.3104 28.8407 59.202 28.7465C59.0986 28.6569 58.9769 28.6114 58.8396 28.6114H57.8571C57.7179 28.6114 57.5967 28.6579 57.4979 28.7502C57.3964 28.8439 57.3432 28.969 57.3432 29.1114V30.2227C57.3432 30.356 57.3964 30.476 57.4975 30.5697C57.5967 30.6622 57.7179 30.7085 57.8571 30.7085V30.7085Z" fill="#2B865E"/>
<path fill-rule="evenodd" clip-rule="evenodd" d="M58.4279 35.1991C58.4279 34.6964 58.5663 34.3362 58.851 34.0981C59.1408 33.8547 59.5588 33.732 60.0946 33.732C60.1788 33.732 60.2988 33.7347 60.4529 33.7389C60.5118 33.7407 60.5628 33.743 60.6065 33.7453V36.2541C60.6065 36.4123 60.5495 36.5154 60.4212 36.5899C60.2685 36.6787 60.0436 36.7237 59.7524 36.7237H59.5386C59.1536 36.7237 58.8699 36.6275 58.696 36.4367C58.5185 36.2436 58.4279 35.894 58.4279 35.3987L58.4279 35.1991ZM81.5635 38.9639C81.7498 38.9432 81.8961 38.9184 82.0317 38.8798C82.1803 38.8177 82.2833 38.74 82.3454 38.6424C82.4001 38.5584 82.4392 38.4562 82.4645 38.3266C82.4939 38.0662 82.5105 37.7318 82.5151 37.3042C82.5202 36.8902 82.5225 36.3787 82.5225 35.7694V34.4434C82.5225 34.2327 82.5202 34.0111 82.5151 33.7771C82.5105 33.5434 82.5036 33.2749 82.4931 32.9524C82.4779 32.8411 82.4351 32.745 82.3629 32.6658C82.2819 32.5771 82.1624 32.5316 82.0079 32.5316H80.8102C80.6796 32.5316 80.566 32.5762 80.4818 32.6603C80.3972 32.745 80.3526 32.8535 80.3526 32.98C80.3714 33.6624 80.3811 34.2976 80.3811 34.8854V36.582C80.3811 36.7831 80.3494 36.8391 80.3535 36.8391C80.3383 36.8469 80.2583 36.8801 79.9838 36.8801H79.3573H79.0851H76.292H76.0197H73.2266H72.9544H70.1618H69.889H67.0964H66.8242H64.0311H63.7588H63.4736C63.1283 36.8801 62.9627 36.8184 62.8849 36.766C62.7962 36.7076 62.7479 36.5407 62.7479 36.2969V32.3904C62.7479 32.2767 62.7217 32.1843 62.6706 32.1158C62.6173 32.0449 62.5244 31.993 62.3827 31.9539C62.1528 31.8849 61.8373 31.8302 61.4445 31.7911C61.0526 31.7524 60.6659 31.7331 60.2942 31.7331C59.0005 31.7331 57.9983 32.0634 57.3158 32.7151C56.6328 33.3691 56.2865 34.2906 56.2865 35.4556V35.7408C56.2865 36.2744 56.3679 36.743 56.528 37.1326C56.6885 37.5258 56.9125 37.8537 57.1912 38.1066C57.4699 38.3605 57.8015 38.5482 58.1759 38.6645C58.5424 38.7781 58.9393 38.8361 59.3532 38.8361H59.5386C59.8872 38.8361 60.2331 38.7832 60.567 38.6787C60.8309 38.5956 61.0572 38.4819 61.2426 38.3389C61.416 38.5693 61.6459 38.7418 61.9279 38.8522C62.2595 38.9838 62.6881 39.0499 63.2027 39.0499H63.7588H64.0311H66.8241H67.0964H69.889H70.1617H72.9543H73.2266H76.0197H76.292H79.0851H79.3573H79.6696C79.8609 39.0499 80.0711 39.0476 80.3006 39.0426C80.5315 39.0385 80.7546 39.0283 80.9717 39.014C81.1878 38.9998 81.3846 38.9828 81.5635 38.9639V38.9639Z" fill="#2B865E"/>
<path fill-rule="evenodd" clip-rule="evenodd" d="M82.3225 39.9407H81.3926C81.2547 39.9407 81.1325 39.9863 81.0296 40.0753C80.9203 40.1691 80.8626 40.2962 80.8626 40.4418V41.584C80.8626 41.6719 80.8913 41.8018 81.0296 41.922C81.1334 42.0114 81.2556 42.0565 81.3926 42.0565H82.3225C82.4521 42.0565 82.5683 42.0104 82.6698 41.9169C82.7971 41.7976 82.8238 41.6696 82.8238 41.584V40.4418C82.8238 40.2995 82.7703 40.1743 82.6688 40.0794C82.5692 39.9877 82.4525 39.9407 82.3224 39.9407L82.3225 39.9407Z" fill="#2B865E"/>
<path fill-rule="evenodd" clip-rule="evenodd" d="M79.7233 39.9407H78.7984C78.6589 39.9407 78.5354 39.9905 78.4418 40.084C78.3486 40.1779 78.299 40.3018 78.299 40.4418V41.584C78.299 41.7047 78.3486 41.8188 78.4422 41.9141C78.5363 42.0072 78.6593 42.0565 78.7984 42.0565H79.7233C79.8481 42.0565 79.9657 42.0123 80.0744 41.9248C80.2204 41.805 80.2511 41.6733 80.2511 41.584V40.4418C80.2511 40.2963 80.1938 40.1691 80.0854 40.0756C79.9821 39.9863 79.861 39.9407 79.7233 39.9407V39.9407Z" fill="#2B865E"/>
<path fill-rule="evenodd" clip-rule="evenodd" d="M86.7089 32.5785H85.4686C85.338 32.5785 85.2249 32.6231 85.1407 32.7067C85.0561 32.7914 85.0111 32.8999 85.0111 33.0218V39.665C85.0111 39.8798 84.9881 40.0485 84.9439 40.1672C84.9044 40.2715 84.851 40.3446 84.782 40.3906C84.7043 40.4426 84.6064 40.4762 84.4909 40.4918C84.3567 40.5098 84.2012 40.519 84.0288 40.519H83.8862C83.5592 40.519 83.4429 40.7259 83.4429 40.9195V41.9601C83.4429 42.197 83.5831 42.3575 83.8274 42.4006C83.9386 42.421 84.0582 42.4338 84.1856 42.4388C84.3075 42.444 84.4022 42.4463 84.4707 42.4463C84.9821 42.4463 85.4433 42.3737 85.8411 42.2292C86.261 42.077 86.5949 41.7684 86.8345 41.3104C86.9863 41.0083 87.0782 40.6854 87.109 40.3506C87.138 40.032 87.1523 39.681 87.1523 39.3086V33.0218C87.1523 32.9003 87.1081 32.7923 87.0235 32.7072C86.9384 32.623 86.8304 32.5785 86.7089 32.5785L86.7089 32.5785Z" fill="#2B865E"/>
<path fill-rule="evenodd" clip-rule="evenodd" d="M106.362 30.6361H107.356C107.498 30.6361 107.617 30.5883 107.713 30.4932C107.806 30.3985 107.855 30.2809 107.855 30.1503V29.0392C107.855 28.9 107.806 28.7769 107.712 28.6822C107.617 28.5875 107.498 28.5398 107.356 28.5398H106.362C106.234 28.5398 106.117 28.5848 106.014 28.6748C105.906 28.7695 105.849 28.8954 105.849 29.0392V30.1503C105.849 30.285 105.906 30.4063 106.014 30.5014C106.117 30.5906 106.234 30.6361 106.362 30.6361H106.362Z" fill="#2B865E"/>
<path fill-rule="evenodd" clip-rule="evenodd" d="M103.721 30.6361H104.708C104.834 30.6361 104.953 30.592 105.06 30.5052C105.176 30.411 105.238 30.2882 105.238 30.1504V29.0392C105.238 28.895 105.181 28.7686 105.072 28.6748C104.969 28.5848 104.846 28.5398 104.708 28.5398H103.721C103.58 28.5398 103.458 28.5862 103.36 28.6781C103.258 28.7723 103.204 28.8973 103.204 29.0392V30.1504C103.204 30.2836 103.258 30.4031 103.36 30.4973C103.458 30.5897 103.58 30.6361 103.721 30.6361V30.6361Z" fill="#2B865E"/>
<path fill-rule="evenodd" clip-rule="evenodd" d="M106.514 33.6744V36.9371H105.604C105.118 36.9371 104.767 36.8097 104.56 36.5581C104.345 36.2968 104.236 35.9014 104.236 35.3844V35.1277C104.236 34.1173 104.72 33.6463 105.76 33.6463C106.026 33.6463 106.278 33.656 106.514 33.6744V33.6744ZM127.644 34.9852V35.1139C127.644 35.3369 127.619 35.5563 127.57 35.7656C127.522 35.9699 127.448 36.1533 127.349 36.313C127.251 36.4708 127.128 36.6059 126.984 36.7159C126.849 36.8197 126.687 36.8893 126.504 36.9228H125.923L124.751 33.9591C124.969 33.834 125.195 33.7526 125.427 33.7154C125.716 33.6698 125.968 33.6463 126.177 33.6463C126.655 33.6463 127.025 33.7544 127.277 33.9687C127.52 34.1753 127.644 34.5179 127.644 34.9852ZM139.793 27.8551H138.495C138.374 27.8551 138.262 27.9025 138.173 27.9908C138.085 28.0804 138.037 28.1963 138.037 28.327V36.5821C138.037 36.7835 138.007 36.8414 138.012 36.8414C138 36.8478 137.923 36.8801 137.654 36.8801H136.957H136.685H133.892H133.619H130.826H130.554H129.279C129.3 36.8492 129.321 36.8166 129.341 36.7825C129.438 36.6193 129.52 36.4372 129.583 36.2426C129.648 36.0495 129.698 35.8452 129.733 35.6369C129.768 35.4285 129.785 35.2221 129.785 35.0224V34.7079C129.785 34.1601 129.691 33.6855 129.504 33.2964C129.317 32.9059 129.055 32.5858 128.723 32.3453C128.398 32.1094 128.01 31.9364 127.571 31.8315C126.895 31.6687 126.124 31.615 125.293 31.7497C124.99 31.7989 124.695 31.8683 124.414 31.9553C124.135 32.0426 123.864 32.1462 123.61 32.2639C123.352 32.3829 123.129 32.515 122.94 32.663C122.846 32.7463 122.774 32.8194 122.722 32.882C122.653 32.9643 122.612 33.0618 122.597 33.186L122.571 33.8878C122.558 33.954 122.558 34.0349 122.569 34.1352C122.582 34.2387 122.608 34.3271 122.637 34.3698L123.615 36.8801H122.158H121.885H119.092H118.82H116.027H115.755H112.962H112.689H109.897H109.624H108.656V32.3619C108.656 32.2519 108.632 32.1599 108.584 32.0868C108.53 32.0077 108.436 31.9516 108.28 31.9088C108.153 31.8794 107.997 31.8499 107.812 31.8209C107.629 31.792 107.434 31.7653 107.227 31.7414C107.019 31.7174 106.803 31.7004 106.581 31.6904C105.739 31.6549 105.024 31.6977 104.392 31.8904C103.92 32.0343 103.508 32.2491 103.17 32.5283C102.827 32.8106 102.559 33.1675 102.373 33.5898C102.188 34.0088 102.095 34.4977 102.095 35.0422V35.3131C102.095 35.7394 102.148 36.1106 102.254 36.4174C102.313 36.5898 102.387 36.7439 102.474 36.88H101.527H101.255H98.4618H98.19H95.3969H95.1242H92.3316H92.0593H91.6886C91.3984 36.88 91.2517 36.8281 91.1795 36.7839C91.1524 36.7674 91.0627 36.6854 91.0627 36.3254V28.3127C91.0627 28.1967 91.024 28.0896 90.9514 28.0027C90.8952 27.9351 90.7899 27.855 90.6051 27.855H89.3366C89.2046 27.855 89.0883 27.9025 89.0004 27.9908C88.9116 28.0804 88.8643 28.1917 88.8643 28.3127V36.8671C88.8643 37.3045 88.9186 37.6683 89.0252 37.9484C89.1365 38.2377 89.2989 38.469 89.5073 38.6346C89.7128 38.7984 89.9635 38.9105 90.2505 38.9675C90.5209 39.0227 90.8272 39.0499 91.1611 39.0499H92.0593H92.3316H95.1242H95.3969H98.19H98.4618H101.255H101.527H109.624H109.897H112.689H112.962H115.755H116.027H118.82H119.092H121.885H122.158H130.554H130.826H133.619H133.892H136.685H136.957H137.312C137.503 39.0499 137.715 39.0476 137.949 39.0425C138.184 39.0384 138.413 39.0283 138.635 39.014C138.855 38.9998 139.06 38.9828 139.247 38.9639C139.443 38.9433 139.594 38.9184 139.731 38.8797C139.879 38.8177 139.982 38.7399 140.044 38.6424C140.099 38.5582 140.139 38.4562 140.163 38.3264C140.192 38.068 140.212 37.7778 140.221 37.4642C140.231 37.1532 140.236 36.869 140.236 36.6106V28.327C140.236 28.199 140.193 28.0851 140.112 27.9962C140.027 27.9043 139.916 27.8551 139.793 27.8551H139.793Z" fill="#2B865E"/>
<path fill-rule="evenodd" clip-rule="evenodd" d="M143.829 27.8501H142.541C142.407 27.8501 142.291 27.8993 142.206 27.9918C142.126 28.0802 142.083 28.1897 142.083 28.3079V38.5777C142.083 38.695 142.123 38.8023 142.202 38.8956C142.287 38.9964 142.404 39.0498 142.541 39.0498H143.829C143.966 39.0498 144.084 38.9969 144.17 38.8956C144.248 38.8023 144.289 38.695 144.289 38.5777V28.3079C144.289 28.1897 144.246 28.0802 144.164 27.9913C144.079 27.8993 143.963 27.8501 143.829 27.8501Z" fill="#2B865E"/>
<path fill-rule="evenodd" clip-rule="evenodd" d="M152.953 35.2643C152.953 34.74 153.05 34.3559 153.242 34.1237C153.425 33.9016 153.74 33.7889 154.178 33.7889C154.605 33.7889 154.909 33.9006 155.083 34.1205C155.267 34.3541 155.36 34.7386 155.36 35.2643V35.9178C155.36 36.1942 155.335 36.4223 155.288 36.5957C155.243 36.7558 155.175 36.8827 155.083 36.9738C154.99 37.0663 154.87 37.132 154.724 37.1711C154.565 37.2144 154.372 37.2365 154.149 37.2365C153.694 37.2365 153.381 37.1298 153.216 36.9196C153.042 36.696 152.953 36.3248 152.953 35.8181L152.953 35.2643ZM177.119 39.0443C177.388 39.0342 177.656 39.0195 177.922 38.9998C178.247 38.9753 178.526 38.938 178.75 38.8894C179.004 38.8374 179.235 38.7712 179.441 38.6916C179.437 38.738 179.435 38.7855 179.433 38.8337C179.428 38.9864 179.421 39.1188 179.412 39.2371C179.394 39.7609 179.307 40.1468 179.155 40.3832C179.018 40.5943 178.731 40.701 178.301 40.701C177.85 40.701 177.54 40.5856 177.38 40.3574C177.207 40.1095 177.119 39.7021 177.119 39.1465L177.119 39.0443ZM179.383 35.2417C179.383 35.7605 179.266 36.1731 179.035 36.4683C178.813 36.7512 178.385 36.8948 177.759 36.8948H177.133V33.7392C177.21 33.7305 177.285 33.7227 177.359 33.7172C177.479 33.7079 177.626 33.7033 177.802 33.7033C178.306 33.7033 178.705 33.8013 178.988 33.9941C179.25 34.1729 179.383 34.5252 179.383 35.0422V35.2417ZM205.099 33.4995C205.094 33.2232 205.087 32.928 205.077 32.6183C205.077 32.4997 205.037 32.393 204.961 32.3098C204.879 32.2206 204.759 32.175 204.605 32.175H203.394C203.257 32.175 203.142 32.226 203.062 32.3226C202.989 32.41 202.95 32.5121 202.95 32.6229C202.96 32.9647 202.967 33.3151 202.972 33.6758C202.976 34.0363 202.978 34.3923 202.978 34.7427V36.6533C202.978 36.8427 202.95 36.8993 202.956 36.8997C202.937 36.9085 202.852 36.9371 202.581 36.9371H202.253C202.073 36.9371 201.884 36.9232 201.693 36.8965C201.61 36.8841 201.506 36.8579 201.456 36.8018V33.1602C201.456 33.0369 201.407 32.927 201.314 32.8401C201.226 32.7596 201.117 32.7173 200.998 32.7173H199.801C199.682 32.7173 199.573 32.7596 199.484 32.8409C199.392 32.926 199.343 33.0365 199.343 33.1602V36.6389C199.343 36.7043 199.331 36.7525 199.307 36.7834C199.278 36.8216 199.239 36.8514 199.189 36.8735C199.131 36.8989 199.064 36.9158 198.991 36.9237C198.907 36.9329 198.825 36.9371 198.746 36.9371H198.531C198.468 36.9371 198.393 36.9347 198.306 36.9306C198.225 36.926 198.146 36.9154 198.071 36.8983C197.996 36.8818 197.926 36.8592 197.859 36.8303C197.842 36.8225 197.821 36.8119 197.806 36.7986V33.6735C197.806 33.5455 197.763 33.4315 197.682 33.3428C197.597 33.2507 197.487 33.2016 197.362 33.2016H196.151C196.029 33.2016 195.918 33.2489 195.829 33.3373C195.74 33.4269 195.693 33.5428 195.693 33.6734V36.5676C195.693 36.7429 195.626 36.787 195.553 36.8087C195.394 36.8565 195.231 36.88 195.067 36.88H194.883H194.611H191.818H191.546H188.753H188.48H185.688H185.416H182.623H182.35H181.865C181.691 36.88 181.521 36.8851 181.357 36.8951C181.305 36.8975 181.254 36.9021 181.204 36.908C181.261 36.7788 181.308 36.6472 181.347 36.5157C181.416 36.2784 181.466 36.0241 181.493 35.7693C181.514 35.6455 181.525 35.508 181.525 35.3484V34.9566C181.525 34.4038 181.435 33.9181 181.261 33.5125C181.084 33.1023 180.823 32.7628 180.488 32.5034C180.158 32.2481 179.758 32.0583 179.3 31.9381C178.552 31.7436 177.611 31.7331 176.663 31.8048C176.272 31.8343 175.908 31.9037 175.58 32.0127C175.417 32.0674 175.284 32.1378 175.182 32.222C175.056 32.3273 174.992 32.48 174.992 32.6754V36.88H173.997H173.724H170.931H170.659H167.866H167.594H164.801H164.528H161.736H161.463H158.67H158.398H158.155C158.096 36.88 158.027 36.8735 157.947 36.8607C157.866 36.8478 157.788 36.8289 157.711 36.8032C157.642 36.7806 157.581 36.7498 157.528 36.7121C157.5 36.6923 157.48 36.6693 157.463 36.6417C157.488 36.4467 157.501 36.2301 157.501 35.9974V35.0992C157.501 34.0092 157.202 33.1754 156.613 32.6212C156.026 32.0697 155.212 31.79 154.192 31.79C153.183 31.79 152.359 32.0766 151.744 32.6414C151.125 33.2103 150.812 34.0464 150.812 35.1277V35.9118C150.812 36.0701 150.821 36.2403 150.841 36.4219C150.851 36.513 150.863 36.5948 150.878 36.6684C150.408 36.725 150.026 36.9103 149.738 37.2207C149.41 37.5753 149.243 38.1135 149.243 38.8204V42.2996C149.243 42.4211 149.288 42.5301 149.372 42.6137C149.457 42.6984 149.565 42.7425 149.686 42.7425H150.913C151.043 42.7425 151.156 42.6984 151.242 42.6137C151.326 42.5296 151.37 42.4206 151.37 42.2996V39.02C151.37 38.7615 151.433 38.6852 151.46 38.6649C151.498 38.6355 151.594 38.5877 151.819 38.5803C152.103 38.8214 152.445 38.9988 152.834 39.1079C153.237 39.2205 153.68 39.278 154.149 39.278C155.146 39.278 155.909 39.0545 156.418 38.6134C156.668 38.7745 156.956 38.8861 157.275 38.9468C157.631 39.0153 157.97 39.0499 158.284 39.0499H158.398H158.67H161.463H161.736H164.528H164.801H167.594H167.866H170.659H170.931H173.724H173.997H174.992V39.2623C174.992 39.7991 175.049 40.2797 175.162 40.6909C175.278 41.1136 175.47 41.4778 175.734 41.7726C175.999 42.0684 176.349 42.2955 176.775 42.4477C177.191 42.5958 177.709 42.6713 178.315 42.6713C180.377 42.6713 181.442 41.5495 181.482 39.3336V39.0549C181.527 39.0517 181.589 39.0499 181.673 39.0499H182.35H182.623H185.416H185.688H188.48H188.753H191.546H191.818H194.611H194.883H194.996C195.329 39.0499 195.677 39.0153 196.034 38.9468C196.358 38.8852 196.647 38.7698 196.893 38.6042C197.141 38.7689 197.411 38.8839 197.697 38.9464C198.012 39.015 198.355 39.0499 198.717 39.0499H198.903C199.248 39.0499 199.584 39.0126 199.903 38.9385C200.191 38.8719 200.445 38.7601 200.662 38.6051C200.939 38.7794 201.264 38.8921 201.631 38.9418C202.029 38.9947 202.401 39.0218 202.738 39.0218H202.923C203.258 39.0218 203.574 39.0094 203.864 38.9849C204.157 38.9611 204.412 38.9184 204.643 38.8512C204.794 38.789 204.899 38.7031 204.958 38.5946C205.003 38.509 205.037 38.4152 205.062 38.297C205.091 38.0321 205.108 37.7395 205.113 37.426C205.118 37.121 205.12 36.8349 205.12 36.5676V35.0206C205.12 34.7772 205.118 34.5316 205.113 34.2828L205.099 33.4995Z" fill="#2B865E"/>
<path fill-rule="evenodd" clip-rule="evenodd" d="M209.884 29.1819H208.644C208.509 29.1819 208.394 29.2311 208.309 29.3235C208.228 29.4117 208.186 29.5256 208.186 29.6534V35.6796C208.186 35.8074 208.228 35.9214 208.309 36.0105C208.395 36.1025 208.505 36.1512 208.629 36.1512H209.884C210.008 36.1512 210.118 36.103 210.205 36.01C210.286 35.9214 210.328 35.807 210.328 35.6796V29.6534C210.328 29.5275 210.291 29.4191 210.217 29.329C210.161 29.2619 210.057 29.1819 209.884 29.1819V29.1819Z" fill="#2B865E"/>
<path fill-rule="evenodd" clip-rule="evenodd" d="M208.142 28.4803H210.334C210.63 28.4803 210.734 28.3037 210.734 28.1375V27.7109C210.734 27.6581 210.715 27.3967 210.334 27.3967H209.39C209.349 27.3641 209.312 27.3127 209.279 27.2453C209.234 27.1503 209.211 27.0347 209.211 26.9002C209.211 26.7497 209.245 26.6474 209.313 26.597C209.37 26.5543 209.492 26.5034 209.751 26.5034H210.249C210.513 26.5034 210.606 26.3341 210.606 26.1892V25.8051C210.606 25.7455 210.585 25.5445 210.332 25.4991C210.204 25.4578 210.068 25.4308 209.927 25.4203C209.794 25.4106 209.687 25.4056 209.608 25.4056C208.289 25.4056 208.012 26.1487 208.012 26.7723C208.012 26.9296 208.033 27.0879 208.075 27.243C208.09 27.3008 208.109 27.3567 208.13 27.4109C207.77 27.4164 207.742 27.6522 207.742 27.7251V28.1375C207.742 28.3037 207.846 28.4803 208.142 28.4803H208.142Z" fill="#2B865E"/>
<path fill-rule="evenodd" clip-rule="evenodd" d="M214.339 27.8501H213.043C212.921 27.8501 212.81 27.8976 212.721 27.9859C212.633 28.0751 212.586 28.1864 212.586 28.3079V36.5809C212.586 36.7819 212.555 36.8403 212.561 36.8403C212.547 36.8472 212.472 36.879 212.202 36.879H206.943C206.826 36.879 206.719 36.919 206.635 36.9954C206.547 37.0759 206.501 37.1841 206.501 37.3083V38.6209C206.501 38.7461 206.548 38.8542 206.635 38.9329C206.719 39.0093 206.825 39.0498 206.943 39.0498H211.717C211.918 39.0498 212.145 39.0474 212.398 39.0424C212.651 39.0383 212.896 39.0281 213.132 39.0139C213.366 38.9997 213.585 38.9831 213.786 38.9637C213.997 38.9435 214.155 38.9182 214.292 38.8795C214.443 38.8165 214.545 38.7364 214.603 38.6352C214.651 38.5524 214.685 38.4562 214.711 38.3196C214.73 38.0716 214.747 37.8157 214.761 37.5531C214.776 37.289 214.782 36.9741 214.782 36.6094V28.308C214.782 28.1897 214.74 28.0802 214.659 27.9914C214.574 27.8993 214.463 27.8501 214.339 27.8501L214.339 27.8501Z" fill="#2B865E"/>
<path fill-rule="evenodd" clip-rule="evenodd" d="M218.707 27.9914C218.622 27.8993 218.507 27.8501 218.374 27.8501H217.092C216.958 27.8501 216.843 27.8993 216.758 27.9918C216.677 28.0802 216.635 28.1897 216.635 28.308V38.5778C216.635 38.695 216.674 38.8023 216.753 38.8956C216.838 38.9965 216.955 39.0498 217.092 39.0498H218.374C218.51 39.0498 218.627 38.9969 218.712 38.8956C218.791 38.8023 218.831 38.695 218.831 38.5778V28.308C218.831 28.1897 218.788 28.0802 218.707 27.9914Z" fill="#2B865E"/>
<path fill-rule="evenodd" clip-rule="evenodd" d="M62.5276 49.4142C62.5276 49.9784 62.3795 50.3676 62.0879 50.57C61.7775 50.7857 61.2633 50.8951 60.561 50.8951C60.5053 50.8951 60.4198 50.8927 60.3048 50.8886L59.5625 50.8597C59.5271 50.8583 59.4949 50.8574 59.4645 50.8559V47.9737C59.4953 47.9714 59.528 47.9695 59.563 47.9682L60.2763 47.9396C60.3917 47.935 60.4869 47.9328 60.561 47.9328C61.2357 47.9328 61.743 48.0427 62.0695 48.2597C62.3777 48.4658 62.5276 48.8015 62.5276 49.2854V49.4142ZM62.9848 52.4087C63.5242 52.1695 63.9648 51.8204 64.296 51.3697C64.6662 50.8665 64.8538 50.2084 64.8538 49.4142V49.2854C64.8538 48.6507 64.7338 48.108 64.4979 47.6711C64.261 47.2342 63.9391 46.88 63.5408 46.6178C63.1485 46.3608 62.6895 46.1727 62.1762 46.059C61.1966 45.8433 60.0491 45.8723 59.0409 45.9413C58.5488 45.9754 58.1119 46.0218 57.7449 46.0779C57.5688 46.1014 57.4322 46.1524 57.3268 46.2334C57.2013 46.3295 57.1383 46.4786 57.1383 46.6763V56.4859C57.1383 56.6073 57.1852 56.7185 57.2739 56.8077C57.3627 56.8961 57.474 56.9434 57.5959 56.9434H59.0212C59.1449 56.9434 59.2553 56.8947 59.3417 56.8022C59.4222 56.7139 59.4645 56.6045 59.4645 56.4863V52.819L59.8955 52.8442C60.1466 52.8584 60.3683 52.8654 60.561 52.8654H60.658L62.6596 56.5631C62.7005 56.6464 62.7428 56.719 62.7842 56.7815C62.8537 56.886 62.9659 56.9434 63.0993 56.9434H64.8387C65.0475 56.9434 65.1822 56.8087 65.1822 56.5999C65.1822 56.519 65.1629 56.4485 65.133 56.4039L62.9848 52.4087Z" fill="#2B865E"/>
<path fill-rule="evenodd" clip-rule="evenodd" d="M70.474 51.893C70.4915 51.4276 70.6184 51.068 70.8516 50.8232C71.105 50.557 71.4233 50.4278 71.8243 50.4278C72.224 50.4278 72.5363 50.5583 72.78 50.8274C73.0063 51.0767 73.1291 51.4349 73.1466 51.893H70.474ZM74.4652 49.5281C74.1635 49.1859 73.7859 48.9192 73.3416 48.7339C72.9001 48.5504 72.3873 48.457 71.8174 48.457C71.2573 48.457 70.7477 48.5481 70.302 48.726C69.8536 48.9059 69.471 49.1653 69.1656 49.4964C68.8611 49.8266 68.6261 50.2309 68.4679 50.6986C68.3101 51.1599 68.2306 51.6823 68.2306 52.2509V53.3059C68.2306 54.033 68.3492 54.6466 68.5828 55.1276C68.8155 55.6096 69.1177 55.9992 69.4792 56.2857C69.8384 56.5704 70.2358 56.7728 70.6603 56.8877C71.0779 57.0004 71.479 57.0574 71.8533 57.0574C72.1789 57.0574 72.4641 57.0524 72.7083 57.0428C72.9534 57.033 73.1802 57.0188 73.3876 56.9995C73.5946 56.9802 73.7997 56.9562 74.0021 56.9269C74.2048 56.8983 74.4224 56.8597 74.6432 56.8128C74.8322 56.7861 74.955 56.7217 75.018 56.615C75.0672 56.5304 75.0911 56.4181 75.0911 56.2718V55.3309C75.0911 55.1626 75.012 55.0715 74.9458 55.0255C74.869 54.9722 74.7733 54.9446 74.6615 54.9446L74.6027 54.9455C74.3001 54.9731 73.9184 55.0044 73.4589 55.0375C73.004 55.0701 72.5119 55.0871 71.9954 55.0871C71.6809 55.0871 71.4205 55.0375 71.2232 54.9405C71.0264 54.8443 70.87 54.7187 70.7592 54.5665C70.6456 54.4101 70.5664 54.235 70.5246 54.0454C70.4911 53.8964 70.4699 53.7455 70.4611 53.5782H74.9196C75.0267 53.5782 75.3763 53.5399 75.3763 53.0497V52.2509C75.3763 51.703 75.299 51.193 75.1468 50.7354C74.9927 50.2732 74.7637 49.867 74.4652 49.5281L74.4652 49.5281Z" fill="#2B865E"/>
<path fill-rule="evenodd" clip-rule="evenodd" d="M83.2146 54.8839C83.0389 54.9722 82.8467 55.0476 82.6421 55.1083C82.4066 55.1795 82.1651 55.2154 81.9241 55.2154C81.605 55.2154 81.3672 55.165 81.2375 55.0696C81.0949 54.9662 81.0645 54.7046 81.0645 54.504V54.4469C81.0645 54.2643 81.0839 54.1025 81.122 53.9664C81.1561 53.8472 81.2177 53.7515 81.3106 53.6738C81.4095 53.5915 81.5511 53.5262 81.73 53.4802C81.9218 53.4319 82.1757 53.407 82.4838 53.407H83.2146L83.2146 54.8839ZM84.5737 49.1671C84.0071 48.6961 83.1857 48.457 82.1325 48.457C81.6362 48.457 81.1763 48.4814 80.7651 48.5292C80.3494 48.578 80.0063 48.6295 79.7165 48.6869C79.4567 48.7407 79.3081 48.9104 79.3081 49.1523V50.0565C79.3081 50.2253 79.3605 50.3418 79.464 50.4033C79.5385 50.448 79.6306 50.4701 79.7372 50.4701L79.8288 50.4687C80.0619 50.4415 80.3935 50.4153 80.8157 50.3919C81.2416 50.3684 81.6845 50.356 82.1325 50.356C82.5197 50.356 82.804 50.4223 82.9769 50.5514C83.1323 50.6683 83.2146 50.9437 83.2146 51.348V51.8079H82.4889C81.8621 51.8079 81.3138 51.8622 80.8599 51.9689C80.3968 52.0783 80.0109 52.2471 79.7129 52.4693C79.4088 52.6955 79.1835 52.9788 79.0437 53.3105C78.9071 53.6347 78.8376 54.0169 78.8376 54.4469V54.504C78.8376 55.0136 78.9181 55.4367 79.0758 55.7618C79.2345 56.0898 79.4433 56.3551 79.6959 56.5501C79.9469 56.7461 80.2358 56.8817 80.5545 56.9535C80.8603 57.0224 81.1708 57.0574 81.4766 57.0574C81.8349 57.0574 82.1931 56.9995 82.5427 56.8849C82.8003 56.8003 83.0601 56.6881 83.319 56.5506C83.3329 56.6467 83.3775 56.7346 83.4506 56.8076C83.5394 56.896 83.6506 56.9434 83.7721 56.9434H84.9839C85.1053 56.9434 85.2171 56.896 85.3059 56.8076C85.3942 56.7184 85.4416 56.6071 85.4416 56.4857V51.3526C85.4416 50.3817 85.1495 49.6463 84.5737 49.1671L84.5737 49.1671Z" fill="#2B865E"/>
<path fill-rule="evenodd" clip-rule="evenodd" d="M91.2854 45.7472H89.9613C89.84 45.7472 89.7289 45.7941 89.6403 45.8829C89.5512 45.9722 89.5043 46.0835 89.5043 46.2051V56.4743C89.5043 56.5949 89.5484 56.7034 89.6352 56.7982C89.7243 56.8953 89.8368 56.9468 89.9613 56.9468H91.2854C91.4122 56.9468 91.5238 56.8935 91.6097 56.7927C91.6882 56.6993 91.7281 56.5917 91.7281 56.4743V46.2051C91.7281 46.0863 91.6855 45.9773 91.6042 45.888C91.5197 45.7959 91.4089 45.7472 91.2854 45.7472Z" fill="#2B865E"/>
<path fill-rule="evenodd" clip-rule="evenodd" d="M108.201 46.0942L107.821 46.0298C107.679 46.0049 107.504 45.9839 107.294 45.964C107.087 45.9447 106.837 45.9277 106.545 45.9131C106.27 45.8997 105.934 45.8928 105.537 45.8918L105.538 45.8914H102.522C102.22 45.8914 101.975 46.1364 101.975 46.4381V48.9862V53.9602V56.5083C101.975 56.8099 102.22 57.055 102.522 57.055H105.79L105.788 57.0531C106.078 57.0504 106.33 57.0439 106.544 57.0334C106.837 57.0191 107.087 57.0016 107.294 56.9823C107.504 56.963 107.679 56.9413 107.821 56.917L108.202 56.8526C108.342 56.8269 108.439 56.7865 108.505 56.7267C108.588 56.6536 108.628 56.5414 108.628 56.3837V55.4709C108.628 55.35 108.581 55.2388 108.492 55.1496C108.403 55.0608 108.292 55.0136 108.17 55.0136H105.259C104.89 55.0136 104.636 54.945 104.505 54.8094C104.422 54.7243 104.326 54.5312 104.308 54.1027V52.2939H107.999C108.12 52.2939 108.232 52.247 108.321 52.1582C108.41 52.0691 108.457 51.9582 108.457 51.8369V50.8106C108.457 50.6892 108.41 50.5784 108.321 50.4888C108.231 50.4 108.12 50.3531 107.999 50.3531H104.308V48.8437C104.326 48.4151 104.422 48.2221 104.505 48.137C104.636 48.0014 104.89 47.9329 105.259 47.9329H108.17C108.292 47.9329 108.403 47.8854 108.492 47.7967C108.581 47.7076 108.628 47.5963 108.628 47.4753V46.5627C108.628 46.4059 108.588 46.2937 108.505 46.2197C108.438 46.1599 108.338 46.119 108.201 46.0942H108.201Z" fill="#2B865E"/>
<path fill-rule="evenodd" clip-rule="evenodd" d="M118.016 53.4976V53.4971C117.908 53.304 117.757 53.1095 117.566 52.9186C117.377 52.7295 117.127 52.5391 116.822 52.3528L114.953 51.2131C114.782 51.1138 114.65 51.0236 114.559 50.9459C114.479 50.8778 114.47 50.8176 114.47 50.7786C114.47 50.5747 114.555 50.5025 114.618 50.4657C114.707 50.4142 114.895 50.3531 115.28 50.3531C115.476 50.3531 115.689 50.3604 115.917 50.3742L116.593 50.417C116.808 50.4313 117.003 50.4501 117.18 50.4731C117.363 50.4975 117.508 50.514 117.63 50.5241H117.687C117.88 50.5241 118.087 50.4078 118.087 50.0803V49.2455C118.087 48.9944 117.951 48.8178 117.694 48.7455C117.512 48.7073 117.331 48.6705 117.149 48.6365C116.966 48.6029 116.774 48.5717 116.572 48.5427C116.368 48.5133 116.148 48.4912 115.91 48.4761C115.674 48.4617 115.412 48.454 115.123 48.454C113.214 48.454 112.245 49.2303 112.245 50.761C112.245 51.2113 112.367 51.6234 112.608 51.9872C112.844 52.3436 113.152 52.6408 113.524 52.8717L115.474 54.0661C115.687 54.1995 115.838 54.3135 115.921 54.4055C115.988 54.4783 116.019 54.5564 116.019 54.6453C116.019 54.7235 116.01 54.7984 115.99 54.8692C115.975 54.9226 115.947 54.9657 115.9 55.0058C115.851 55.0486 115.772 55.0845 115.666 55.1107C115.547 55.141 115.383 55.1558 115.18 55.1558C115.077 55.1558 114.928 55.1507 114.732 55.1415C114.534 55.1323 114.321 55.1204 114.095 55.1061C113.867 55.0918 113.638 55.0752 113.407 55.0564C113.176 55.0375 112.976 55.0186 112.788 54.999H112.731C112.573 54.999 112.478 55.0684 112.424 55.1276C112.353 55.2081 112.316 55.2997 112.316 55.4V56.2638C112.316 56.5158 112.457 56.6929 112.711 56.7601C112.916 56.8193 113.144 56.8672 113.39 56.9021C113.629 56.9362 113.869 56.9648 114.109 56.9891C114.349 57.0135 114.573 57.0301 114.781 57.0402C114.988 57.0499 115.164 57.0549 115.309 57.0549C115.789 57.0549 116.219 56.9946 116.586 56.8755C116.957 56.7555 117.272 56.5861 117.522 56.3728C117.773 56.1575 117.964 55.8986 118.088 55.6046C118.21 55.3145 118.272 54.9976 118.272 54.6628C118.272 54.4723 118.257 54.2809 118.227 54.0952C118.196 53.8965 118.125 53.695 118.016 53.4977L118.016 53.4976Z" fill="#2B865E"/>
<path fill-rule="evenodd" clip-rule="evenodd" d="M126.203 55.2423H125.44C125.287 55.2423 125.205 55.2326 125.163 55.2244C125.13 55.2181 125.117 55.2047 125.108 55.1909C125.095 55.1725 125.073 55.1266 125.064 55.0286C125.055 54.9281 125.05 54.7911 125.05 54.6173V50.3161H126.174C126.296 50.3161 126.408 50.2693 126.498 50.1811C126.587 50.0914 126.635 49.9802 126.635 49.8584V49.0178C126.635 48.897 126.587 48.7858 126.498 48.6962C126.408 48.6079 126.296 48.5606 126.174 48.5606H125.05V47.2659C125.05 47.028 124.898 46.88 124.651 46.88L123.234 47.1129C123.133 47.1387 123.044 47.1837 122.967 47.248C122.872 47.3284 122.82 47.4383 122.82 47.5646V48.5606H121.651C121.529 48.5606 121.418 48.6079 121.329 48.6966C121.24 48.7858 121.193 48.897 121.193 49.0178V49.6594C121.193 49.7872 121.244 49.897 121.34 49.976C121.416 50.04 121.506 50.0859 121.625 50.1149L122.82 50.2922V54.6173C122.82 55.1054 122.866 55.5121 122.955 55.826C123.05 56.156 123.202 56.4157 123.406 56.5977C123.61 56.7796 123.876 56.9037 124.195 56.9657C124.496 57.0246 124.855 57.0549 125.263 57.0549C125.432 57.0549 125.6 57.0448 125.762 57.0246C125.922 57.0057 126.089 56.9818 126.262 56.9529C126.638 56.8932 126.678 56.6349 126.678 56.526V55.6284C126.678 55.5379 126.644 55.2423 126.203 55.2423L126.203 55.2423Z" fill="#2B865E"/>
<path fill-rule="evenodd" clip-rule="evenodd" d="M134.171 54.8839C133.995 54.9722 133.803 55.0476 133.598 55.1083C133.363 55.1795 133.121 55.2154 132.88 55.2154C132.561 55.2154 132.323 55.165 132.193 55.0696C132.051 54.9662 132.021 54.7046 132.021 54.504V54.4469C132.021 54.2643 132.04 54.1025 132.078 53.9664C132.112 53.8472 132.174 53.7515 132.267 53.6738C132.366 53.5915 132.507 53.5262 132.686 53.4802C132.878 53.4319 133.131 53.407 133.44 53.407H134.171V54.8839ZM135.53 49.1671C134.963 48.6961 134.142 48.457 133.089 48.457C132.592 48.457 132.132 48.4814 131.721 48.5292C131.305 48.578 130.962 48.6295 130.672 48.6869C130.413 48.7407 130.264 48.9104 130.264 49.1523V50.0565C130.264 50.2253 130.317 50.3418 130.42 50.4033C130.495 50.448 130.587 50.4701 130.693 50.4701L130.785 50.4687C131.017 50.4415 131.35 50.4153 131.772 50.3919C132.198 50.3684 132.641 50.356 133.089 50.356C133.476 50.356 133.76 50.4223 133.933 50.5514C134.088 50.6683 134.171 50.9437 134.171 51.348V51.8079H133.445C132.818 51.8079 132.27 51.8622 131.816 51.9689C131.353 52.0783 130.967 52.2471 130.669 52.4693C130.365 52.6955 130.14 52.9788 130 53.3105C129.863 53.6347 129.794 54.0169 129.794 54.4469V54.504C129.794 55.0136 129.874 55.4367 130.032 55.7618C130.191 56.0898 130.399 56.3551 130.652 56.5501C130.903 56.7461 131.192 56.8817 131.511 56.9535C131.816 57.0224 132.127 57.0574 132.433 57.0574C132.791 57.0574 133.149 56.9995 133.499 56.8849C133.756 56.8003 134.016 56.6881 134.275 56.5506C134.289 56.6467 134.333 56.7346 134.407 56.8076C134.495 56.896 134.607 56.9434 134.728 56.9434H135.94C136.061 56.9434 136.173 56.896 136.262 56.8076C136.35 56.7184 136.398 56.6071 136.398 56.4857V51.3526C136.398 50.3817 136.106 49.6463 135.53 49.1671V49.1671Z" fill="#2B865E"/>
<path fill-rule="evenodd" clip-rule="evenodd" d="M144.352 55.2423H143.589C143.437 55.2423 143.354 55.2326 143.313 55.2244C143.279 55.2181 143.266 55.2047 143.257 55.1909C143.244 55.1725 143.222 55.1266 143.213 55.0286C143.204 54.9281 143.2 54.7911 143.2 54.6173V50.3161H144.323C144.446 50.3161 144.558 50.2693 144.646 50.1811C144.737 50.0914 144.784 49.9802 144.784 49.8584V49.0178C144.784 48.897 144.737 48.7858 144.646 48.6962C144.557 48.6079 144.446 48.5606 144.323 48.5606H143.2V47.2659C143.2 47.028 143.047 46.88 142.801 46.88L141.383 47.1129C141.283 47.1387 141.193 47.1837 141.116 47.248C141.02 47.3284 140.97 47.4383 140.97 47.5646V48.5606H139.8C139.679 48.5606 139.567 48.6079 139.478 48.6966C139.389 48.7858 139.342 48.897 139.342 49.0178V49.6594C139.342 49.7872 139.393 49.897 139.489 49.976C139.565 50.04 139.656 50.0859 139.775 50.1149L140.97 50.2922V54.6173C140.97 55.1054 141.015 55.5121 141.105 55.826C141.2 56.156 141.351 56.4157 141.556 56.5977C141.759 56.7796 142.025 56.9037 142.344 56.9657C142.645 57.0246 143.004 57.0549 143.413 57.0549C143.582 57.0549 143.75 57.0448 143.911 57.0246C144.071 57.0057 144.238 56.9818 144.411 56.9529C144.787 56.8932 144.827 56.6349 144.827 56.526V55.6284C144.827 55.5379 144.793 55.2423 144.352 55.2423L144.352 55.2423Z" fill="#2B865E"/>
<path fill-rule="evenodd" clip-rule="evenodd" d="M150.243 51.893C150.261 51.4276 150.388 51.068 150.621 50.8232C150.874 50.557 151.193 50.4278 151.594 50.4278C151.993 50.4278 152.306 50.5583 152.55 50.8274C152.776 51.0767 152.899 51.4349 152.916 51.893H150.243ZM154.235 49.5281C153.933 49.1859 153.555 48.9192 153.111 48.7339C152.67 48.5504 152.157 48.457 151.587 48.457C151.027 48.457 150.517 48.5481 150.071 48.726C149.623 48.9059 149.241 49.1653 148.935 49.4964C148.63 49.8266 148.396 50.2309 148.237 50.6986C148.079 51.1599 148 51.6823 148 52.2509V53.3059C148 54.033 148.118 54.6466 148.352 55.1276C148.585 55.6096 148.887 55.9992 149.249 56.2857C149.608 56.5704 150.006 56.7728 150.43 56.8877C150.848 57.0004 151.249 57.0574 151.623 57.0574C151.948 57.0574 152.233 57.0524 152.478 57.0428C152.723 57.033 152.949 57.0188 153.157 56.9995C153.364 56.9802 153.569 56.9562 153.771 56.9269C153.975 56.8983 154.192 56.8597 154.413 56.8128C154.602 56.7861 154.724 56.7217 154.787 56.615C154.837 56.5304 154.86 56.4181 154.86 56.2718V55.3309C154.86 55.1626 154.781 55.0715 154.716 55.0255C154.639 54.9722 154.543 54.9446 154.431 54.9446L154.372 54.9455C154.07 54.9731 153.688 55.0044 153.228 55.0375C152.773 55.0701 152.281 55.0871 151.765 55.0871C151.45 55.0871 151.19 55.0375 150.993 54.9405C150.796 54.8443 150.64 54.7187 150.528 54.5665C150.415 54.4101 150.336 54.235 150.294 54.0454C150.26 53.8964 150.239 53.7455 150.231 53.5782H154.689C154.796 53.5782 155.146 53.5399 155.146 53.0497V52.2509C155.146 51.703 155.068 51.193 154.916 50.7354C154.762 50.2732 154.533 49.867 154.235 49.5281L154.235 49.5281Z" fill="#2B865E"/>
<path fill-rule="evenodd" clip-rule="evenodd" d="M171.419 52.2594L171.418 52.2589C171.263 52.0079 171.047 51.7624 170.779 51.5288C170.514 51.2985 170.179 51.069 169.781 50.8461L168.069 49.8898C167.845 49.7688 167.659 49.6572 167.514 49.5575C167.373 49.4608 167.262 49.3666 167.18 49.2769C167.107 49.196 167.057 49.116 167.031 49.0393C167.004 48.9574 166.99 48.8678 166.99 48.7731C166.99 48.5045 167.082 48.3046 167.27 48.1621C167.472 48.0104 167.823 47.9336 168.314 47.9336C168.769 47.9336 169.236 47.945 169.702 47.9685C170.156 47.9919 170.628 48.0279 171.105 48.0747L171.151 48.0756C171.309 48.0756 171.405 48.0062 171.458 47.9474C171.528 47.8683 171.566 47.7649 171.566 47.6471V46.5925C171.566 46.4344 171.496 46.3383 171.437 46.2859C171.368 46.2243 171.281 46.1796 171.176 46.1539C171.048 46.124 170.877 46.0951 170.661 46.0647C170.451 46.0366 170.217 46.0077 169.959 45.9792C169.699 45.9503 169.434 45.9287 169.165 45.9144C168.133 45.8579 167.307 45.913 166.676 46.0996C166.203 46.2385 165.812 46.4399 165.514 46.6968C165.213 46.9575 164.993 47.2706 164.859 47.6296C164.73 47.9805 164.664 48.3653 164.664 48.7731C164.664 49.0301 164.691 49.2848 164.746 49.5303C164.802 49.7785 164.9 50.0209 165.038 50.2516C165.173 50.4774 165.356 50.6985 165.581 50.909C165.802 51.1156 166.088 51.3237 166.429 51.5288L168.311 52.6547C168.544 52.7945 168.735 52.9181 168.883 53.0248C169.026 53.1274 169.141 53.2272 169.227 53.3214C169.306 53.4078 169.361 53.4956 169.392 53.5821C169.423 53.6736 169.439 53.782 169.439 53.9034C169.439 54.2754 169.342 54.5465 169.144 54.7327C168.946 54.919 168.546 55.0137 167.958 55.0137C167.826 55.0137 167.651 55.0091 167.43 54.9999C167.208 54.9903 166.974 54.9788 166.728 54.9644L166.009 54.9218C165.781 54.9076 165.598 54.8923 165.458 54.873L165.406 54.8717C165.285 54.8717 165.177 54.9158 165.093 54.9999C165.008 55.0845 164.963 55.1931 164.963 55.3149V56.3409C164.963 56.4661 165.01 56.5746 165.098 56.6532C165.17 56.7194 165.26 56.7667 165.369 56.7943C165.718 56.8716 166.098 56.935 166.498 56.9819C166.902 57.0306 167.383 57.055 167.929 57.055C168.659 57.055 169.281 56.9625 169.778 56.7805C170.278 56.5976 170.686 56.3544 170.993 56.0588C171.301 55.7604 171.524 55.416 171.656 55.0362C171.785 54.6634 171.851 54.2818 171.851 53.9034C171.851 53.6064 171.818 53.3195 171.753 53.0511C171.687 52.7775 171.574 52.5113 171.419 52.2594V52.2594Z" fill="#2B865E"/>
<path fill-rule="evenodd" clip-rule="evenodd" d="M179.42 55.2423H178.657C178.505 55.2423 178.424 55.2326 178.382 55.2244C178.348 55.2181 178.335 55.2047 178.326 55.1909C178.314 55.1725 178.292 55.1266 178.283 55.0286C178.273 54.9281 178.27 54.7911 178.27 54.6173V50.3161H179.391C179.513 50.3161 179.625 50.2693 179.713 50.1811C179.804 50.0914 179.851 49.9802 179.851 49.8584V49.0178C179.851 48.897 179.804 48.7858 179.713 48.6962C179.624 48.6079 179.513 48.5606 179.391 48.5606H178.27V47.2659C178.27 47.028 178.117 46.88 177.87 46.88L176.456 47.1129C176.356 47.1387 176.266 47.1837 176.19 47.248C176.094 47.3284 176.043 47.4383 176.043 47.5646V48.5606H174.876C174.755 48.5606 174.644 48.6079 174.555 48.6966C174.466 48.7858 174.419 48.897 174.419 49.0178V49.6594C174.419 49.7872 174.47 49.897 174.566 49.976C174.641 50.04 174.732 50.0859 174.851 50.1149L176.043 50.2922V54.6173C176.043 55.1054 176.089 55.5121 176.178 55.826C176.273 56.156 176.424 56.4157 176.628 56.5977C176.831 56.7796 177.097 56.9037 177.415 56.9657C177.716 57.0246 178.074 57.0549 178.482 57.0549C178.651 57.0549 178.818 57.0448 178.98 57.0246C179.139 57.0057 179.306 56.9818 179.478 56.9529C179.854 56.8932 179.894 56.6349 179.894 56.526V55.6284C179.894 55.5379 179.86 55.2423 179.42 55.2423L179.42 55.2423Z" fill="#2B865E"/>
<path fill-rule="evenodd" clip-rule="evenodd" d="M187.864 53.3349C187.864 53.883 187.745 54.3209 187.512 54.6364C187.289 54.9395 186.961 55.0871 186.511 55.0871C186.06 55.0871 185.732 54.9395 185.509 54.6364C185.276 54.3209 185.158 53.883 185.158 53.3349V52.1795C185.158 51.6313 185.276 51.1935 185.509 50.878C185.732 50.5749 186.06 50.4278 186.511 50.4278C186.961 50.4278 187.289 50.5749 187.512 50.878C187.745 51.1935 187.864 51.6313 187.864 52.1795V53.3349ZM189.176 49.5263C188.876 49.196 188.498 48.9325 188.054 48.7421C187.61 48.5526 187.091 48.457 186.511 48.457C185.93 48.457 185.41 48.5526 184.967 48.7421C184.523 48.9321 184.146 49.1956 183.845 49.5263C183.546 49.8556 183.315 50.2521 183.161 50.7055C183.008 51.1526 182.931 51.6488 182.931 52.1795V53.3349C182.931 53.8656 183.008 54.3619 183.161 54.8089C183.315 55.2624 183.546 55.6593 183.845 55.9881C184.147 56.3197 184.524 56.5832 184.967 56.7728C185.409 56.9618 185.929 57.0574 186.511 57.0574C187.092 57.0574 187.611 56.9618 188.054 56.7728C188.498 56.5828 188.875 56.3193 189.176 55.9881C189.476 55.6593 189.706 55.2624 189.86 54.8089C190.013 54.36 190.091 53.8642 190.091 53.3349V52.1795C190.091 51.6502 190.013 51.1544 189.86 50.7055C189.706 50.2521 189.476 49.8556 189.176 49.5263Z" fill="#2B865E"/>
<path fill-rule="evenodd" clip-rule="evenodd" d="M198.855 48.6452C198.684 48.5952 198.444 48.5519 198.12 48.5123C197.799 48.4738 197.414 48.454 196.974 48.454C196.491 48.454 196.037 48.5299 195.626 48.6784C195.209 48.8292 194.843 49.0615 194.538 49.3674C194.232 49.6732 193.989 50.0578 193.815 50.5108C193.642 50.9611 193.554 51.4928 193.554 52.0917V53.4172C193.554 54.016 193.642 54.5477 193.815 54.998C193.989 55.451 194.232 55.8355 194.538 56.1409C194.843 56.4472 195.209 56.6795 195.627 56.8303C196.037 56.9793 196.491 57.0548 196.974 57.0548C197.414 57.0548 197.799 57.035 198.12 56.9964C198.447 56.9569 198.689 56.9126 198.85 56.8648C199.017 56.8267 199.129 56.765 199.194 56.6763C199.254 56.593 199.283 56.4785 199.283 56.3262V55.3995C199.283 55.2311 199.204 55.1406 199.139 55.0941C199.061 55.0403 198.966 55.0127 198.854 55.0127L198.788 55.014C198.647 55.0334 198.515 55.05 198.393 55.0641C198.275 55.0775 198.151 55.0872 198.022 55.0913L197.568 55.1056C197.398 55.1107 197.2 55.113 196.974 55.113C196.824 55.113 196.676 55.0872 196.533 55.0371C196.397 54.9888 196.278 54.9083 196.167 54.7896C196.057 54.671 195.963 54.5008 195.891 54.2823C195.817 54.0601 195.779 53.769 195.779 53.4172V52.0917C195.779 51.7398 195.817 51.4486 195.891 51.226C195.963 51.0089 196.057 50.8383 196.167 50.7192C196.278 50.6004 196.397 50.5199 196.533 50.4717C196.888 50.347 197.285 50.3954 197.568 50.4031L198.022 50.4174C198.15 50.422 198.274 50.4313 198.393 50.4455C198.516 50.4588 198.648 50.4759 198.789 50.4947L198.854 50.4961C198.966 50.4961 199.062 50.4685 199.139 50.4151C199.204 50.3692 199.283 50.2781 199.283 50.1097V49.1825C199.283 49.0303 199.254 48.9157 199.193 48.8316C199.129 48.7442 199.019 48.6834 198.855 48.6452H198.855Z" fill="#2B865E"/>
<path fill-rule="evenodd" clip-rule="evenodd" d="M206.916 52.5578L209.697 49.1369C209.76 49.0581 209.792 48.974 209.792 48.8865C209.792 48.7269 209.69 48.5566 209.406 48.5566H207.81C207.74 48.5566 207.667 48.5723 207.584 48.6045C207.491 48.6404 207.409 48.7057 207.344 48.7973L205.217 51.6353V46.2051C205.217 46.0835 205.17 45.9722 205.081 45.8829C204.992 45.7941 204.881 45.7472 204.76 45.7472H203.448C203.327 45.7472 203.216 45.7941 203.127 45.8829C203.038 45.9722 202.991 46.0835 202.991 46.2051V56.4743C202.991 56.5949 203.034 56.7034 203.122 56.7982C203.211 56.8953 203.324 56.9468 203.448 56.9468H204.76C204.884 56.9468 204.997 56.8953 205.086 56.7982C205.173 56.7034 205.217 56.5949 205.217 56.4743V53.7914L207.142 56.5894C207.198 56.6685 207.272 56.7443 207.359 56.8152C207.465 56.9026 207.578 56.9468 207.696 56.9468H209.434C209.532 56.9468 209.621 56.9146 209.691 56.8535C209.766 56.7872 209.806 56.7003 209.806 56.6031C209.806 56.5419 209.785 56.4775 209.73 56.3864L206.916 52.5578Z" fill="#2B865E"/>
<path fill-rule="evenodd" clip-rule="evenodd" d="M218.999 54.0947C218.968 53.896 218.896 53.695 218.787 53.4972C218.68 53.304 218.529 53.1095 218.338 52.9186C218.149 52.7295 217.899 52.5391 217.594 52.3528L215.725 51.2131C215.554 51.1139 215.421 51.0236 215.331 50.9459C215.251 50.8778 215.241 50.8176 215.241 50.7786C215.241 50.5748 215.326 50.5026 215.39 50.4657C215.479 50.4142 215.667 50.3531 216.052 50.3531C216.248 50.3531 216.46 50.3605 216.689 50.3742L217.365 50.417C217.579 50.4313 217.775 50.4501 217.952 50.4731C218.135 50.4975 218.28 50.514 218.402 50.5241H218.459C218.652 50.5241 218.859 50.4078 218.859 50.0803V49.2455C218.859 48.9944 218.723 48.8178 218.465 48.7455C218.284 48.7073 218.102 48.6706 217.92 48.6365C217.738 48.6029 217.546 48.5717 217.344 48.5427C217.14 48.5133 216.919 48.4912 216.681 48.4761C216.446 48.4617 216.183 48.454 215.895 48.454C213.985 48.454 213.017 49.2303 213.017 50.7611C213.017 51.2113 213.139 51.6234 213.38 51.9872C213.615 52.3437 213.923 52.6408 214.296 52.8717L216.245 54.0662C216.459 54.1995 216.609 54.3136 216.693 54.4055C216.759 54.4783 216.791 54.5564 216.791 54.6453C216.791 54.7235 216.781 54.7984 216.761 54.8692C216.747 54.9226 216.718 54.9658 216.672 55.0058C216.622 55.0486 216.543 55.0845 216.437 55.1107C216.319 55.1411 216.155 55.1558 215.952 55.1558C215.849 55.1558 215.7 55.1507 215.504 55.1415C215.306 55.1323 215.093 55.1204 214.866 55.1061C214.639 55.0918 214.41 55.0753 214.179 55.0564C213.948 55.0375 213.748 55.0186 213.559 54.999H213.502C213.345 54.999 213.249 55.0684 213.195 55.1276C213.124 55.2081 213.088 55.2997 213.088 55.4V56.2638C213.088 56.5158 213.229 56.6929 213.482 56.7601C213.688 56.8193 213.916 56.8672 214.162 56.9021C214.401 56.9362 214.641 56.9648 214.881 56.9891C215.121 57.0135 215.345 57.0301 215.552 57.0402C215.759 57.0499 215.935 57.0549 216.08 57.0549C216.561 57.0549 216.99 56.9946 217.358 56.8755C217.729 56.7555 218.044 56.5862 218.293 56.3728C218.545 56.1575 218.736 55.8986 218.859 55.6047C218.982 55.3145 219.044 54.9976 219.044 54.6628C219.044 54.4723 219.029 54.2809 218.999 54.0947L218.999 54.0947Z" fill="#2B865E"/>
</svg>
