<svg width="284" height="79" viewBox="0 0 284 79" fill="none" xmlns="http://www.w3.org/2000/svg">
<path fill-rule="evenodd" clip-rule="evenodd" d="M23.0492 39.3668C23.0492 42.2499 23.0564 44.9842 23.0418 47.7178C23.0395 48.1387 23.3165 48.2562 23.5996 48.407C29.2515 51.4143 34.9069 54.4155 40.5508 57.4381C41.1589 57.7637 41.248 57.5885 41.2428 56.9923C41.2215 54.5789 41.2112 52.1645 41.2506 49.7514C41.2603 49.1709 41.0346 48.9099 40.5591 48.6607C37.2858 46.9428 34.0261 45.1988 30.7614 43.4636C28.2356 42.1211 25.7093 40.7796 23.0492 39.3668L23.0492 39.3668ZM23.1138 53.7306C23.0825 53.9142 23.0519 54.012 23.0519 54.1095C23.0486 57.1433 23.0577 60.1769 23.0383 63.2104C23.0354 63.64 23.2365 63.8162 23.5718 63.994C29.2328 66.9982 34.8918 70.0058 40.5405 73.0322C41.1114 73.3382 41.2496 73.2595 41.2441 72.6136C41.2205 69.7947 41.2157 66.9756 41.249 64.157C41.2561 63.5703 41.0846 63.2604 40.5572 62.9828C35.5734 60.3618 30.6056 57.7102 25.6331 55.0675C24.8114 54.6308 23.9892 54.1951 23.1138 53.7306V53.7306ZM20.5913 5.72211C17.8518 5.72211 15.112 5.73627 12.3726 5.70981C11.8213 5.70467 11.6347 5.84088 11.648 6.41704C11.6864 8.07871 11.6764 9.74201 11.6515 11.4043C11.6451 11.8314 11.7613 12.0744 12.1538 12.2839C17.7789 15.2832 23.3975 18.2951 29.0084 21.3208C29.5381 21.6068 29.6688 21.5448 29.6666 20.9306C29.6488 16.1037 29.644 11.2768 29.6721 6.44996C29.6759 5.81699 29.4658 5.7037 28.8903 5.70948C26.1244 5.73725 23.3578 5.7221 20.5913 5.7221L20.5913 5.72211ZM11.6615 17.6346V18.7243C11.6615 38.4827 11.657 58.2411 11.6787 77.9995C11.6793 78.7477 11.5425 78.9953 10.7329 78.982C7.53417 78.9288 4.33413 78.9456 1.13466 78.973C0.538797 78.9782 0.336468 78.8262 0.361918 78.2106C0.411018 77.0315 0.401378 75.8479 0.364538 74.6678C0.349038 74.1636 0.510048 74.0296 1.00138 74.0386C2.56043 74.0674 4.12009 74.0493 5.67942 74.0493C6.76621 74.0489 6.76621 74.0489 6.76621 72.9225C6.76621 49.2446 6.76621 25.5667 6.76621 1.88907C6.76621 0.7674 6.76655 0.7674 7.85657 0.7674C16.4878 0.7674 25.1186 0.77613 33.7498 0.75063C34.4334 0.74868 34.581 0.93525 34.5787 1.59404C34.5541 8.896 34.5709 16.1979 34.5486 23.4999C34.5467 24.0932 34.7323 24.3927 35.2552 24.6677C38.6493 26.4517 42.0168 28.2861 45.4096 30.073C45.9702 30.3683 46.191 30.6937 46.1897 31.3544C46.1668 45.2602 46.1804 59.1662 46.1523 73.0722C46.1506 73.8812 46.3337 74.1165 47.1516 74.07C48.4915 73.9935 49.8394 74.0657 51.1834 74.04C51.6338 74.0316 51.7935 74.1584 51.7832 74.6245C51.7548 75.8856 51.7606 77.148 51.7806 78.4094C51.7871 78.8329 51.6312 78.9675 51.217 78.9659C48.0173 78.9546 44.8176 78.9585 41.6181 78.9607C41.2527 78.961 40.9471 78.8094 40.6363 78.6437C33.322 74.7514 26.0076 70.8599 18.6875 66.9785C18.3001 66.7732 18.0842 66.5763 18.0849 66.076C18.1033 54.5595 18.0998 43.0427 18.101 31.5258C18.101 31.4461 18.1145 31.3667 18.1226 31.2773C18.4499 31.2366 18.6755 31.4612 18.9244 31.5933C26.0769 35.3895 33.2256 39.1935 40.3752 42.9955C41.2308 43.4506 41.2334 43.449 41.2338 42.4678C41.2347 39.6757 41.226 36.884 41.2421 34.092C41.2447 33.6436 41.133 33.3712 40.7053 33.1426C31.1969 28.065 21.6974 22.9699 12.1957 17.8796C12.0598 17.8067 11.9149 17.7502 11.6615 17.6346L11.6615 17.6346Z" fill="white"/>
<path fill-rule="evenodd" clip-rule="evenodd" d="M78.5367 39.4918H79.8278C80.008 39.4918 80.1679 39.4282 80.2887 39.3075C80.41 39.186 80.4742 39.0326 80.4742 38.8631V37.4249C80.4742 37.2435 80.41 37.0842 80.2892 36.9628C80.1679 36.8416 80.008 36.7778 79.8278 36.7778H78.5367C78.3708 36.7778 78.2191 36.8367 78.0871 36.9521C77.9456 37.0735 77.8712 37.2371 77.8712 37.4249V38.8631C77.8712 39.0392 77.9456 39.1962 78.0859 39.3164C78.2191 39.433 78.3708 39.4918 78.5367 39.4918Z" fill="white"/>
<path fill-rule="evenodd" clip-rule="evenodd" d="M75.1291 39.4918H76.4003C76.5626 39.4918 76.7153 39.4347 76.8544 39.3218C77.0047 39.1998 77.0838 39.0416 77.0838 38.8631V37.4249C77.0838 37.2377 77.0095 37.0746 76.8693 36.9527C76.7355 36.8367 76.5781 36.7778 76.4003 36.7778H75.1291C74.949 36.7778 74.7921 36.838 74.6643 36.9575C74.5329 37.0788 74.464 37.2406 74.464 37.4249V38.8631C74.464 39.0356 74.5329 39.1909 74.6637 39.3121C74.7921 39.4319 74.949 39.4918 75.1291 39.4918Z" fill="white"/>
<path fill-rule="evenodd" clip-rule="evenodd" d="M75.8658 45.293C75.8658 44.6435 76.0447 44.1779 76.4127 43.8702C76.7871 43.5557 77.3274 43.3971 78.0198 43.3971C78.1286 43.3971 78.2837 43.4006 78.4828 43.406C78.5589 43.4083 78.6248 43.4113 78.6813 43.4144V46.6565C78.6813 46.8609 78.6076 46.994 78.4418 47.0904C78.2444 47.2052 77.9538 47.2633 77.5776 47.2633H77.3012C76.8037 47.2633 76.437 47.1391 76.2123 46.8925C75.9829 46.6429 75.8658 46.1911 75.8658 45.551L75.8658 45.293ZM105.764 50.1583C106.005 50.1316 106.194 50.0996 106.369 50.0497C106.561 49.9694 106.694 49.869 106.775 49.7429C106.845 49.6343 106.896 49.5022 106.928 49.3347C106.967 48.9983 106.988 48.5661 106.994 48.0135C107 47.4784 107.003 46.8175 107.003 46.0301V44.3165C107.003 44.0442 107 43.7579 106.994 43.4554C106.988 43.1534 106.979 42.8064 106.965 42.3897C106.946 42.2458 106.89 42.1217 106.797 42.0193C106.693 41.9047 106.538 41.8458 106.338 41.8458H104.791C104.622 41.8458 104.475 41.9035 104.366 42.0123C104.257 42.1217 104.199 42.2619 104.199 42.4254C104.224 43.3073 104.236 44.1281 104.236 44.8877V47.0803C104.236 47.3401 104.195 47.4125 104.2 47.4125C104.181 47.4226 104.077 47.4654 103.723 47.4654H102.913H102.561H98.9517H98.5999H94.9903H94.6385H91.0296H90.6771H87.0682H86.7164H83.1068H82.755H82.3865C81.9401 47.4654 81.7261 47.3858 81.6257 47.318C81.511 47.2425 81.4486 47.0268 81.4486 46.7118V41.6634C81.4486 41.5165 81.4147 41.397 81.3487 41.3085C81.2798 41.217 81.1597 41.1498 80.9767 41.0993C80.6795 41.0101 80.2718 40.9395 79.7642 40.8889C79.2578 40.8389 78.758 40.814 78.2777 40.814C76.6058 40.814 75.3107 41.2408 74.4287 42.083C73.5461 42.9282 73.0985 44.1191 73.0985 45.6246V45.9932C73.0985 46.6826 73.2037 47.2884 73.4106 47.7917C73.618 48.2998 73.9074 48.7237 74.2676 49.0505C74.6278 49.3786 75.0563 49.6211 75.5402 49.7715C76.0138 49.9183 76.5267 49.9933 77.0617 49.9933H77.3012C77.7517 49.9933 78.1987 49.9248 78.6302 49.7898C78.9713 49.6825 79.2637 49.5356 79.5033 49.3506C79.7273 49.6485 80.0245 49.8713 80.3889 50.0141C80.8174 50.184 81.3713 50.2696 82.0364 50.2696H82.755H83.1068H86.7164H87.0682H90.6771H91.0296H94.6385H94.9903H98.5999H98.9517H102.561H102.913H103.317C103.564 50.2696 103.835 50.2666 104.132 50.2601C104.43 50.2548 104.719 50.2416 104.999 50.2232C105.279 50.2047 105.533 50.1828 105.764 50.1583Z" fill="white"/>
<path fill-rule="evenodd" clip-rule="evenodd" d="M106.745 51.4235H105.548C105.371 51.4235 105.214 51.4823 105.081 51.5972C104.941 51.7183 104.866 51.8824 104.866 52.0702V53.5445C104.866 53.6581 104.903 53.8257 105.081 53.9808C105.215 54.0962 105.372 54.1544 105.548 54.1544H106.745C106.912 54.1544 107.062 54.0948 107.192 53.9742C107.356 53.8203 107.391 53.6551 107.391 53.5445V52.0702C107.391 51.8866 107.322 51.7249 107.191 51.6024C107.063 51.4841 106.913 51.4235 106.745 51.4235H106.745Z" fill="white"/>
<path fill-rule="evenodd" clip-rule="evenodd" d="M103.392 51.4235H102.191C102.009 51.4235 101.849 51.4877 101.728 51.6084C101.606 51.7296 101.542 51.8895 101.542 52.0702V53.5445C101.542 53.7003 101.606 53.8477 101.728 53.9707C101.85 54.0908 102.01 54.1544 102.191 54.1544H103.392C103.554 54.1544 103.707 54.0974 103.848 53.9844C104.038 53.8298 104.078 53.6599 104.078 53.5445V52.0702C104.078 51.8824 104.003 51.7183 103.862 51.5976C103.728 51.4823 103.571 51.4235 103.392 51.4235V51.4235Z" fill="white"/>
<path fill-rule="evenodd" clip-rule="evenodd" d="M112.419 41.902H110.815C110.646 41.902 110.5 41.9596 110.391 42.0678C110.282 42.1773 110.223 42.3175 110.223 42.4752V51.0636C110.223 51.3413 110.194 51.5594 110.136 51.7128C110.085 51.8477 110.016 51.9422 109.927 52.0016C109.826 52.0689 109.7 52.1124 109.55 52.1325C109.377 52.1557 109.176 52.1676 108.953 52.1676H108.768C108.345 52.1676 108.195 52.4351 108.195 52.6854V54.0308C108.195 54.337 108.376 54.5445 108.692 54.6003C108.836 54.6266 108.991 54.6431 109.155 54.6497C109.313 54.6564 109.436 54.6593 109.524 54.6593C110.186 54.6593 110.782 54.5654 111.297 54.3786C111.84 54.1819 112.272 53.7829 112.582 53.1908C112.778 52.8002 112.897 52.3829 112.937 51.95C112.974 51.5381 112.993 51.0843 112.993 50.6028V42.4752C112.993 42.3181 112.936 42.1785 112.826 42.0684C112.716 41.9596 112.576 41.902 112.419 41.902L112.419 41.902Z" fill="white"/>
<path fill-rule="evenodd" clip-rule="evenodd" d="M137.81 39.3976H139.101C139.285 39.3976 139.44 39.3358 139.563 39.2127C139.684 39.0902 139.748 38.9379 139.748 38.7691V37.3311C139.748 37.151 139.684 36.9917 139.563 36.8691C139.44 36.7466 139.285 36.6848 139.101 36.6848H137.81C137.645 36.6848 137.493 36.7431 137.359 36.8595C137.219 36.9821 137.145 37.145 137.145 37.3311V38.7691C137.145 38.9433 137.219 39.1003 137.359 39.2233C137.493 39.3388 137.645 39.3976 137.81 39.3976H137.81Z" fill="white"/>
<path fill-rule="evenodd" clip-rule="evenodd" d="M134.404 39.3976H135.675C135.837 39.3976 135.99 39.3405 136.127 39.2282C136.278 39.1063 136.357 38.9474 136.357 38.7691V37.3311C136.357 37.1445 136.283 36.9809 136.143 36.8595C136.01 36.7431 135.852 36.6848 135.675 36.6848H134.404C134.222 36.6848 134.066 36.7449 133.938 36.8638C133.808 36.9857 133.739 37.1474 133.739 37.3311V38.7691C133.739 38.9415 133.808 39.0961 133.938 39.218C134.066 39.3376 134.222 39.3976 134.404 39.3976Z" fill="white"/>
<path fill-rule="evenodd" clip-rule="evenodd" d="M138.008 43.3227V47.5391H136.832C136.204 47.5391 135.75 47.3744 135.483 47.0494C135.205 46.7117 135.064 46.2006 135.064 45.5325V45.2008C135.064 43.8951 135.69 43.2864 137.034 43.2864C137.377 43.2864 137.703 43.2989 138.008 43.3227V43.3227ZM165.314 45.0166V45.183C165.314 45.4712 165.282 45.7548 165.218 46.0253C165.157 46.2892 165.061 46.5262 164.933 46.7326C164.807 46.9365 164.648 47.1112 164.461 47.2532C164.287 47.3875 164.078 47.4773 163.841 47.5206H163.09L161.575 43.6907C161.857 43.5289 162.15 43.4238 162.449 43.3757C162.822 43.3168 163.148 43.2864 163.418 43.2864C164.036 43.2864 164.514 43.4261 164.84 43.703C165.154 43.97 165.314 44.4128 165.314 45.0166H165.314ZM181.014 35.8024H179.337C179.18 35.8024 179.036 35.8636 178.921 35.9778C178.807 36.0936 178.745 36.2434 178.745 36.4122V47.0803C178.745 47.3406 178.707 47.4154 178.713 47.4154C178.698 47.4237 178.598 47.4654 178.25 47.4654H177.349H176.997H173.388H173.036H169.426H169.075H167.427C167.454 47.4256 167.481 47.3834 167.507 47.3393C167.632 47.1284 167.738 46.8931 167.821 46.6416C167.904 46.392 167.969 46.1281 168.014 45.8589C168.059 45.5895 168.081 45.3228 168.081 45.0648V44.6583C168.081 43.9504 167.96 43.3371 167.718 42.8342C167.476 42.3296 167.137 41.9159 166.708 41.6051C166.288 41.3002 165.787 41.0767 165.22 40.9412C164.347 40.7308 163.35 40.6613 162.276 40.8354C161.885 40.8991 161.503 40.9887 161.141 41.1011C160.779 41.214 160.429 41.3478 160.1 41.4999C159.767 41.6537 159.48 41.8245 159.235 42.0157C159.114 42.1234 159.021 42.2178 158.953 42.2987C158.865 42.405 158.811 42.5311 158.792 42.6916L158.758 43.5986C158.742 43.6841 158.741 43.7886 158.756 43.9182C158.772 44.052 158.807 44.1661 158.843 44.2214L160.107 47.4654H158.224H157.872H154.263H153.911H150.301H149.95H146.341H145.988H142.379H142.027H140.776V41.6265C140.776 41.4844 140.745 41.3655 140.682 41.271C140.613 41.1688 140.492 41.0963 140.29 41.0411C140.126 41.003 139.924 40.965 139.685 40.9275C139.448 40.8901 139.197 40.8556 138.93 40.8247C138.66 40.7937 138.382 40.7717 138.094 40.7587C137.006 40.713 136.083 40.7683 135.265 41.0173C134.655 41.2032 134.124 41.4808 133.686 41.8416C133.243 42.2065 132.897 42.6677 132.657 43.2134C132.418 43.7549 132.297 44.3867 132.297 45.0903V45.4404C132.297 45.9914 132.366 46.4711 132.502 46.8675C132.579 47.0903 132.675 47.2895 132.787 47.4654H131.563H131.212H127.602H127.251H123.641H123.289H119.68H119.328H118.849C118.474 47.4654 118.284 47.3983 118.191 47.3411C118.156 47.3198 118.04 47.2139 118.04 46.7486V36.3938C118.04 36.244 117.99 36.1055 117.896 35.9932C117.824 35.9059 117.687 35.8024 117.449 35.8024H115.809C115.639 35.8024 115.488 35.8636 115.375 35.9778C115.26 36.0936 115.199 36.2374 115.199 36.3938V47.4487C115.199 48.014 115.269 48.4841 115.407 48.846C115.551 49.2199 115.761 49.5189 116.03 49.7329C116.296 49.9445 116.619 50.0894 116.99 50.1631C117.34 50.2344 117.736 50.2695 118.167 50.2695H119.328H119.68H123.289H123.641H127.251H127.602H131.212H131.563H142.027H142.379H145.988H146.341H149.95H150.301H153.911H154.263H157.872H158.224H169.075H169.426H173.036H173.388H176.997H177.349H177.808C178.055 50.2695 178.329 50.2665 178.632 50.26C178.936 50.2546 179.231 50.2416 179.517 50.2231C179.803 50.2048 180.067 50.1827 180.309 50.1583C180.562 50.1317 180.758 50.0995 180.934 50.0496C181.126 49.9694 181.259 49.869 181.339 49.743C181.41 49.6342 181.461 49.5023 181.493 49.3346C181.53 49.0006 181.555 48.6255 181.568 48.2203C181.58 47.8184 181.586 47.4511 181.586 47.1171V36.4122C181.586 36.2469 181.532 36.0996 181.426 35.9848C181.316 35.866 181.174 35.8024 181.014 35.8024H181.014Z" fill="white"/>
<path fill-rule="evenodd" clip-rule="evenodd" d="M186.225 35.8047H184.567C184.394 35.8047 184.245 35.8683 184.135 35.9878C184.031 36.1019 183.976 36.2433 183.976 36.3961V49.6594C183.976 49.8109 184.028 49.9494 184.129 50.07C184.239 50.2001 184.39 50.269 184.567 50.269H186.225C186.402 50.269 186.553 50.2007 186.663 50.07C186.765 49.9494 186.817 49.8108 186.817 49.6594V36.3961C186.817 36.2433 186.761 36.1019 186.657 35.9871C186.547 35.8683 186.398 35.8047 186.225 35.8047V35.8047Z" fill="white"/>
<path fill-rule="evenodd" clip-rule="evenodd" d="M198.021 45.3774C198.021 44.6998 198.147 44.2035 198.394 43.9033C198.631 43.6163 199.038 43.4707 199.604 43.4707C200.156 43.4707 200.549 43.6151 200.774 43.8992C201.011 44.2011 201.131 44.698 201.131 45.3774V46.222C201.131 46.5791 201.1 46.8739 201.038 47.098C200.981 47.3049 200.892 47.4689 200.773 47.5865C200.654 47.7061 200.499 47.7911 200.31 47.8416C200.105 47.8975 199.854 47.926 199.567 47.926C198.979 47.926 198.574 47.7881 198.361 47.5165C198.136 47.2275 198.021 46.7479 198.021 46.093V45.3774ZM229.251 50.2623C229.599 50.2493 229.945 50.2302 230.289 50.2048C230.709 50.1731 231.069 50.125 231.359 50.0621C231.687 49.9949 231.986 49.9094 232.252 49.8064C232.247 49.8664 232.244 49.9278 232.241 49.9901C232.235 50.1874 232.226 50.3586 232.214 50.5114C232.191 51.1883 232.079 51.6871 231.882 51.9925C231.705 52.2653 231.334 52.4032 230.779 52.4032C230.195 52.4032 229.795 52.2541 229.589 51.9592C229.364 51.6388 229.251 51.1124 229.251 50.3943V50.2623ZM232.177 45.3482C232.177 46.0187 232.025 46.5518 231.727 46.9333C231.441 47.2989 230.887 47.4844 230.078 47.4844H229.269V43.4065C229.369 43.3953 229.466 43.3852 229.561 43.3781C229.716 43.366 229.907 43.3602 230.134 43.3602C230.785 43.3602 231.3 43.4868 231.666 43.7358C232.005 43.967 232.177 44.4223 232.177 45.0903L232.177 45.3482ZM265.41 43.0968C265.403 42.7396 265.394 42.3581 265.382 41.958C265.382 41.8047 265.329 41.6668 265.231 41.5593C265.126 41.444 264.97 41.3851 264.771 41.3851H263.206C263.029 41.3851 262.88 41.4511 262.777 41.5759C262.683 41.6888 262.633 41.8208 262.633 41.964C262.645 42.4056 262.654 42.8585 262.661 43.3245C262.666 43.7904 262.669 44.2505 262.669 44.7034V47.1724C262.669 47.4171 262.633 47.4903 262.641 47.4908C262.616 47.5022 262.506 47.5391 262.155 47.5391H261.732C261.499 47.5391 261.255 47.5212 261.008 47.4867C260.9 47.4706 260.766 47.4368 260.702 47.3643V42.6583C260.702 42.499 260.639 42.3569 260.519 42.2446C260.404 42.1406 260.263 42.0859 260.11 42.0859H258.563C258.409 42.0859 258.268 42.1406 258.154 42.2457C258.034 42.3556 257.971 42.4983 257.971 42.6583V47.1539C257.971 47.2383 257.956 47.3007 257.925 47.3406C257.887 47.3898 257.837 47.4284 257.772 47.457C257.697 47.4898 257.611 47.5117 257.517 47.5218C257.408 47.5337 257.302 47.5391 257.199 47.5391H256.922C256.84 47.5391 256.743 47.5361 256.631 47.5308C256.526 47.5248 256.424 47.5111 256.327 47.489C256.23 47.4677 256.139 47.4385 256.053 47.4012C256.031 47.391 256.005 47.3774 255.985 47.3602V43.3215C255.985 43.1562 255.93 43.0089 255.824 42.8942C255.715 42.7752 255.572 42.7117 255.411 42.7117H253.846C253.689 42.7117 253.545 42.7729 253.43 42.8871C253.315 43.0029 253.254 43.1527 253.254 43.3215V47.0617C253.254 47.2882 253.167 47.3452 253.073 47.3733C252.868 47.435 252.657 47.4653 252.446 47.4653H252.208H251.856H248.246H247.895H244.286H243.933H240.324H239.973H236.363H236.011H235.385C235.159 47.4653 234.94 47.4719 234.727 47.4848C234.661 47.4879 234.595 47.4939 234.53 47.5015C234.603 47.3345 234.664 47.1645 234.714 46.9945C234.804 46.6879 234.868 46.3592 234.904 46.0299C234.931 45.87 234.944 45.6923 234.944 45.4861V44.9797C234.944 44.2653 234.829 43.6376 234.604 43.1135C234.374 42.5834 234.038 42.1447 233.605 41.8095C233.178 41.4795 232.661 41.2341 232.069 41.0789C231.103 40.8276 229.887 40.8139 228.662 40.9067C228.157 40.9447 227.686 41.0344 227.262 41.1753C227.052 41.246 226.879 41.337 226.748 41.4457C226.585 41.5819 226.502 41.7791 226.502 42.0318V47.4653H225.216H224.864H221.254H220.903H217.293H216.941H213.332H212.98H209.371H209.019H205.409H205.058H204.744C204.668 47.4653 204.578 47.4569 204.475 47.4404C204.37 47.4237 204.269 47.3994 204.17 47.3661C204.081 47.3369 204.002 47.2971 203.933 47.2483C203.898 47.2228 203.871 47.1931 203.85 47.1574C203.882 46.9054 203.898 46.6255 203.898 46.3248V45.164C203.898 43.7554 203.512 42.6778 202.75 41.9616C201.992 41.249 200.94 40.8875 199.622 40.8875C198.318 40.8875 197.253 41.2579 196.459 41.9878C195.659 42.723 195.254 43.8035 195.254 45.2008V46.2142C195.254 46.4187 195.266 46.6386 195.292 46.8733C195.304 46.991 195.32 47.0968 195.34 47.1919C194.733 47.265 194.238 47.5045 193.867 47.9057C193.442 48.3639 193.227 49.0594 193.227 49.973V54.4691C193.227 54.6261 193.285 54.7669 193.394 54.8751C193.503 54.9845 193.643 55.0415 193.8 55.0415H195.384C195.552 55.0415 195.699 54.9845 195.81 54.8751C195.918 54.7664 195.975 54.6254 195.975 54.4691V50.2308C195.975 49.8967 196.057 49.7982 196.091 49.7719C196.141 49.7339 196.265 49.6721 196.556 49.6626C196.923 49.9741 197.364 50.2035 197.867 50.3444C198.389 50.49 198.961 50.5642 199.567 50.5642C200.855 50.5642 201.841 50.2754 202.499 49.7053C202.822 49.9135 203.194 50.0578 203.606 50.1363C204.066 50.2248 204.505 50.2694 204.91 50.2694H205.058H205.409H209.019H209.371H212.98H213.332H216.941H217.293H220.903H221.254H224.864H225.216H226.502V50.544C226.502 51.2378 226.576 51.8588 226.722 52.3901C226.871 52.9364 227.12 53.407 227.461 53.7881C227.803 54.1703 228.256 54.4638 228.806 54.6606C229.344 54.8519 230.013 54.9494 230.796 54.9494C233.461 54.9494 234.837 53.4997 234.889 50.6361V50.276C234.948 50.2719 235.027 50.2694 235.136 50.2694H236.011H236.363H239.973H240.324H243.933H244.286H247.895H248.246H251.856H252.208H252.353C252.783 50.2694 253.234 50.2248 253.694 50.1363C254.114 50.0567 254.487 49.9074 254.805 49.6936C255.126 49.9063 255.474 50.0549 255.843 50.1358C256.251 50.2243 256.694 50.2694 257.162 50.2694H257.402C257.848 50.2694 258.283 50.2213 258.695 50.1256C259.067 50.0394 259.395 49.895 259.676 49.6947C260.034 49.9199 260.454 50.0656 260.928 50.1298C261.442 50.1981 261.923 50.2332 262.358 50.2332H262.598C263.03 50.2332 263.438 50.2172 263.813 50.1856C264.192 50.1548 264.522 50.0995 264.82 50.0127C265.015 49.9324 265.152 49.8213 265.227 49.6811C265.285 49.5705 265.329 49.4493 265.362 49.2965C265.399 48.9543 265.421 48.5761 265.427 48.1709C265.434 47.7768 265.437 47.4071 265.437 47.0617V45.0624C265.437 44.7479 265.434 44.4305 265.427 44.109L265.41 43.0968Z" fill="white"/>
<path fill-rule="evenodd" clip-rule="evenodd" d="M271.591 37.5117H269.99C269.817 37.5117 269.668 37.5753 269.558 37.6949C269.455 37.8089 269.4 37.9564 269.4 38.1218V45.9184C269.4 46.0836 269.455 46.2311 269.559 46.3465C269.669 46.4654 269.812 46.5284 269.972 46.5284H271.591C271.751 46.5284 271.893 46.466 272.005 46.3458C272.109 46.2311 272.164 46.0831 272.164 45.9184V38.1218C272.164 37.9588 272.116 37.8185 272.02 37.702C271.948 37.6151 271.815 37.5117 271.591 37.5117V37.5117Z" fill="white"/>
<path fill-rule="evenodd" clip-rule="evenodd" d="M269.344 36.6133H272.175C272.556 36.6133 272.692 36.3848 272.692 36.17V35.6182C272.692 35.55 272.667 35.2118 272.175 35.2118H270.955C270.903 35.1696 270.855 35.1032 270.812 35.0159C270.754 34.8932 270.724 34.7436 270.724 34.5697C270.724 34.375 270.768 34.2428 270.856 34.1776C270.93 34.1223 271.088 34.0565 271.422 34.0565H272.065C272.406 34.0565 272.526 33.8376 272.526 33.6501V33.1533C272.526 33.0762 272.498 32.8163 272.171 32.7576C272.007 32.7042 271.831 32.6692 271.65 32.6556C271.477 32.6431 271.339 32.6366 271.237 32.6366C269.534 32.6366 269.176 33.5978 269.176 34.4042C269.176 34.6078 269.204 34.8125 269.257 35.013C269.277 35.0878 269.301 35.1602 269.328 35.2302C268.863 35.2373 268.827 35.5423 268.827 35.6366V36.17C268.827 36.3849 268.962 36.6134 269.344 36.6134L269.344 36.6133Z" fill="white"/>
<path fill-rule="evenodd" clip-rule="evenodd" d="M277.354 35.8047H275.678C275.521 35.8047 275.377 35.866 275.262 35.9801C275.148 36.0953 275.087 36.2391 275.087 36.3961V47.0805C275.087 47.34 275.048 47.4155 275.055 47.4155C275.038 47.4244 274.94 47.4654 274.591 47.4654H267.793C267.641 47.4654 267.503 47.5171 267.395 47.6158C267.281 47.7197 267.221 47.8595 267.221 48.02V49.7152C267.221 49.8768 267.282 50.0165 267.395 50.1181C267.503 50.2167 267.641 50.269 267.793 50.269H273.964C274.224 50.269 274.517 50.266 274.844 50.2595C275.172 50.2542 275.489 50.2411 275.793 50.2227C276.096 50.2043 276.378 50.1829 276.638 50.1579C276.911 50.1318 277.116 50.0991 277.293 50.0492C277.488 49.9678 277.619 49.8643 277.695 49.7336C277.756 49.6267 277.8 49.5025 277.835 49.3259C277.859 49.0057 277.88 48.6752 277.899 48.336C277.918 47.995 277.927 47.5884 277.927 47.1173V36.3961C277.927 36.2433 277.871 36.1019 277.767 35.9872C277.657 35.8683 277.514 35.8048 277.354 35.8048L277.354 35.8047Z" fill="white"/>
<path fill-rule="evenodd" clip-rule="evenodd" d="M283.002 35.9871C282.892 35.8683 282.743 35.8047 282.571 35.8047H280.912C280.739 35.8047 280.59 35.8683 280.48 35.9878C280.376 36.1019 280.321 36.2433 280.321 36.3961V49.6594C280.321 49.8109 280.373 49.9494 280.474 50.07C280.584 50.2001 280.735 50.269 280.912 50.269H282.571C282.747 50.269 282.898 50.2007 283.009 50.07C283.111 49.9494 283.162 49.8108 283.162 49.6594V36.3961C283.162 36.2433 283.107 36.1019 283.002 35.9871V35.9871Z" fill="white"/>
<path fill-rule="evenodd" clip-rule="evenodd" d="M81.1639 63.6634C81.1639 64.3926 80.9725 64.8954 80.5957 65.157C80.1945 65.4357 79.53 65.5771 78.6224 65.5771C78.5505 65.5771 78.44 65.5741 78.2914 65.5688L77.3321 65.5314C77.2863 65.5296 77.2447 65.5284 77.2055 65.5266V61.8019C77.2453 61.7989 77.2875 61.7965 77.3327 61.7947L78.2545 61.7578C78.4038 61.7518 78.5268 61.749 78.6224 61.749C79.4944 61.749 80.1499 61.8911 80.5719 62.1714C80.9701 62.4378 81.1639 62.8716 81.1639 63.4969L81.1639 63.6634ZM81.7547 67.5332C82.4518 67.2242 83.0213 66.773 83.4492 66.1905C83.9276 65.5402 84.1701 64.6898 84.1701 63.6634V63.4969C84.1701 62.6767 84.015 61.9754 83.7101 61.4108C83.404 60.8462 82.988 60.3884 82.4732 60.0496C81.9663 59.7175 81.3731 59.4744 80.7098 59.3275C79.4438 59.0488 77.9609 59.0862 76.6581 59.1753C76.0221 59.2194 75.4575 59.2793 74.9832 59.3519C74.7556 59.3822 74.5791 59.4482 74.443 59.5528C74.2807 59.677 74.1993 59.8697 74.1993 60.1252V72.8021C74.1993 72.959 74.2599 73.1028 74.3746 73.2181C74.4893 73.3323 74.6331 73.3935 74.7906 73.3935H76.6325C76.7924 73.3935 76.9351 73.3306 77.0468 73.2109C77.1508 73.0969 77.2055 72.9554 77.2055 72.8028V68.0634L77.7624 68.0959C78.0869 68.1144 78.3734 68.1233 78.6224 68.1233H78.7479L81.3345 72.902C81.3874 73.0096 81.442 73.1034 81.4955 73.1842C81.5853 73.3192 81.7303 73.3935 81.9027 73.3935H84.1505C84.4204 73.3935 84.5945 73.2194 84.5945 72.9495C84.5945 72.8449 84.5695 72.7538 84.5309 72.6963L81.7547 67.5332Z" fill="white"/>
<path fill-rule="evenodd" clip-rule="evenodd" d="M91.4331 66.8668C91.4557 66.2653 91.6197 65.8005 91.9211 65.4843C92.2486 65.1402 92.6599 64.9733 93.1781 64.9733C93.6947 64.9733 94.0982 65.142 94.4132 65.4896C94.7056 65.8118 94.8643 66.2748 94.8869 66.8668H91.4331ZM96.5909 63.8106C96.201 63.3684 95.7131 63.0237 95.1389 62.7842C94.5683 62.5471 93.9056 62.4264 93.1692 62.4264C92.4453 62.4264 91.7868 62.5441 91.2108 62.7741C90.6313 63.0065 90.1369 63.3417 89.7422 63.7696C89.3487 64.1964 89.045 64.7188 88.8406 65.3233C88.6367 65.9194 88.5339 66.5945 88.5339 67.3293V68.6926C88.5339 69.6324 88.6872 70.4252 88.9891 71.0469C89.2899 71.6697 89.6803 72.1732 90.1475 72.5435C90.6117 72.9114 91.1253 73.173 91.6738 73.3215C92.2135 73.4671 92.7318 73.5408 93.2156 73.5408C93.6364 73.5408 94.0049 73.5343 94.3205 73.5218C94.6373 73.5092 94.9303 73.4909 95.1983 73.4659C95.4658 73.441 95.7309 73.41 95.9924 73.372C96.2545 73.3351 96.5356 73.2853 96.8209 73.2247C97.0652 73.1901 97.2239 73.1069 97.3053 72.969C97.3689 72.8597 97.3998 72.7146 97.3998 72.5255V71.3096C97.3998 71.0921 97.2976 70.9744 97.212 70.915C97.1127 70.846 96.9891 70.8103 96.8447 70.8103L96.7686 70.8115C96.3775 70.8472 95.8843 70.8876 95.2904 70.9304C94.7026 70.9725 94.0667 70.9946 93.3992 70.9946C92.9927 70.9946 92.6563 70.9304 92.4013 70.805C92.1469 70.6807 91.9449 70.5184 91.8016 70.3217C91.6548 70.1196 91.5526 69.8933 91.4985 69.6484C91.4551 69.4557 91.4278 69.2608 91.4165 69.0445H97.1781C97.3166 69.0445 97.7683 68.9951 97.7683 68.3616V67.3293C97.7683 66.6213 97.6685 65.9622 97.4717 65.3708C97.2726 64.7734 96.9766 64.2486 96.5909 63.8106L96.5909 63.8106Z" fill="white"/>
<path fill-rule="evenodd" clip-rule="evenodd" d="M107.898 70.7319C107.671 70.846 107.422 70.9434 107.158 71.0219C106.854 71.114 106.542 71.1603 106.23 71.1603C105.818 71.1603 105.51 71.0951 105.343 70.9719C105.158 70.8382 105.119 70.5002 105.119 70.241V70.1671C105.119 69.9312 105.144 69.7221 105.194 69.5461C105.238 69.3921 105.317 69.2685 105.437 69.1681C105.565 69.0617 105.748 68.9773 105.979 68.9179C106.227 68.8555 106.555 68.8233 106.953 68.8233H107.898V70.7319ZM109.654 63.3441C108.922 62.7355 107.86 62.4264 106.499 62.4264C105.858 62.4264 105.264 62.4579 104.732 62.5197C104.195 62.5828 103.752 62.6493 103.377 62.7235C103.041 62.7931 102.849 63.0124 102.849 63.325V64.4935C102.849 64.7116 102.917 64.8621 103.051 64.9417C103.147 64.9993 103.266 65.0279 103.404 65.0279L103.522 65.0261C103.824 64.991 104.252 64.9572 104.798 64.9269C105.348 64.8965 105.92 64.8805 106.499 64.8805C107 64.8805 107.367 64.9661 107.591 65.1331C107.792 65.2841 107.898 65.6401 107.898 66.1625V66.7568H106.96C106.15 66.7568 105.441 66.827 104.855 66.9648C104.256 67.1063 103.758 67.3244 103.373 67.6115C102.98 67.9039 102.688 68.27 102.508 68.6986C102.331 69.1176 102.241 69.6115 102.241 70.1671V70.241C102.241 70.8995 102.345 71.4463 102.549 71.8665C102.754 72.2904 103.024 72.6331 103.351 72.8852C103.675 73.1384 104.048 73.3137 104.46 73.4064C104.855 73.4956 105.257 73.5408 105.652 73.5408C106.115 73.5408 106.578 73.4659 107.03 73.3179C107.362 73.2085 107.698 73.0635 108.033 72.8859C108.051 73.01 108.108 73.1236 108.203 73.218C108.318 73.3322 108.461 73.3934 108.618 73.3934H110.184C110.341 73.3934 110.486 73.3322 110.6 73.218C110.714 73.1027 110.776 72.9589 110.776 72.8019V66.1685C110.776 64.9137 110.398 63.9633 109.654 63.3441L109.654 63.3441Z" fill="white"/>
<path fill-rule="evenodd" clip-rule="evenodd" d="M118.33 58.9225H116.617C116.461 58.9225 116.317 58.9832 116.202 59.0979C116.087 59.2133 116.027 59.3572 116.027 59.5143V72.7861C116.027 72.9419 116.084 73.0822 116.196 73.2047C116.311 73.3303 116.457 73.3968 116.617 73.3968H118.33C118.494 73.3968 118.638 73.3279 118.749 73.1976C118.851 73.0768 118.902 72.9379 118.902 72.7861V59.5143C118.902 59.3608 118.847 59.2199 118.742 59.1046C118.633 58.9855 118.489 58.9225 118.33 58.9225V58.9225Z" fill="white"/>
<path fill-rule="evenodd" clip-rule="evenodd" d="M140.187 59.372L139.696 59.2888C139.513 59.2567 139.287 59.2294 139.015 59.2038C138.747 59.1788 138.424 59.1568 138.046 59.1379C137.692 59.1205 137.257 59.1116 136.744 59.1105L136.745 59.1099H132.848C132.457 59.1099 132.14 59.4266 132.14 59.8167V63.1108V69.5408V72.8349C132.14 73.2249 132.457 73.5416 132.848 73.5416H137.072L137.069 73.5393C137.443 73.5357 137.768 73.5274 138.046 73.5137C138.424 73.4953 138.747 73.4727 139.015 73.4477C139.286 73.4227 139.513 73.3948 139.696 73.3633L140.188 73.2801C140.369 73.2468 140.494 73.1946 140.58 73.1173C140.688 73.0227 140.739 72.8778 140.739 72.6738V71.4939C140.739 71.3376 140.678 71.1938 140.563 71.0785C140.448 70.9637 140.304 70.9026 140.147 70.9026H136.384C135.908 70.9026 135.58 70.8141 135.41 70.6386C135.303 70.5287 135.178 70.279 135.155 69.7251V67.3868H139.926C140.083 67.3868 140.227 67.3261 140.342 67.2114C140.457 67.0962 140.518 66.9529 140.518 66.7959V65.4693C140.518 65.3123 140.457 65.1691 140.342 65.0532C140.226 64.9384 140.083 64.8778 139.926 64.8778H135.155V62.9265C135.178 62.3724 135.303 62.1229 135.41 62.0129C135.58 61.8377 135.908 61.7491 136.384 61.7491H140.147C140.304 61.7491 140.448 61.6877 140.563 61.573C140.678 61.4578 140.739 61.3139 140.739 61.1575V59.9777C140.739 59.775 140.688 59.63 140.58 59.5343C140.493 59.457 140.364 59.4041 140.187 59.372L140.187 59.372Z" fill="white"/>
<path fill-rule="evenodd" clip-rule="evenodd" d="M152.875 68.943V68.9423C152.735 68.6926 152.54 68.4412 152.293 68.1944C152.049 67.95 151.725 67.7038 151.331 67.463L148.914 65.9896C148.692 65.8613 148.521 65.7447 148.404 65.6442C148.301 65.5562 148.288 65.4783 148.288 65.4278C148.288 65.1644 148.398 65.0711 148.48 65.0234C148.596 64.9568 148.839 64.8778 149.336 64.8778C149.59 64.8778 149.865 64.8873 150.16 64.9051L151.035 64.9604C151.312 64.979 151.565 65.0032 151.793 65.0329C152.03 65.0645 152.218 65.0859 152.375 65.0989H152.449C152.699 65.0989 152.967 64.9485 152.967 64.5251V63.446C152.967 63.1214 152.791 62.893 152.458 62.7996C152.223 62.7502 151.988 62.7027 151.753 62.6588C151.517 62.6153 151.269 62.5749 151.007 62.5374C150.744 62.4994 150.458 62.4709 150.151 62.4513C149.846 62.4328 149.507 62.4227 149.134 62.4227C146.664 62.4227 145.411 63.4264 145.411 65.4052C145.411 65.9873 145.57 66.52 145.881 66.9903C146.186 67.4511 146.584 67.8352 147.065 68.1337L149.587 69.6779C149.862 69.8503 150.058 69.9977 150.166 70.1166C150.251 70.2107 150.292 70.3117 150.292 70.4266C150.292 70.5276 150.28 70.6245 150.254 70.7161C150.235 70.7851 150.199 70.8408 150.138 70.8926C150.074 70.948 149.972 70.9943 149.835 71.0282C149.682 71.0675 149.47 71.0865 149.208 71.0865C149.074 71.0865 148.881 71.0799 148.628 71.0681C148.372 71.0562 148.096 71.0407 147.803 71.0222C147.509 71.0038 147.213 70.9824 146.914 70.958C146.616 70.9336 146.357 70.9091 146.113 70.8837H146.039C145.836 70.8837 145.712 70.9735 145.643 71.0501C145.55 71.1542 145.503 71.2725 145.503 71.4022V72.5188C145.503 72.8446 145.686 73.0736 146.014 73.1605C146.279 73.237 146.574 73.2989 146.892 73.3441C147.202 73.3881 147.512 73.425 147.822 73.4565C148.133 73.488 148.423 73.5095 148.691 73.5225C148.959 73.535 149.186 73.5415 149.373 73.5415C149.995 73.5415 150.55 73.4636 151.025 73.3097C151.505 73.1545 151.913 72.9356 152.235 72.6597C152.56 72.3815 152.807 72.0467 152.967 71.6668C153.126 71.2916 153.206 70.882 153.206 70.4491C153.206 70.2029 153.186 69.9555 153.148 69.7154C153.107 69.4586 153.015 69.1981 152.875 68.943L152.875 68.943Z" fill="white"/>
<path fill-rule="evenodd" clip-rule="evenodd" d="M163.448 71.1977H162.463C162.267 71.1977 162.16 71.1851 162.107 71.1745C162.063 71.1663 162.047 71.149 162.035 71.1312C162.019 71.1074 161.99 71.048 161.978 70.9213C161.966 70.7913 161.961 70.6141 161.961 70.3894V64.8273H163.411C163.569 64.8273 163.713 64.7667 163.828 64.6527C163.944 64.5367 164.005 64.3929 164.005 64.2353V63.1485C164.005 62.9922 163.944 62.8484 163.828 62.7325C163.712 62.6184 163.569 62.5571 163.411 62.5571H161.961V60.883C161.961 60.5753 161.764 60.3839 161.446 60.3839L159.617 60.6851C159.487 60.7184 159.372 60.7766 159.273 60.8598C159.15 60.9638 159.084 61.1058 159.084 61.2692V62.5571H157.575C157.418 62.5571 157.274 62.6183 157.159 62.7331C157.045 62.8484 156.984 62.9922 156.984 63.1484V63.978C156.984 64.1433 157.05 64.2854 157.173 64.3875C157.271 64.4702 157.388 64.5297 157.542 64.5671L159.084 64.7965V70.3893C159.084 71.0206 159.143 71.5465 159.258 71.9525C159.38 72.3792 159.576 72.715 159.84 72.9503C160.102 73.1856 160.445 73.346 160.858 73.4262C161.245 73.5023 161.709 73.5416 162.236 73.5416C162.454 73.5416 162.671 73.5285 162.879 73.5023C163.085 73.478 163.301 73.447 163.524 73.4097C164.009 73.3324 164.061 72.9985 164.061 72.8576V71.6969C164.061 71.5798 164.017 71.1977 163.448 71.1977L163.448 71.1977Z" fill="white"/>
<path fill-rule="evenodd" clip-rule="evenodd" d="M173.749 70.7319C173.521 70.846 173.273 70.9434 173.009 71.0219C172.704 71.114 172.392 71.1603 172.081 71.1603C171.668 71.1603 171.361 71.0951 171.193 70.9719C171.009 70.8382 170.97 70.5002 170.97 70.241V70.1671C170.97 69.9312 170.995 69.7221 171.044 69.5461C171.088 69.3921 171.168 69.2685 171.288 69.1681C171.416 69.0617 171.599 68.9773 171.83 68.9179C172.078 68.8555 172.405 68.8233 172.804 68.8233H173.749L173.749 70.7319ZM175.505 63.3441C174.773 62.7355 173.711 62.4264 172.35 62.4264C171.709 62.4264 171.114 62.4579 170.583 62.5197C170.045 62.5828 169.602 62.6493 169.227 62.7235C168.892 62.7931 168.7 63.0124 168.7 63.325V64.4935C168.7 64.7116 168.768 64.8621 168.902 64.9417C168.998 64.9993 169.117 65.0279 169.255 65.0279L169.373 65.0261C169.674 64.991 170.103 64.9572 170.649 64.9269C171.199 64.8965 171.771 64.8805 172.35 64.8805C172.851 64.8805 173.218 64.9661 173.441 65.1331C173.642 65.2841 173.749 65.6401 173.749 66.1625V66.7568H172.811C172.001 66.7568 171.292 66.827 170.705 66.9648C170.107 67.1063 169.608 67.3244 169.223 67.6115C168.83 67.9039 168.539 68.27 168.358 68.6986C168.182 69.1176 168.092 69.6115 168.092 70.1671V70.241C168.092 70.8995 168.196 71.4463 168.4 71.8665C168.605 72.2904 168.875 72.6331 169.201 72.8852C169.526 73.1384 169.899 73.3137 170.311 73.4064C170.706 73.4956 171.107 73.5408 171.503 73.5408C171.966 73.5408 172.429 73.4659 172.88 73.3179C173.213 73.2085 173.549 73.0635 173.883 72.8859C173.901 73.01 173.959 73.1236 174.053 73.218C174.168 73.3322 174.312 73.3934 174.469 73.3934H176.035C176.192 73.3934 176.336 73.3322 176.451 73.218C176.565 73.1027 176.626 72.9589 176.626 72.8019V66.1685C176.626 64.9137 176.249 63.9633 175.505 63.3441L175.505 63.3441Z" fill="white"/>
<path fill-rule="evenodd" clip-rule="evenodd" d="M186.898 71.1977H185.913C185.716 71.1977 185.61 71.1851 185.557 71.1745C185.513 71.1663 185.496 71.149 185.485 71.1312C185.469 71.1074 185.44 71.048 185.428 70.9213C185.416 70.7913 185.411 70.6141 185.411 70.3894V64.8273H186.861C187.018 64.8273 187.163 64.7667 187.277 64.6527C187.394 64.5367 187.455 64.3929 187.455 64.2353V63.1485C187.455 62.9922 187.394 62.8484 187.277 62.7325C187.162 62.6184 187.018 62.5571 186.861 62.5571H185.411V60.883C185.411 60.5753 185.214 60.3839 184.896 60.3839L183.067 60.6851C182.937 60.7184 182.821 60.7766 182.723 60.8598C182.599 60.9638 182.534 61.1058 182.534 61.2692V62.5571H181.025C180.868 62.5571 180.724 62.6183 180.609 62.7331C180.494 62.8484 180.434 62.9922 180.434 63.1484V63.978C180.434 64.1433 180.5 64.2854 180.623 64.3875C180.721 64.4702 180.838 64.5297 180.992 64.5671L182.534 64.7965V70.3893C182.534 71.0206 182.593 71.5465 182.708 71.9525C182.83 72.3792 183.026 72.715 183.29 72.9503C183.552 73.1856 183.895 73.346 184.307 73.4262C184.695 73.5023 185.158 73.5416 185.686 73.5416C185.904 73.5416 186.121 73.5285 186.329 73.5023C186.535 73.478 186.75 73.447 186.974 73.4097C187.459 73.3324 187.511 72.9985 187.511 72.8576V71.6969C187.511 71.5798 187.467 71.1977 186.898 71.1977L186.898 71.1977Z" fill="white"/>
<path fill-rule="evenodd" clip-rule="evenodd" d="M194.519 66.8668C194.542 66.2653 194.707 65.8005 195.007 65.4843C195.335 65.1402 195.747 64.9733 196.265 64.9733C196.781 64.9733 197.185 65.142 197.5 65.4896C197.792 65.8118 197.951 66.2748 197.974 66.8668H194.519ZM199.677 63.8106C199.288 63.3684 198.799 63.0237 198.226 62.7842C197.655 62.5471 196.992 62.4264 196.256 62.4264C195.532 62.4264 194.873 62.5441 194.297 62.7741C193.718 63.0065 193.224 63.3417 192.828 63.7696C192.435 64.1964 192.132 64.7188 191.927 65.3233C191.723 65.9194 191.62 66.5945 191.62 67.3293V68.6926C191.62 69.6324 191.773 70.4252 192.075 71.0469C192.377 71.6697 192.767 72.1732 193.234 72.5435C193.698 72.9114 194.212 73.173 194.76 73.3215C195.3 73.4671 195.819 73.5408 196.302 73.5408C196.723 73.5408 197.091 73.5343 197.407 73.5218C197.724 73.5092 198.017 73.4909 198.285 73.4659C198.552 73.441 198.818 73.41 199.079 73.372C199.341 73.3351 199.622 73.2853 199.908 73.2247C200.152 73.1901 200.31 73.1069 200.392 72.969C200.456 72.8597 200.486 72.7146 200.486 72.5255V71.3096C200.486 71.0921 200.384 70.9744 200.299 70.915C200.2 70.846 200.076 70.8103 199.932 70.8103L199.855 70.8115C199.464 70.8472 198.97 70.8876 198.377 70.9304C197.789 70.9725 197.153 70.9946 196.486 70.9946C196.079 70.9946 195.743 70.9304 195.488 70.805C195.233 70.6807 195.032 70.5184 194.888 70.3217C194.741 70.1196 194.639 69.8933 194.585 69.6484C194.541 69.4557 194.514 69.2608 194.503 69.0445H200.264C200.403 69.0445 200.855 68.9951 200.855 68.3616V67.3293C200.855 66.6213 200.755 65.9622 200.558 65.3708C200.359 64.7734 200.063 64.2486 199.677 63.8106L199.677 63.8106Z" fill="white"/>
<path fill-rule="evenodd" clip-rule="evenodd" d="M221.889 67.3422L221.889 67.3416C221.687 67.017 221.409 66.6997 221.062 66.3977C220.72 66.1001 220.286 65.8033 219.771 65.5151L217.559 64.2788C217.27 64.1225 217.029 63.9782 216.842 63.8493C216.66 63.7244 216.516 63.6026 216.411 63.4867C216.315 63.382 216.251 63.2785 216.217 63.1794C216.182 63.0736 216.164 62.9577 216.164 62.8353C216.164 62.4881 216.283 62.2297 216.527 62.0455C216.787 61.8493 217.241 61.75 217.876 61.75C218.464 61.75 219.068 61.7647 219.67 61.7952C220.257 61.8254 220.867 61.8719 221.484 61.9324L221.543 61.9336C221.748 61.9336 221.871 61.8438 221.939 61.7679C222.031 61.6656 222.079 61.5319 222.079 61.3796V60.0163C222.079 59.8119 221.988 59.6877 221.912 59.6199C221.824 59.5403 221.711 59.4826 221.575 59.4493C221.409 59.4107 221.188 59.3733 220.91 59.334C220.637 59.2977 220.335 59.2603 220.002 59.2235C219.666 59.1861 219.323 59.1581 218.976 59.1397C217.643 59.0666 216.574 59.1379 215.759 59.3792C215.147 59.5587 214.642 59.8191 214.257 60.1512C213.868 60.4883 213.583 60.8929 213.411 61.357C213.243 61.8106 213.158 62.3081 213.158 62.8353C213.158 63.1675 213.193 63.4967 213.264 63.8141C213.336 64.1351 213.463 64.4484 213.641 64.7466C213.816 65.0385 214.052 65.3244 214.343 65.5965C214.629 65.8635 214.998 66.1326 215.44 66.3977L217.872 67.8533C218.173 68.0339 218.419 68.1938 218.612 68.3317C218.796 68.4643 218.945 68.5932 219.056 68.7151C219.158 68.8268 219.229 68.9403 219.269 69.0521C219.309 69.1704 219.33 69.3106 219.33 69.4675C219.33 69.9485 219.205 70.299 218.949 70.5396C218.692 70.7804 218.176 70.9028 217.415 70.9028C217.246 70.9028 217.019 70.8969 216.734 70.8851C216.447 70.8726 216.144 70.8577 215.826 70.8392L214.896 70.784C214.601 70.7656 214.365 70.7459 214.185 70.7209L214.118 70.7192C213.961 70.7192 213.821 70.7763 213.712 70.8851C213.603 70.9944 213.545 71.1347 213.545 71.2922V72.6186C213.545 72.7804 213.605 72.9206 213.719 73.0223C213.813 73.1079 213.928 73.169 214.069 73.2047C214.52 73.3047 215.011 73.3866 215.529 73.4472C216.05 73.5101 216.673 73.5417 217.379 73.5417C218.321 73.5417 219.125 73.4222 219.768 73.1869C220.415 72.9504 220.942 72.636 221.338 72.2538C221.737 71.8681 222.025 71.4229 222.196 70.932C222.363 70.4499 222.447 69.9566 222.447 69.4675C222.447 69.0835 222.405 68.7127 222.321 68.3656C222.236 68.0119 222.09 67.6679 221.889 67.3422L221.889 67.3422Z" fill="white"/>
<path fill-rule="evenodd" clip-rule="evenodd" d="M232.229 71.1977H231.243C231.047 71.1977 230.941 71.1851 230.887 71.1745C230.844 71.1663 230.827 71.149 230.815 71.1312C230.799 71.1074 230.77 71.048 230.759 70.9213C230.747 70.7913 230.742 70.6141 230.742 70.3894V64.8273H232.192C232.349 64.8273 232.494 64.7667 232.608 64.6527C232.725 64.5367 232.786 64.3929 232.786 64.2353V63.1485C232.786 62.9922 232.725 62.8484 232.608 62.7325C232.493 62.6184 232.349 62.5571 232.192 62.5571H230.742V60.883C230.742 60.5753 230.545 60.3839 230.226 60.3839L228.398 60.6851C228.268 60.7184 228.152 60.7766 228.053 60.8598C227.93 60.9638 227.864 61.1058 227.864 61.2692V62.5571H226.356C226.199 62.5571 226.055 62.6183 225.94 62.7331C225.825 62.8484 225.764 62.9922 225.764 63.1484V63.978C225.764 64.1433 225.83 64.2854 225.954 64.3875C226.052 64.4702 226.169 64.5297 226.322 64.5671L227.864 64.7965V70.3893C227.864 71.0206 227.923 71.5465 228.039 71.9525C228.161 72.3792 228.357 72.715 228.62 72.9503C228.883 73.1856 229.226 73.346 229.638 73.4262C230.026 73.5023 230.489 73.5416 231.016 73.5416C231.234 73.5416 231.451 73.5285 231.66 73.5023C231.866 73.478 232.081 73.447 232.304 73.4097C232.79 73.3324 232.842 72.9985 232.842 72.8576V71.6969C232.842 71.5798 232.798 71.1977 232.229 71.1977L232.229 71.1977Z" fill="white"/>
<path fill-rule="evenodd" clip-rule="evenodd" d="M243.136 68.7301C243.136 69.4385 242.983 70.0043 242.682 70.4121C242.393 70.8038 241.969 70.9946 241.388 70.9946C240.806 70.9946 240.382 70.8038 240.093 70.4121C239.792 70.0043 239.639 69.4385 239.639 68.7301V67.2371C239.639 66.5286 239.792 65.9627 240.093 65.5551C240.382 65.1633 240.806 64.9733 241.388 64.9733C241.969 64.9733 242.393 65.1633 242.682 65.5551C242.983 65.9627 243.136 66.5286 243.136 67.2371V68.7301ZM244.833 63.8083C244.444 63.3815 243.956 63.0408 243.382 62.7949C242.809 62.5499 242.138 62.4264 241.388 62.4264C240.637 62.4264 239.966 62.5499 239.393 62.7949C238.819 63.0404 238.331 63.3809 237.943 63.8083C237.556 64.2338 237.258 64.7462 237.059 65.3322C236.861 65.9099 236.761 66.5512 236.761 67.2371V68.7301C236.761 69.416 236.861 70.0573 237.059 70.635C237.258 71.221 237.556 71.734 237.943 72.1588C238.333 72.5875 238.82 72.928 239.393 73.173C239.965 73.4172 240.636 73.5408 241.388 73.5408C242.139 73.5408 242.81 73.4172 243.382 73.173C243.956 72.9274 244.443 72.5868 244.833 72.1588C245.219 71.7339 245.517 71.221 245.716 70.635C245.914 70.0549 246.014 69.4142 246.014 68.7301V67.2371C246.014 66.553 245.914 65.9122 245.716 65.3322C245.517 64.7462 245.219 64.2338 244.833 63.8083Z" fill="white"/>
<path fill-rule="evenodd" clip-rule="evenodd" d="M257.342 62.67C257.121 62.6053 256.81 62.5493 256.392 62.4982C255.976 62.4483 255.478 62.4228 254.909 62.4228C254.285 62.4228 253.697 62.5209 253.165 62.7129C252.626 62.9078 252.152 63.2082 251.758 63.6035C251.362 63.9989 251.047 64.4961 250.823 65.0817C250.599 65.6639 250.484 66.3512 250.484 67.1254V68.839C250.484 69.6131 250.599 70.3004 250.823 70.8826C251.047 71.4681 251.362 71.9653 251.757 72.3601C252.152 72.756 252.626 73.0564 253.166 73.2513C253.697 73.4439 254.285 73.5415 254.909 73.5415C255.478 73.5415 255.976 73.5159 256.392 73.466C256.814 73.4149 257.128 73.3577 257.336 73.2959C257.552 73.2466 257.697 73.1669 257.78 73.0522C257.858 72.9445 257.896 72.7965 257.896 72.5997V71.4016C257.896 71.1839 257.794 71.0669 257.709 71.0068C257.609 70.9372 257.486 70.9016 257.341 70.9016L257.256 70.9033C257.074 70.9283 256.903 70.9498 256.745 70.9681C256.592 70.9853 256.431 70.9979 256.265 71.0032L255.677 71.0217C255.457 71.0282 255.202 71.0313 254.909 71.0313C254.715 71.0313 254.523 70.9979 254.339 70.9331C254.163 70.8707 254.008 70.7666 253.866 70.6132C253.722 70.4599 253.602 70.2398 253.508 69.9573C253.412 69.6702 253.363 69.2938 253.363 68.8391V67.1254C253.363 66.6705 253.412 66.2941 253.508 66.0063C253.602 65.7257 253.722 65.5052 253.866 65.3511C254.008 65.1976 254.163 65.0936 254.339 65.0312C254.797 64.87 255.311 64.9325 255.677 64.9425L256.265 64.9611C256.43 64.967 256.59 64.979 256.745 64.9973C256.904 65.0145 257.074 65.0366 257.257 65.061L257.341 65.0627C257.486 65.0627 257.61 65.0271 257.709 64.9581C257.794 64.8987 257.896 64.7809 257.896 64.5632V63.3646C257.896 63.1678 257.858 63.0198 257.78 62.911C257.697 62.798 257.554 62.7194 257.342 62.67V62.67Z" fill="white"/>
<path fill-rule="evenodd" clip-rule="evenodd" d="M267.758 67.7245L271.35 63.3034C271.43 63.2016 271.472 63.0928 271.472 62.9797C271.472 62.7735 271.341 62.5534 270.973 62.5534H268.912C268.822 62.5534 268.727 62.5737 268.62 62.6153C268.5 62.6616 268.394 62.7461 268.31 62.8644L265.564 66.5322V59.5143C265.564 59.3572 265.503 59.2133 265.389 59.0979C265.274 58.9832 265.13 58.9225 264.973 58.9225H263.28C263.123 58.9225 262.979 58.9832 262.865 59.0979C262.75 59.2133 262.689 59.3572 262.689 59.5143V72.786C262.689 72.9419 262.745 73.0822 262.858 73.2047C262.973 73.3302 263.119 73.3968 263.28 73.3968H264.973C265.134 73.3968 265.279 73.3302 265.395 73.2047C265.507 73.0822 265.564 72.9419 265.564 72.786V69.3187L268.05 72.9348C268.123 73.0371 268.217 73.1351 268.329 73.2267C268.467 73.3397 268.613 73.3967 268.765 73.3967H271.01C271.137 73.3967 271.251 73.3552 271.341 73.2761C271.439 73.1904 271.49 73.0781 271.49 72.9526C271.49 72.8734 271.463 72.7902 271.392 72.6724L267.758 67.7245Z" fill="white"/>
<path fill-rule="evenodd" clip-rule="evenodd" d="M283.381 69.7148C283.34 69.458 283.248 69.1981 283.107 68.9423C282.968 68.6926 282.773 68.4412 282.525 68.1944C282.281 67.95 281.956 67.7038 281.562 67.4629L279.141 65.9896C278.919 65.8613 278.748 65.7447 278.631 65.6442C278.527 65.5562 278.515 65.4783 278.515 65.4278C278.515 65.1644 278.625 65.0711 278.707 65.0234C278.823 64.9568 279.066 64.8778 279.564 64.8778C279.818 64.8778 280.094 64.8873 280.389 64.9051L281.265 64.9604C281.542 64.979 281.796 65.0032 282.025 65.0329C282.262 65.0645 282.45 65.0859 282.607 65.0989H282.681C282.932 65.0989 283.199 64.9485 283.199 64.5251V63.446C283.199 63.1214 283.024 62.893 282.69 62.7996C282.455 62.7502 282.219 62.7027 281.984 62.6588C281.748 62.6153 281.499 62.5749 281.238 62.5374C280.974 62.4994 280.688 62.4709 280.38 62.4513C280.075 62.4327 279.735 62.4227 279.362 62.4227C276.888 62.4227 275.634 63.4264 275.634 65.4052C275.634 65.9872 275.793 66.52 276.105 66.9903C276.41 67.4511 276.808 67.8352 277.291 68.1337L279.815 69.6779C280.091 69.8503 280.287 69.9977 280.395 70.1166C280.481 70.2107 280.522 70.3117 280.522 70.4266C280.522 70.5276 280.509 70.6245 280.484 70.7161C280.464 70.7851 280.427 70.8408 280.368 70.8926C280.303 70.948 280.201 70.9943 280.063 71.0282C279.91 71.0675 279.699 71.0864 279.435 71.0864C279.303 71.0864 279.109 71.0799 278.856 71.0681C278.599 71.0562 278.323 71.0407 278.029 71.0222C277.736 71.0038 277.439 70.9824 277.14 70.958C276.84 70.9336 276.581 70.9091 276.337 70.8837H276.263C276.06 70.8837 275.936 70.9735 275.866 71.05C275.774 71.1541 275.727 71.2725 275.727 71.4022V72.5188C275.727 72.8446 275.91 73.0735 276.238 73.1604C276.504 73.237 276.799 73.2989 277.117 73.344C277.427 73.3881 277.738 73.425 278.049 73.4565C278.36 73.488 278.649 73.5095 278.918 73.5225C279.186 73.535 279.414 73.5415 279.602 73.5415C280.224 73.5415 280.78 73.4635 281.256 73.3097C281.736 73.1545 282.144 72.9356 282.467 72.6597C282.793 72.3814 283.04 72.0467 283.2 71.6668C283.359 71.2916 283.439 70.882 283.439 70.4491C283.439 70.2029 283.419 69.9555 283.381 69.7148H283.381Z" fill="white"/>
</svg>
