<svg width="30" height="34" viewBox="0 0 30 34" fill="none" xmlns="http://www.w3.org/2000/svg">
<path fill-rule="evenodd" clip-rule="evenodd" d="M26.0226 15.9221C25.8042 16.144 25.5059 16.269 25.1946 16.269C24.8833 16.269 24.585 16.144 24.3666 15.9221L13.6515 5.18531C13.1942 4.72139 13.1994 3.97444 13.6631 3.51694C14.1269 3.05944 14.8735 3.06465 15.3308 3.52857L26.0226 14.248C26.2499 14.4671 26.3783 14.7693 26.3783 15.0851C26.3783 15.4008 26.2499 15.703 26.0226 15.9221H26.0226ZM11.6817 23.0025L6.55078 17.8695L13.3552 6.52814L23.0185 16.1954L11.6817 23.0025ZM16.7603 29.6818C17.0361 29.9554 17.191 30.328 17.1903 30.7166C17.192 31.1036 17.0369 31.4749 16.7603 31.7455C16.1907 32.3154 15.2671 32.3154 14.6975 31.7455L9.52008 26.6183L11.5829 24.5546L16.7603 29.6818ZM7.89887 26.595C7.78977 26.7051 7.64125 26.767 7.48632 26.767C7.33138 26.767 7.18286 26.7051 7.07375 26.595L2.93649 22.4968C2.82649 22.3876 2.76461 22.2391 2.76461 22.0841C2.76461 21.9291 2.82649 21.7805 2.93649 21.6713L5.84187 18.7648L10.7926 23.7117L7.89887 26.595ZM4.9935 27.0078C4.5759 27.5325 3.89449 27.7712 3.24091 27.6216C2.58734 27.472 2.07744 26.9607 1.92946 26.3065C1.78148 25.6523 2.02165 24.9712 2.54717 24.5546L2.95973 24.1419L5.43511 26.6183L4.9935 27.0078ZM22.3038 7.24316V7.24316C22.6322 7.57132 22.8162 8.01698 22.8151 8.48135C22.8162 8.7427 22.7587 9.00097 22.6466 9.23706L20.3223 6.91181C20.9881 6.60434 21.7741 6.73578 22.3038 7.24316ZM26.842 13.4283L23.5008 10.109C24.267 8.95406 24.1113 7.41849 23.1289 6.44095V6.44095C22.1591 5.44876 20.6235 5.28077 19.4623 6.03984L16.1269 2.70892C15.6907 2.27051 15.0979 2.02404 14.4796 2.02404C13.8612 2.02404 13.2684 2.27051 12.8322 2.70892C12.046 3.49142 11.9219 4.72059 12.5359 5.64455L5.35958 17.6021L2.11136 20.8459C1.78313 21.1731 1.59864 21.6176 1.59864 22.0812C1.59864 22.5447 1.78313 22.9892 2.11136 23.3164V23.3164L1.69879 23.7292C0.562735 24.8673 0.564035 26.7113 1.7017 27.8478C2.83936 28.9843 4.68257 28.983 5.81863 27.8449L6.23119 27.4321V27.4321C6.55684 27.7614 7.00006 27.9476 7.46307 27.9495C7.92809 27.9491 8.37369 27.7628 8.70076 27.4321V27.4321L13.8549 32.5884C14.8786 33.6125 16.5384 33.6125 17.5622 32.5884C18.5859 31.5642 18.5859 29.9037 17.5622 28.8796L12.5242 23.8396L23.9075 17.0208C24.9044 17.7268 26.2774 17.5405 27.0503 16.5943C27.8231 15.6481 27.7321 14.265 26.8419 13.4283H26.842Z" fill="#38435B"/>
<path d="M26.0226 15.9221L26.2008 16.0975L26.6196 15.6721H26.0226V15.9221ZM24.3666 15.9221L24.5447 15.7468L24.5435 15.7455L24.3666 15.9221ZM13.6515 5.18531L13.4735 5.36081L13.4746 5.3619L13.6515 5.18531ZM13.6631 3.51694L13.4876 3.33897L13.4876 3.33897L13.6631 3.51694ZM15.3308 3.52857L15.1528 3.70407L15.1538 3.70512L15.3308 3.52857ZM26.0226 14.248L25.8456 14.4245L25.8491 14.4279L26.0226 14.248ZM26.0226 15.9221L25.8491 15.7422L25.4032 16.1721H26.0226V15.9221ZM11.6817 23.0025L11.5049 23.1793L11.6429 23.3174L11.8104 23.2169L11.6817 23.0025ZM6.55078 17.8695L6.3364 17.7409L6.236 17.9083L6.37396 18.0463L6.55078 17.8695ZM13.3552 6.52814L13.532 6.3514L13.3056 6.12488L13.1408 6.39952L13.3552 6.52814ZM23.0185 16.1954L23.1472 16.4097L23.4215 16.2449L23.1953 16.0186L23.0185 16.1954ZM16.7603 29.6818L16.9363 29.5043L16.9362 29.5042L16.7603 29.6818ZM17.1903 30.7166L16.9403 30.7161L16.9403 30.7177L17.1903 30.7166ZM16.7603 31.7455L16.5854 31.5668L16.5835 31.5688L16.7603 31.7455ZM14.6975 31.7455L14.8743 31.5688L14.8734 31.5679L14.6975 31.7455ZM9.52008 26.6183L9.34326 26.4416L9.1657 26.6192L9.34416 26.7959L9.52008 26.6183ZM11.5829 24.5546L11.7588 24.377L11.582 24.2019L11.4061 24.3779L11.5829 24.5546ZM7.89887 26.595L7.72242 26.4179L7.72133 26.419L7.89887 26.595ZM7.07375 26.595L7.25129 26.419L7.24968 26.4174L7.07375 26.595ZM2.93649 22.4968L2.7604 22.6743L2.76055 22.6744L2.93649 22.4968ZM2.93649 21.6713L3.11258 21.8488L3.1133 21.8481L2.93649 21.6713ZM5.84187 18.7648L6.01857 18.5879L5.84176 18.4113L5.66505 18.588L5.84187 18.7648ZM10.7926 23.7117L10.9691 23.8888L11.1466 23.712L10.9693 23.5349L10.7926 23.7117ZM4.9935 27.0078L4.82813 26.8203L4.8116 26.8349L4.79788 26.8521L4.9935 27.0078ZM3.24091 27.6216L3.18512 27.8653L3.18513 27.8653L3.24091 27.6216ZM2.54717 24.5546L2.70245 24.7506L2.71377 24.7416L2.72398 24.7314L2.54717 24.5546ZM2.95973 24.1419L3.13654 23.9652L2.95972 23.7883L2.78291 23.9652L2.95973 24.1419ZM5.43511 26.6183L5.60047 26.8058L5.80005 26.6298L5.61192 26.4415L5.43511 26.6183ZM22.8151 8.48135L22.5651 8.48073L22.5651 8.48244L22.8151 8.48135ZM22.6466 9.23706L22.4698 9.4138L22.7204 9.66453L22.8724 9.34426L22.6466 9.23706ZM20.3223 6.91181L20.2175 6.68484L19.8921 6.83509L20.1455 7.08855L20.3223 6.91181ZM26.842 13.4283V13.6783H27.4483L27.0182 13.251L26.842 13.4283ZM23.5008 10.109L23.2924 9.97082L23.179 10.1418L23.3246 10.2864L23.5008 10.109ZM19.4623 6.03984L19.2856 6.21673L19.4292 6.36013L19.5991 6.24909L19.4623 6.03984ZM16.1269 2.70892L15.9497 2.88525L15.9503 2.88581L16.1269 2.70892ZM12.8322 2.70892L13.0086 2.88611L13.0094 2.88525L12.8322 2.70892ZM12.5359 5.64455L12.7502 5.77319L12.8315 5.63775L12.7441 5.50619L12.5359 5.64455ZM5.35958 17.6021L5.53623 17.779L5.55806 17.7572L5.57393 17.7308L5.35958 17.6021ZM2.11136 20.8459L2.28786 21.0229L2.28801 21.0228L2.11136 20.8459ZM1.69879 23.7292L1.52197 23.5524L1.52185 23.5526L1.69879 23.7292ZM5.81863 27.8449L5.64181 27.6681L5.64169 27.6683L5.81863 27.8449ZM7.46307 27.9495L7.46201 28.1995L7.46328 28.1995L7.46307 27.9495ZM13.8549 32.5884L13.6781 32.7651L13.6781 32.7651L13.8549 32.5884ZM17.5622 32.5884L17.739 32.7651L17.739 32.7651L17.5622 32.5884ZM17.5622 28.8796L17.3854 29.0563L17.3854 29.0563L17.5622 28.8796ZM12.5242 23.8396L12.3958 23.6252L12.1209 23.7898L12.3474 24.0164L12.5242 23.8396ZM23.9075 17.0208L24.052 16.8168L23.9189 16.7226L23.779 16.8064L23.9075 17.0208ZM27.0503 16.5943L26.8567 16.4362L26.8567 16.4362L27.0503 16.5943ZM26.8419 13.4283V13.1783H26.2109L26.6707 13.6105L26.8419 13.4283ZM25.8445 15.7468C25.673 15.9209 25.4389 16.019 25.1946 16.019V16.519C25.5729 16.519 25.9354 16.3672 26.2008 16.0975L25.8445 15.7468ZM25.1946 16.019C24.9503 16.019 24.7162 15.9209 24.5447 15.7468L24.1884 16.0975C24.4538 16.3671 24.8163 16.519 25.1946 16.519V16.019ZM24.5435 15.7455L13.8285 5.00871L13.4746 5.3619L24.1896 16.0987L24.5435 15.7455ZM13.8296 5.0098C13.4692 4.64418 13.4733 4.05546 13.8387 3.6949L13.4876 3.33897C12.9256 3.89341 12.9193 4.79859 13.4735 5.36081L13.8296 5.0098ZM13.8387 3.6949C14.2041 3.3344 14.7924 3.33851 15.1528 3.70407L15.5089 3.35306C14.9546 2.79079 14.0496 2.78447 13.4876 3.33897L13.8387 3.6949ZM15.1538 3.70512L25.8456 14.4245L26.1996 14.0714L15.5078 3.35202L15.1538 3.70512ZM25.8491 14.4279C26.0275 14.5999 26.1283 14.8372 26.1283 15.0851H26.6283C26.6283 14.7014 26.4723 14.3343 26.1962 14.068L25.8491 14.4279ZM26.1283 15.0851C26.1283 15.333 26.0275 15.5702 25.8491 15.7422L26.1962 16.1021C26.4723 15.8359 26.6283 15.4687 26.6283 15.0851H26.1283ZM26.0226 16.1721H26.0226V15.6721H26.0226V16.1721ZM11.8585 22.8258L6.72759 17.6928L6.37396 18.0463L11.5049 23.1793L11.8585 22.8258ZM6.76515 17.9982L13.5696 6.65675L13.1408 6.39952L6.3364 17.7409L6.76515 17.9982ZM13.1784 6.70488L22.8417 16.3721L23.1953 16.0186L13.532 6.3514L13.1784 6.70488ZM22.8898 15.981L11.553 22.7882L11.8104 23.2169L23.1472 16.4097L22.8898 15.981ZM16.5843 29.8593C16.8126 30.0858 16.9409 30.3944 16.9403 30.7161L17.4403 30.717C17.4411 30.2617 17.2596 29.8249 16.9363 29.5043L16.5843 29.8593ZM16.9403 30.7177C16.9417 31.0371 16.8137 31.3435 16.5855 31.5668L16.9351 31.9242C17.2601 31.6062 17.4424 31.1701 17.4403 30.7154L16.9403 30.7177ZM16.5835 31.5688C16.1115 32.041 15.3463 32.041 14.8743 31.5688L14.5206 31.9222C15.1879 32.5898 16.2699 32.5898 16.9371 31.9222L16.5835 31.5688ZM14.8734 31.5679L9.69599 26.4407L9.34416 26.7959L14.5216 31.9231L14.8734 31.5679ZM9.69689 26.795L11.7597 24.7314L11.4061 24.3779L9.34326 26.4416L9.69689 26.795ZM11.407 24.7323L16.5844 29.8595L16.9362 29.5042L11.7588 24.377L11.407 24.7323ZM7.72133 26.419C7.65917 26.4817 7.57456 26.517 7.48632 26.517V27.017C7.70793 27.017 7.92036 26.9285 8.07642 26.7711L7.72133 26.419ZM7.48632 26.517C7.39806 26.517 7.31345 26.4817 7.25129 26.419L6.8962 26.7711C7.05226 26.9285 7.26469 27.017 7.48632 27.017V26.517ZM7.24968 26.4174L3.11242 22.3192L2.76055 22.6744L6.89781 26.7727L7.24968 26.4174ZM3.11257 22.3193C3.04989 22.2571 3.01461 22.1724 3.01461 22.0841H2.51461C2.51461 22.3057 2.60308 22.5182 2.7604 22.6743L3.11257 22.3193ZM3.01461 22.0841C3.01461 21.9957 3.04989 21.911 3.11257 21.8488L2.7604 21.4939C2.60308 21.65 2.51461 21.8624 2.51461 22.0841H3.01461ZM3.1133 21.8481L6.01868 18.9415L5.66505 18.588L2.75967 21.4946L3.1133 21.8481ZM5.66516 18.9416L10.6159 23.8886L10.9693 23.5349L6.01857 18.5879L5.66516 18.9416ZM10.6162 23.5346L7.72242 26.418L8.07533 26.7721L10.9691 23.8888L10.6162 23.5346ZM4.79788 26.8521C4.44015 27.3016 3.85648 27.506 3.29668 27.3779L3.18513 27.8653C3.93249 28.0363 4.71164 27.7634 5.18911 27.1635L4.79788 26.8521ZM3.29669 27.3779C2.73689 27.2497 2.30007 26.8118 2.17329 26.2513L1.68562 26.3616C1.8548 27.1096 2.43778 27.6942 3.18512 27.8653L3.29669 27.3779ZM2.17329 26.2513C2.04652 25.6908 2.25229 25.1074 2.70245 24.7506L2.39188 24.3587C1.791 24.835 1.51643 25.6137 1.68562 26.3616L2.17329 26.2513ZM2.72398 24.7314L3.13654 24.3186L2.78291 23.9652L2.37035 24.3779L2.72398 24.7314ZM2.78291 24.3186L5.25829 26.795L5.61192 26.4415L3.13654 23.9652L2.78291 24.3186ZM5.26974 26.4308L4.82813 26.8203L5.15886 27.1953L5.60047 26.8058L5.26974 26.4308ZM22.1271 7.42001C22.4084 7.70112 22.5661 8.0829 22.5651 8.48073L23.0651 8.48196C23.0664 7.95105 22.856 7.44151 22.4805 7.0663L22.1271 7.42001ZM22.5651 8.48244C22.5661 8.70634 22.5167 8.9276 22.4207 9.12985L22.8724 9.34426C23.0006 9.07433 23.0664 8.77905 23.0651 8.48026L22.5651 8.48244ZM22.8234 9.06032L20.4991 6.73507L20.1455 7.08855L22.4698 9.4138L22.8234 9.06032ZM20.4271 7.13877C20.9995 6.87441 21.6754 6.98741 22.1308 7.42368L22.4767 7.06263C21.8728 6.48414 20.9766 6.33426 20.2175 6.68484L20.4271 7.13877ZM27.0182 13.251L23.677 9.93167L23.3246 10.2864L26.6658 13.6057L27.0182 13.251ZM23.7091 10.2472C24.5412 8.99295 24.3722 7.32535 23.3052 6.26373L22.9526 6.61816C23.8505 7.51162 23.9928 8.91516 23.2924 9.97082L23.7091 10.2472ZM23.3077 6.2662C22.2544 5.18864 20.5867 5.00617 19.3255 5.83058L19.5991 6.24909C20.6603 5.55536 22.0638 5.70887 22.9501 6.61569L23.3077 6.2662ZM19.639 5.86294L16.3036 2.53202L15.9503 2.88581L19.2856 6.21673L19.639 5.86294ZM16.3041 2.53259C15.821 2.04703 15.1644 1.77404 14.4796 1.77404V2.27404C15.0313 2.27404 15.5604 2.49398 15.9497 2.88525L16.3041 2.53259ZM14.4796 1.77404C13.7947 1.77404 13.1381 2.04703 12.655 2.53259L13.0094 2.88525C13.3987 2.49398 13.9278 2.27404 14.4796 2.27404V1.77404ZM12.6559 2.53172C11.7851 3.39836 11.6477 4.75964 12.3276 5.7829L12.7441 5.50619C12.1961 4.68154 12.3069 3.58448 13.0086 2.88611L12.6559 2.53172ZM12.3215 5.5159L5.14522 17.4735L5.57393 17.7308L12.7502 5.77319L12.3215 5.5159ZM5.18292 17.4252L1.9347 20.669L2.28801 21.0228L5.53623 17.779L5.18292 17.4252ZM1.93485 20.6688C1.55956 21.043 1.34864 21.5512 1.34864 22.0812H1.84864C1.84864 21.684 2.00669 21.3032 2.28786 21.0229L1.93485 20.6688ZM1.34864 22.0812C1.34864 22.6112 1.55956 23.1194 1.93485 23.4935L2.28786 23.1394C2.00669 22.8591 1.84864 22.4783 1.84864 22.0812H1.34864ZM1.93454 23.1397L1.52197 23.5524L1.8756 23.9059L2.28817 23.4932L1.93454 23.1397ZM1.52185 23.5526C0.288284 24.7884 0.289695 26.7906 1.52501 28.0246L1.87838 27.6709C0.838375 26.6319 0.837187 24.9462 1.87572 23.9058L1.52185 23.5526ZM1.52501 28.0246C2.76038 29.2588 4.76193 29.2574 5.99556 28.0215L5.64169 27.6683C4.6032 28.7086 2.91834 28.7098 1.87838 27.6709L1.52501 28.0246ZM5.99544 28.0216L6.408 27.6089L6.05437 27.2554L5.64181 27.6681L5.99544 28.0216ZM6.05343 27.6079C6.42578 27.9844 6.93257 28.1973 7.46201 28.1995L7.46412 27.6995C7.06754 27.6978 6.68789 27.5384 6.40894 27.2564L6.05343 27.6079ZM7.46328 28.1995C7.99503 28.1991 8.50454 27.9861 8.8785 27.6079L8.52301 27.2563C8.24283 27.5396 7.86114 27.6992 7.46285 27.6995L7.46328 28.1995ZM8.52394 27.6089L13.6781 32.7651L14.0317 32.4116L8.87757 27.2554L8.52394 27.6089ZM13.6781 32.7651C14.7995 33.8869 16.6176 33.8869 17.739 32.7651L17.3854 32.4116C16.4593 33.3381 14.9578 33.3381 14.0317 32.4116L13.6781 32.7651ZM17.739 32.7651C18.8603 31.6434 18.8603 29.8246 17.739 28.7029L17.3854 29.0563C18.3115 29.9829 18.3115 31.4851 17.3854 32.4116L17.739 32.7651ZM17.739 28.7029L12.701 23.6629L12.3474 24.0164L17.3854 29.0563L17.739 28.7029ZM12.6527 24.0541L24.036 17.2353L23.779 16.8064L12.3958 23.6252L12.6527 24.0541ZM23.763 17.2249C24.8672 18.0068 26.3879 17.8004 27.2439 16.7525L26.8567 16.4362C26.1669 17.2806 24.9416 17.4468 24.052 16.8168L23.763 17.2249ZM27.2439 16.7525C28.0998 15.7046 27.999 14.1728 27.0132 13.2461L26.6707 13.6105C27.4652 14.3572 27.5464 15.5917 26.8567 16.4362L27.2439 16.7525ZM26.8419 13.6783H26.842V13.1783H26.8419V13.6783Z" fill="#38435B"/>
<path fill-rule="evenodd" clip-rule="evenodd" d="M23.937 6.2617C24.1104 6.26097 24.2766 6.19229 24.3997 6.07049L26.2771 4.19791C26.4727 3.93401 26.4439 3.56682 26.2096 3.33643C25.9753 3.10604 25.6068 3.08259 25.345 3.28141L23.4676 5.1408C23.2113 5.39798 23.2113 5.81332 23.4676 6.0705C23.5924 6.19392 23.7613 6.26273 23.937 6.26171V6.2617Z" fill="#38435B" stroke="#38435B" stroke-width="0.5"/>
<path fill-rule="evenodd" clip-rule="evenodd" d="M21.2125 4.6059C21.5769 4.6059 21.8723 4.31051 21.8723 3.94614V1.30711C21.8723 0.942742 21.5769 0.647356 21.2125 0.647356C20.8482 0.647356 20.5528 0.942742 20.5528 1.30711V3.94614C20.5528 4.31051 20.8482 4.6059 21.2125 4.6059Z" fill="#38435B" stroke="#38435B" stroke-width="0.5"/>
<path fill-rule="evenodd" clip-rule="evenodd" d="M28.1854 7.62208H25.5464C25.1821 7.62208 24.8867 7.91745 24.8867 8.28183C24.8867 8.6462 25.1821 8.94158 25.5464 8.94158H28.1854C28.5498 8.94158 28.8452 8.6462 28.8452 8.28183C28.8452 7.91745 28.5498 7.62208 28.1854 7.62208Z" fill="#38435B" stroke="#38435B" stroke-width="0.5"/>
</svg>
